<?xml version="1.0" encoding="UTF-8" standalone="no"?>
<svg
   version="1.1"
   id="图层_1"
   x="0px"
   y="0px"
   viewBox="0 0 1075.41 33.371011"
   xml:space="preserve"
   height="88.078049"
   width="500"
   sodipodi:docname="path1.svg"
   inkscape:version="1.4.2 (f4327f4, 2025-05-13)"
   xmlns:inkscape="http://www.inkscape.org/namespaces/inkscape"
   xmlns:sodipodi="http://sodipodi.sourceforge.net/DTD/sodipodi-0.dtd"
   xmlns="http://www.w3.org/2000/svg"
   xmlns:svg="http://www.w3.org/2000/svg"><sodipodi:namedview
   id="namedview1"
   pagecolor="#6b6060"
   bordercolor="#000000"
   borderopacity="0.25"
   inkscape:showpageshadow="2"
   inkscape:pageopacity="0.0"
   inkscape:pagecheckerboard="0"
   inkscape:deskcolor="#d1d1d1"
   inkscape:zoom="2.416"
   inkscape:cx="198.05464"
   inkscape:cy="5.5877483"
   inkscape:window-width="2560"
   inkscape:window-height="1351"
   inkscape:window-x="-9"
   inkscape:window-y="-9"
   inkscape:window-maximized="1"
   inkscape:current-layer="图层_1" /><defs
   id="defs1" />
<style
   type="text/css"
   id="style1">.st0 { fill: #ffffff; }</style>
<path
   class="st0"
   d="m 602.75,54.885506 c -5.11,0 -9.36,1.74 -12.75,5.23 -3.35,3.45 -5.03,7.74 -5.03,12.85 0,5.08 1.68,9.38 5.03,12.9 3.39,3.45 7.64,5.18 12.75,5.18 5.11,0 9.36,-1.73 12.75,-5.18 3.39,-3.49 5.08,-7.79 5.08,-12.9 0,-5.11 -1.69,-9.4 -5.08,-12.85 -3.39,-3.49 -7.64,-5.23 -12.75,-5.23 z m 8.66,27.34 c -2.36,2.46 -5.25,3.69 -8.67,3.69 -3.42,0 -6.31,-1.23 -8.67,-3.69 -2.32,-2.46 -3.49,-5.55 -3.49,-9.26 0,-3.72 1.16,-6.79 3.49,-9.21 2.36,-2.49 5.25,-3.73 8.67,-3.73 3.42,0 6.31,1.25 8.67,3.73 2.36,2.46 3.54,5.53 3.54,9.21 0,3.65 -1.18,6.74 -3.54,9.26 z m -38.09,-1.45 -19.67,-25.25 h -4.78 v 34.87 h 5.38 v -25.35 l 19.82,25.35 h 4.63 v -34.87 h -5.38 z m 281.67,9.62 h 5.48 v -34.87 h -5.48 z m -590.95,-142.48 c 7.06,-2.25 1.67,-10.53 -4.71,-9.6 0,0 -3.57,0.3 -4.73,1.09 -1.48,0.8 -0.93,1.68 -1.92,2.78 -1.25,0.93 -1.2,2.48 -0.74,3.74 1.18,3.26 6.28,3.83 12.1,1.99 z m 726.27,124.65 c -1.83,-1 -3.95,-1.86 -6.38,-2.59 l -3.98,-1.15 c -0.2,-0.07 -0.53,-0.18 -1,-0.35 -0.47,-0.17 -0.88,-0.32 -1.25,-0.47 -0.36,-0.15 -0.65,-0.29 -0.85,-0.42 -1.36,-0.96 -2.04,-2.01 -2.04,-3.14 0,-1.33 0.61,-2.4 1.82,-3.21 1.21,-0.81 2.98,-1.22 5.3,-1.22 3.82,0 7.5,1.08 11.06,3.24 v -5.48 c -3.22,-1.93 -6.94,-2.89 -11.16,-2.89 -3.88,0 -6.96,0.86 -9.24,2.59 -2.28,1.73 -3.41,4.04 -3.41,6.92 0,3.19 1.2,5.53 3.59,7.02 1.43,0.83 2.59,1.41 3.49,1.74 1.13,0.43 2.64,0.91 4.53,1.44 l 0.7,0.2 c 2.22,0.63 3.82,1.18 4.78,1.64 0.8,0.33 1.4,0.68 1.79,1.05 1.03,0.9 1.54,1.98 1.54,3.24 0,1.59 -0.75,2.86 -2.27,3.79 -1.51,0.93 -3.45,1.39 -5.8,1.39 -2.39,0 -4.78,-0.45 -7.17,-1.34 -2.39,-0.93 -4.27,-1.99 -5.63,-3.19 v 5.93 c 3.42,2.49 7.79,3.73 13.1,3.73 3.82,0 7.01,-0.93 9.56,-2.79 2.56,-1.86 3.83,-4.4 3.83,-7.62 -0.18,-3.71 -1.82,-6.4 -4.91,-8.06 z m -338.12,-0.93 c 1.34,-1.71 2.02,-3.78 2.02,-6.2 0,-2.92 -1.03,-5.31 -3.09,-7.17 -2.03,-1.83 -4.83,-2.74 -8.42,-2.74 h -15.89 v 34.87 h 5.48 v -14.74 h 8.17 l 10.51,14.74 h 6.62 l -10.96,-15.34 c 2.37,-0.57 4.22,-1.7 5.56,-3.42 z m -19.89,-0.82 v -10.26 h 10.06 c 1.99,0 3.54,0.45 4.66,1.35 1.11,0.9 1.67,2.14 1.67,3.74 0,1.66 -0.56,2.94 -1.67,3.83 -1.11,0.9 -2.67,1.34 -4.66,1.34 z m 209.29,9.96 -19.67,-25.25 h -4.78 v 34.87 h 5.38 v -25.35 l 19.82,25.35 h 4.63 v -34.87 h -5.38 z M 811.73,2.3555055 c -1.76,-0.5 -11.49,2.6 -16.64,2.88 -1.96,0.12 -2.53,-0.88 -2.57,-1.99 -0.14,-3.83 11.8,-3.39 11.64,-7.42 -0.23,-5.9499995 -4.46,-8.1199995 -10.54,-7.1399995 0,0 -7.49,1.5699995 -14.22,2.2299995 -5.66,0.55 -12.95,5.15 -11.33,9.05 1.74,4.16 6.87,3.83 10.73,1.26 1.31,-0.87 1.09,-1.35 1.83,-2.49 0.92,-1.41 2.29,-0.96 2.94,-1.63 1.93,-1.98 2.89,-3.27 4.21,-1.6 0.49,0.62 -0.56,4.14 -0.92,5.08 -0.7,1.73 -2.29,4.36 -4.33,5.23 -6.82,2.9 -14.45,4.8300005 -15.06,9.4500005 -0.14,1.06 2.49,4.29 4.15,4.83 1.88,0.61 2.83,-0.83 6.23,-2.57 1.32,-0.68 4.54,0.2 5.74,-0.33 2.16,-0.94 4.92,-3.6 5.55,-2.57 1.27,2.08 0.21,7.72 -3.07,11.89 -1.97,2.5 -4.82,4.7 -6.82,4.4 -0.75,-0.11 -5.35,0.53 -5.66,3.9 -0.35,3.87 1.95,5.6 3.58,6.09 7.12,2.22 11.1,-4.02 16.16,-9.58 2.66,-2.92 4.55,-6.85 4.92,-8.85 0.6,-3.29 1.43,-2.89 1.37,-4.29 -0.11,-2.75 -1.54,-3.9 -0.8,-4.53 2.37,-2.05 6.81,-1.04 7.81,-1.16 1.61,-0.18 5.4,0.13 7.57,-1.23 4.21,-2.6600005 -0.43,-8.3200005 -2.47,-8.9100005 z m 70.9,80.6700005 -11.55,-27.49 H 865 l 14.99,35.06 h 5.18 l 14.94,-35.06 h -5.93 z m -167.45,-27.7 -15.24,35.06 h 5.83 l 3.74,-8.67 h 16.54 l 3.78,8.67 h 5.88 l -15.24,-35.06 z m -3.78,21.57 6.38,-14.64 6.38,14.64 z m 249.29,-5.26 c 1.34,-1.71 2.02,-3.78 2.02,-6.2 0,-2.92 -1.03,-5.31 -3.09,-7.17 -2.03,-1.83 -4.83,-2.74 -8.42,-2.74 h -15.89 v 34.87 h 5.48 v -14.74 h 8.17 l 10.51,14.74 h 6.62 l -10.96,-15.34 c 2.36,-0.57 4.21,-1.7 5.56,-3.42 z m -19.9,-0.82 v -10.26 h 10.06 c 1.99,0 3.54,0.45 4.66,1.35 1.11,0.9 1.67,2.14 1.67,3.74 0,1.66 -0.56,2.94 -1.67,3.83 -1.11,0.9 -2.66,1.34 -4.66,1.34 z m -195.27,-15.29 h -5.53 v 34.87 h 24.06 v -5.03 h -18.53 z m -66.58,15.69 -11.31,-15.69 h -5.58 v 34.87 h 5.48 v -26.5 l 9.71,13.15 h 3.19 l 9.71,-13.15 v 26.5 h 5.48 v -34.87 h -5.48 z m -399.68,-122.73 c 0.99,0.01 1.47,-0.66 2.27,-0.76 3.12,-0.39 6.49,0.8 7.89,-0.18 5.4,-3.79 3.29,-8.44 -2.68,-8.63 -3.63,-0.12 -8.32,1.93 -11.18,6.31 -1.86,2.84 2.71,3.26 3.7,3.26 z m 524.88,127.36 c 0,3.22 -0.82,5.7 -2.46,7.45 -1.64,1.74 -3.88,2.61 -6.7,2.61 -2.82,0 -5.05,-0.87 -6.67,-2.61 -1.63,-1.74 -2.44,-4.23 -2.44,-7.45 v -20.32 h -5.48 v 20.12 c 0,4.92 1.34,8.72 4.04,11.41 2.75,2.66 6.28,3.98 10.56,3.98 4.28,0 7.8,-1.34 10.56,-4.03 2.72,-2.69 4.08,-6.48 4.08,-11.36 v -20.12 h -5.48 v 20.32 z m 105.84,-1.54 h 15.74 v -5.03 h -15.74 v -8.72 h 19.32 v -5.03 h -24.8 v 34.87 h 25.45 v -5.03 H 909.98 Z M 618.76,3.3255055 c -3.41,-0.47 -4.5,3.65 -5.38,6.9700005 l -0.74,2.51 c -1.83,4.85 -11.38,8.59 -19.44,9.64 l -2.2,0.32 c -3.9,0.61 -6.97,1.09 -10.86,-1.66 -1.69,-1.2 -2.57,-5.2 -1.95,-8.9 0.49,-2.9300005 1.81,-4.9200005 3.61,-5.4500005 0.78,-0.23 0.92,0.05 1.16,0.51 0.57,1.1 1.39,1.87 5.69,0.08 0.37,-0.16 0.69,-1.01 1.26,-2.63 0.47,-1.35 1.01,-2.87 1.61,-3.76 l 1.98,-2.55 1.33,-1.78 c 1.27,-3.06 0.89,-6.28 -1.02,-8.8299995 -2.13,-2.84 -5.78,-4.28 -9.78,-3.86 -5.91,0.63 -11.93,3.75 -17.25,6.4999995 -5.41,2.8 -10.09,5.23 -13.62,4.68 -1.25,-0.2 -2.07,-0.99 -2.78,-1.69 -0.67,-0.65 -1.3,-1.28 -2.15,-1.18 -1.21,0.14 -2.69,1.75 -4.97,5.38 -0.45,0.74 -0.82,2.18 -1.24,3.86 -0.69,2.71 -1.54,6.08 -3.04,6.81 -0.41,0.19 -0.84,0.18 -1.33,-0.03 -0.5,-0.23 -0.81,-0.59 -0.94,-1.11 -0.58,-2.26 2.43,-6.42 2.46,-6.45 0.02,-0.04 1.3,-3.84 1.3,-3.84 0.31,-1.19 0.61,-2.31 1.13,-3.18 2.98,-5.0799995 8.08,-5.3899995 13.47,-5.7099995 2.79,-0.17 7.3,-2.83 8.1,-3.64 1.59,-1.59 0.02,-3.87 -1.23,-5.69 l -0.23,-0.34 c -2.08,-3.05 -4.46,-4.1 -7.27,-3.22 -2.35,0.75 -5.48,3.1 -9.1,5.82 -2.75,2.08 -5.59,4.21 -8.45,5.92 l -1,0.58 c -5.87,3.3599995 -12.64,7.5699995 -12.79,10.2399995 -0.03,0.52 0.19,0.96 0.65,1.3 1.92,1.42 4.37,-0.5 6.53,-2.21 1.65,-1.3 3.22,-2.53 3.99,-1.74 0.27,0.27 0.39,0.53 0.39,0.84 0,0.6 -0.5,1.36 -1.52,2.31 l -0.45,0.44 c -1.23,1.12 -2.37,2.18 -3.45,5.73 -1.51,4.98 -0.67,6.2900005 0.73,8.4600005 l 1.41,2.39 c 0.6,1.2 0.36,2.91 0.21,4.04 l -0.02,1.29 c 0.94,1.56 1.87,1.6 2.56,1.63 0.55,0.03 0.88,0.04 1.15,0.71 0.61,1.54 -0.43,4.89 -1.18,5.19 -0.05,0.01 -0.2,0.07 -0.38,-0.35 -0.45,-1.08 -2.34,-1.1 -3.05,-1.1 -1.93,-0.03 -2.78,1.41 -3.53,2.69 l -0.56,0.92 c -3.16,4.5 -1.03,7.43 1.48,9.69 1.49,1.35 2.78,2.51 6.09,1.49 2.84,-0.88 4,-5.17 5.22,-9.71 l 0.41,-1.46 c 1.17,-4.24 2.52,-7.79 3.7,-9.74 1.44,-2.39 1.56,-4.39 1.64,-6 l 0.33,-2.27 c 1.03,-2.7500005 2.81,-3.5700005 5.05,-4.6100005 1.18,-0.55 2.5,-1.16 3.88,-2.15 l 3.17,-2.34 c 3.87,-2.9 6.93,-5.18 11.94,-6.91 1.66,-0.58 3.43,-1.61 5.13,-2.6 2.34,-1.36 4.75,-2.77 7.01,-3.12 l 0.46,-0.07 c 2,-0.32 5.7,-0.9199995 6.7,0.51 0.32,0.43 0.93,3.71 0.05,5.07 -0.31,0.48 -0.77,0.66 -1.4,0.54 -1.06,-0.2 -1.09,-0.83 -1.05,-1.85 0.03,-0.68 0.06,-1.38 -0.47,-1.83 -0.94,-0.8 -4.39,-0.81 -4.42,-0.81 -1.31,0 -2.53,1.31 -3.94,2.82 -1.02,1.08 -2.18,2.32 -3.52,3.19 -4.94,3.23 -7.07,10.25 -6.6,15.5300005 0.53,6.07 3.25,8.74 4.87,10.35 l 0.96,1.05 c 3.59,5.33 9.02,9.9 24.4,7.38 10.11,-1.66 18.43,-5.96 22.85,-11.77 2.02,-2.66 3.06,-10.29 1.35,-14.4400005 -0.67,-1.66 -1.72,-2.6 -3.11,-2.8 z m -149.29,1.3 c 4.43,-1.33 1.17,-9.51 3.11,-13.59 0.42,-0.88 0.67,-2.4299995 2.12,-1.9599995 1.45,0.48 1.11,18.1199995 0.75,28.51 -0.25,7.11 0.57,12.84 1.14,18.32 0.25,2.3 0.57,4.46 3.99,4.47 4.85,0.01 4.72,-10.35 4.62,-16.76 -0.07,-5.32 0.18,-13.31 1.9,-16.3600005 1.89,-3.37 7.36,-6.36 10.78,-7.84 3.51,-1.51 5.73,-6.41 7.48,-8.51 2.38,-2.8299995 3.39,-11.0899995 3.44,-13.9999995 0.07,-4 -1.51,-5.69 -4.81,-6.48 -5.08,-1.22 -11.96,4.77 -14.5,2.44 -1.05,-0.97 0.5,-3.58 0.5,-5.23 0.01,-2.67 -1.93,-4.67 -4.08,-4.81 -1.39,-0.1 -1.68,-1.82 -0.13,-2.25 2.21,-0.62 3.36,-0.58 5.69,-0.78 4.4,-0.41 6.85,-1.13 8.79,-5.47 0.6,-1.32 -0.28,-3.84 -2.28,-4.81 -2.56,-1.24 -9.74,-0.11 -17.21,1.46 -8.06,1.69 -16.59,3.08 -17.74,6.33 -0.57,1.58 -1.95,3.54 -2.51,5.54 -0.83,2.89 -1.13,5.45 -2.45,6.78 -4.14,4.2 -4.23,11.3 -5.59,9.16 -0.93,-1.47 -3.25,-0.9 -4.72,-0.96 -0.69,-0.03 -0.94,-1.86 -0.32,-2.68 0.61,-0.82 0.84,-0.21 1.83,-0.85 2.71,-1.74 5.69,-5.55 5.86,-7.87 0.42,-5.84 1.86,-10.49 -1.23,-13.24 -2.66,-2.37 -6.57,-2.87 -10.42,-2.39 -2.01,0.25 -5.21,1.15 -7.12,2.44 -3.29,2.19 -3.68,6.89 -4.83,12.66 -0.47,2.36 -1.99,5.5 -2.28,9.11 -0.36,4.59 -0.7,10.97 -0.79,14.24 -0.21,7.3699995 0.42,12.3699995 3.01,17.0499995 1.35,2.45 1.19,6.2900005 4.93,5.7900005 3.1,-0.42 -0.53,-11.4900005 -0.57,-16.8700005 -0.01,-2.19 0.11,-4.31 1.61,-5.5399995 0.48,-0.38 0.76,-1.48 1.79,-1.19 1.04,0.29 0.03,3.6699995 1.55,3.3999995 2.7,-0.47 3.49,-4.0499995 5.84,-3.2099995 1.85,0.67 -0.07,3.9699995 -1.85,6.1999995 -3.51,4.36 -4.19,11.37 1.88,11.85 2.58,0.21 4.85,-3.7 5.44,-7.32 0.45,-2.83 -0.14,-4.48 0.42,-6.73 0.47,-1.78 1.84,-2.4 2.57,-4.5899995 0.7,-2.09 1.11,-4.43 2.28,-6.96 1.34,-2.93 3.49,-6.05 4.83,-8.46 1.51,-2.7 2.76,-5.28 4.66,-7.02 1.9,-1.74 4.88,-3.2 7.04,-2.26 1.54,0.67 -3.47,5.01 -6.27,8.82 -3.92,5.33 -5.59,11.48 -5.27,18.9399995 0.12,3.02 0.09,11.39 2.36,12.75 1.65,1.02 2.96,1.27 4.76,0.73 z m 17.95,-13.78 c 0.79,-2.8499995 -0.27,-3.7299995 0.09,-5.2999995 0.58,-2.57 4.22,-2.38 6.39,-2.79 2.92,-0.55 4.53,-2 5.16,0.06 0,0 -0.03,4.57 -3.16,7.5499995 -2.37,2.26 -3.77,3.33 -5.57,3.4 -0.94,0.05 -3.22,-1.79 -2.91,-2.92 z M 445.4,-33.384494 c 0.5,4.55 -0.28,4.71 -1.12,7.05 -0.59,1.66 2.6,2.59 0.27,3.77 -4.53,2.3 -5.06,6.16 -5.42,8.32 -0.17,1.02 -1.43,0.93 -1.78,0 -0.81,-2.12 -1.47,-5.99 -0.19,-9.21 1.73,-4.33 2.1,-7.64 3.59,-10.5 1.86,-3.61 4.87,-5.53 5.74,-4.82 1.7,1.33 -1.26,3.81 -1.09,5.39 z m 29.93,3.21 c 2.02,-4.02 2.7,-3.53 3.79,-2.94 1.21,0.68 -1.4,4 -3.19,8.5 -1.31,3.3 -3.5,5 -5.06,3.84 -1.14,-0.86 2.85,-6.18 4.46,-9.4 z m -208.89,69.75 c 2.81,1.63 5.71,2.15 6.49,0.01 1.25,-3.43 0.65,-12.69 2.02,-13.8 4.06,-3.24 17.97,0.43 19.8,-5.4 2.16,-6.78 -1.61,-9.68 -3.92,-9.31 -4.13,0.67 -10.49,2.61 -14.3,2.41 -1.5,-0.08 -1.06,-2.58 -0.49,-4.4300005 1.36,-4.51 12.26,-1.68 20.11,-2.08 5.87,-0.31 5.43,0.68 9.24,0.82 5.38,0.18 9.06,-4.82 5.95,-10.92 -1.18,-2.32 -16.11,-0.78 -21.54,0.09 -6.86,1.09 -9.98,2.68 -12.08,0.58 -2.33,-2.36 2.22,-3.4 2.34,-3.4 6.92,-0.07 25.93,-14.5199995 14.78,-24.7799995 -3.8,-3.5 -0.99,-6.81 -7.11,-6.2 -0.54,0.06 -6.53,1.63 -7.82,0.76 -1.23,-0.82 -1.25,-4.24 1.77,-4.7 4.12,-0.61 11.07,-0.58 11.84,-0.82 7.6,-2.23 6.53,-10.99 -2.65,-8.46 -5.19,1.42 -9.06,2.41 -11.74,0.98 -0.22,-0.11 -2.93,-1.68 -4,-1.32 -1.06,0.37 -0.13,1.87 -2.37,2.06 -2.25,0.19 -10.97,-0.33 -16.12,1.79 -2.16,0.89 -7.13,-0.62 -9.31,0.98 -2.12,1.56 -5.57,7.73 0.17,10.12 2.51,1.05 7.27,-4.28 14.06,-4.79 3.31,-0.24 4.5,-3.12 7.62,-1.05 1.25,0.83 0.59,1.21 0.07,1.79 -0.3,0.34 -10.33,3.56 -17.89,8.17 -5.27,3.22 -9.87,6.17 -7.57,11.6 0.49,1.16 4.47,3.68 1.11,5.25 -3.19,1.49 -7.64,4.7199995 -8.01,7.3599995 -0.13,0.98 -0.17,4.6 -0.06,5.55 0.49,4.38 6.05,3.45 5.86,5.19 -0.09,0.78 -4.19,1.37 -6.88,3.05 -1.8,1.13 -1.98,4.3200005 -1.82,5.7400005 0.24,2.19 1.52,1.57 5.93,1.57 7.06,0.01 9.27,-0.91 17.62,-3.6 1.7,-0.5400005 5.28,-1.2000005 7.24,-0.6800005 2.17,0.5900005 1.43,3.5100005 -1.13,4.2500005 -5.21,1.52 -27.17,8.26 -17.25,14.89 2.39,1.61 7.95,1.47 9.54,0.99 1.77,-0.55 5.94,-3.57 7.95,-1.89 2.25,1.89 -1.78,9.11 2.55,11.63 z m 11.46,-68.11 c 0.94,-2.3 5.91,-2.42 6.07,-1.61 0.14,0.81 -1.72,3.82 -0.76,5.86 0.99,2.13 1.99,3.94 4.3,3.63 1.35,-0.18 0.93,1.56 -0.2,3.43 -0.84,1.41 -7.5,8.8799995 -9.59,7.09 -1.48,-1.24 -1.89,-8.04 0.42,-12.6 0.37,-1.76 -0.86,-4.42 -0.24,-5.8 z m -32.96,25.6099995 c -3.18,-2.59 3.36,-7.4799995 5.13,-7.4399995 3.25,0.06 -1.7,10.1899995 -5.13,7.4399995 z m 22.55,-30.0499995 c 1.82,0.52 1.36,2.54 -1.57,4.75 -4.32,3.23 -10.53,7.94 -12.12,5.09 -1.64,-2.91 10.99,-10.63 13.69,-9.84 z m -7.17,31.3399995 c -3.62,1.32 -6.58,2.93 -7.43,2.55 -1.81,-0.82 0.99,-1.42 1.38,-3.56 1.38,-7.6199995 1.39,-11.5499995 3.71,-12.9799995 2.4,-1.48 4.07,-1.45 5.44,-2.37 2.73,-1.84 3.8,-3.76 4.12,-3.18 0.28,0.5 0.38,4.19 -0.32,8.01 -0.89,4.8699995 0.67,8.7199995 -0.52,9.6099995 -1.79,1.32 -4.34,1.17 -6.38,1.92 z m 20.44,56.9600005 -15.24,35.06 h 5.83 l 3.74,-8.67 h 16.54 l 3.79,8.67 h 5.88 l -15.24,-35.06 z m -3.78,21.57 6.38,-14.64 6.38,14.64 z m 158.59,-7.62 h -18.18 v -13.75 h -5.48 v 34.87 h 5.48 v -16.09 h 18.18 v 16.09 h 5.48 v -34.87 h -5.48 z m 51.45,11.5 -19.67,-25.25 h -4.78 v 34.87 h 5.38 v -25.35 l 19.82,25.35 h 4.63 v -34.87 h -5.38 z m -161.37,-8.21 c -1.83,-1 -3.95,-1.86 -6.38,-2.59 l -3.98,-1.15 c -0.2,-0.07 -0.53,-0.18 -1,-0.35 -0.47,-0.17 -0.88,-0.32 -1.25,-0.47 -0.36,-0.15 -0.65,-0.29 -0.85,-0.42 -1.36,-0.96 -2.04,-2.01 -2.04,-3.14 0,-1.33 0.61,-2.4 1.82,-3.21 1.21,-0.81 2.98,-1.22 5.3,-1.22 3.82,0 7.5,1.08 11.06,3.24 v -5.48 c -3.22,-1.93 -6.94,-2.89 -11.16,-2.89 -3.89,0 -6.97,0.86 -9.24,2.59 -2.27,1.73 -3.41,4.04 -3.41,6.92 0,3.19 1.2,5.53 3.59,7.02 1.43,0.83 2.59,1.41 3.49,1.74 1.13,0.43 2.64,0.91 4.53,1.44 l 0.7,0.2 c 2.22,0.63 3.82,1.18 4.78,1.64 0.8,0.33 1.39,0.68 1.79,1.05 1.03,0.9 1.54,1.98 1.54,3.24 0,1.59 -0.75,2.86 -2.27,3.79 -1.51,0.93 -3.45,1.39 -5.8,1.39 -2.39,0 -4.78,-0.45 -7.17,-1.34 -2.39,-0.93 -4.27,-1.99 -5.63,-3.19 v 5.93 c 3.42,2.49 7.79,3.73 13.1,3.73 3.82,0 7.01,-0.93 9.56,-2.79 2.56,-1.86 3.83,-4.4 3.83,-7.62 -0.18,-3.71 -1.82,-6.4 -4.91,-8.06 z m 123.42,17.83 h 5.48 v -34.87 h -5.48 z m -42.79,-76.18 c -2.2,-1.77 -0.85,0.7 -7.08,-0.16 -1.77,-0.25 -9.84,-2.83 -13.92,-3.67 -1.95,-0.4200005 -5.65,-2.3000005 -8.51,-4.5000005 -1.82,-1.42 -4.63,-1.12 -1.74,-5.17 1.74,-2.43 -1.42,-4.29 0.4,-5.75 1.54,-1.25 4.84,-2.89 6.77,-4.58 2.31,-2.0299995 4.61,-5.8199995 7.95,-9.5599995 3.11,-3.5 4.45,-14 0.64,-15.87 -2.61,-1.28 -6.15,-0.62 -11.12,-0.87 -2.52,-0.12 -5.36,4.45 -4.9,0.43 0.31,-2.77 0,-3.84 2.13,-5.11 3.35,-1.98 16.32,-2 14.48,-8.49 -1.47,-5.22 -8.87,0.75 -12.76,-1.72 -1.82,-1.14 -0.84,-6.8 -5.49,-4.3 -0.64,0.34 -3.51,1.45 -4.06,2.35 -0.55,0.9 -0.24,4.74 -0.65,4.79 -2.71,0.35 -7.23,0.63 -13.12,2.14 -5.57,1.45 -10.22,-0.55 -13.47,2.79 -1.37,1.39 -2.63,2.26 -3.53,4.06 -1.56,3.1 1.11,6.59 4.96,6.78 1.66,0.08 9.42,-5.86 13.13,-6.94 4.3,-1.25 8.81,-2.33 10.04,-0.89 0.6,0.7 0.4,2.57 -0.55,4.52 -3.45,7.11 -7.45,6.77 -10.49,8.48 -0.67,0.38 -1.17,-1.05 -0.4,-2.26 1.03,-1.6 3.68,-3.39 3.48,-3.99 -0.26,-0.77 -5.55,0.13 -9.85,2.12 -1.65,0.76 -2.77,1.77 -3.97,2.79 -3.57,3.02 -5.89,12.8 -4.35,21.1199995 1.27,6.88 1.06,12.75 5.46,13.66 5.25,1.08 5.14,-3.96 4.11,-11.89 -0.59,-4.5299995 1.75,-8.4399995 3.05,-10.4999995 0.51,-0.83 1.16,-6.04 7.79,-5.5 0.28,0.03 0.62,1.5 -0.85,2.24 -1.91,0.98 -3.81,3.41 -3.68,4.76 0.17,1.66 1.81,3.03 2.6,5.0099995 0.8,1.98 -3.05,3.51 1.47,5.86 0.35,0.18 -1.52,2.34 -2.69,2.26 -0.55,-0.04 -0.75,-0.96 -1.28,-0.9 -1.64,0.2 -2.13,4.54 -2.31,5.04 -0.99,2.88 -3.6,5.17 -6.28,7.6900005 -4.55,4.3 -10.38,10.74 -13.47,14.74 -3.67,4.76 -0.93,7.88 5.57,7.47 2.91,-0.19 7.87,-6.55 10.44,-9.5 1.8,-2.09 5.7,-6.38 8.08,-6.96 2.55,-0.61 -0.86,15.58 0.25,17.18 1.94,2.76 8,3.74 8.01,-0.96 0,-2.13 -0.4,-4.8 -0.54,-8 -0.1,-2.49 0.5,-5.47 0.57,-7.73 0.09,-3.24 0.13,-6.4 0.95,-6.54 1.86,-0.3100005 3,2.46 6.38,5.29 7.92,6.67 22.12,10.94 31.95,10.48 5.89,-0.28 8.41,-4.34 3.13,-9.33 -1.21,-1.13 -2.08,-1.89 -2.73,-2.41 z m -33.79,-26.97 c 0.51,-1.79 1.63,-5.79 -1,-6.77 -2.57,-0.95 -2.37,-7 -0.15,-6.45 4.1,1 10.29,-0.43 10.66,0.49 1.48,3.73 -2.27,8.94 -5.38,11.74 -1.17,1.04 -2.1,3.09 -2.81,3.72 -1.89,1.6899995 -2.24,0.4899995 -1.32,-2.73 z m 14.21,95.03 c -2.46,-2.46 -3.69,-5.56 -3.69,-9.31 0,-3.75 1.21,-6.84 3.64,-9.26 2.46,-2.46 5.51,-3.68 9.16,-3.68 3.45,0 6.59,0.91 9.41,2.74 v -5.53 c -2.76,-1.56 -5.91,-2.34 -9.46,-2.34 -5.31,0 -9.7,1.71 -13.15,5.13 -3.49,3.39 -5.23,7.7 -5.23,12.95 0,5.25 1.74,9.58 5.23,13 3.55,3.39 7.94,5.08 13.15,5.08 3.88,0 7.29,-0.93 10.21,-2.79 v -5.53 c -2.66,2.13 -5.98,3.19 -9.96,3.19 -3.75,-0.02 -6.85,-1.23 -9.31,-3.65 z m 682.53,-26.75 -9.96,14.1 -9.96,-14.1 h -6.38 l 13.5,19.08 v 15.79 h 5.48 v -15.94 l 13.5,-18.93 z m -736.07,5.03 h 11.51 v 29.84 h 5.48 v -29.84 h 11.56 v -5.03 h -28.54 v 5.03 z m -90.88,13.75 h 15.74 v -5.03 h -15.74 v -8.72 h 19.32 v -5.03 h -24.8 v 34.87 h 25.45 v -5.03 h -19.97 z m 269.68,-18.98 -15.24,35.06 h 5.83 l 3.74,-8.67 h 16.54 l 3.79,8.67 h 5.88 l -15.24,-35.06 z m -3.79,21.57 6.38,-14.64 6.38,14.64 z m 503.36,-16.34 h 11.51 v 29.84 h 5.48 v -29.84 h 11.55 v -5.03 h -28.54 z m -464.59,-87.32 c 0.59,-0.14 0.96,-0.71 1.38,-1.37 0.74,-1.14 1.65,-2.57 4.16,-2.57 1.18,0 1.88,0.92 2.69,1.97 0.97,1.28 2.09,2.73 4.31,2.53 2.25,-0.19 4.3,-2.72 6.1,-4.96 l 1.36,-1.64 c 2.33,-2.61 12.87,-11.56 16.45,-12.26 1.72,-0.33 2.75,-0.3 3.24,0.12 0.56,0.47 0.53,1.48 0.49,2.87 l -0.02,1.19 c 0,1.23 0.78,1.92 1.47,2.53 0.61,0.54 1.14,1.01 1,1.73 -0.29,1.67 -1.78,2.42 -3.35,3.22 -1.56,0.78 -3.15,1.6 -3.6,3.36 -0.54,2.16 -0.25,4.15 0.79,5.33 0.8,0.9 1.99,1.28 3.45,1.11 2.06,-0.25 3.29,-2.23 4.61,-4.32 0.82,-1.3 1.67,-2.66 2.77,-3.72 1.62,-1.57 3.04,-1.73 4.54,-1.9 1.28,-0.14 2.62,-0.29 4.02,-1.43 1.28,-1.03 1.94,-2.38 1.89,-3.8 -0.07,-1.71 -1.17,-3.4 -3.09,-4.73 -2.69,-1.85 -4.38,-0.27 -5.49,0.78 -0.4,0.38 -0.78,0.74 -1.01,0.71 l -0.23,-0.17 c -1.36,-1.94 -0.17,-3.68 1.1,-5.54 0.61,-0.89 1.24,-1.81 1.6,-2.77 0.47,-1.31 0.38,-2.39 -0.24,-3.12 -0.92,-1.09 -2.96,-1.34 -6.05,-0.74 -1.33,0.25 -2.5,1.2 -3.74,2.19 -1.2,0.97 -2.44,1.97 -3.93,2.43 -3.99,1.23 -6.8,2.99 -9.07,4.42 -1.64,1.05 -2.95,1.86 -4.12,2.07 -0.83,0.15 -2.31,0.03 -3.87,-0.09 -2.76,-0.21 -5.88,-0.46 -7.18,0.55 l -2.15,2.28 c -0.96,1.14 -1.96,2.34 -2.65,2.37 l -0.44,-0.19 c -0.98,-0.98 0.26,-2.79 1.46,-4.56 l 0.46,-0.69 c 1.64,-2.47 3.66,-3.83 5.45,-5.03 1.09,-0.74 2.03,-1.37 2.69,-2.14 1.16,-1.35 1.39,-2.99 0.61,-4.47 -0.84,-1.62 -2.67,-2.63 -4.45,-2.44 -3.28,0.34 -8.76,5.25 -11.45,8.27 -1.62,1.82 -2.85,3.83 -4.03,5.77 -1.3,2.13 -2.53,4.15 -4.2,5.86 -1.77,1.82 -1.28,4.94 -0.01,7.23 1.2,2.13 3.53,4.36 6.28,3.76 z m 93.35,52.28 c 3.76,-0.43 20.93,-9.8 32.34,-24.2000005 2.04,-2.57 5.74,-4.83 7.76,-6.71 2.76,-2.56 3.13,-4.9899995 6.02,-6.2099995 8.67,-3.66 17.41,-1.92 22.53,-5.17 4.03,-2.56 6.63,-6.61 2.97,-9.37 -1.35,-1.02 -1.83,-1.64 -5.09,-1.53 -5.55,0.16 -4.89,3.01 -8.67,3.24 -1.63,0.1 0.01,-6.01 3.17,-6.72 6.61,-1.49 14.18,-4.97 15.28,-10.85 0.9,-4.82 0.42,-9.44 -7.62,-7.4 -4.2,1.06 -9.81,2.89 -15.06,7.84 -6.75,6.35 -12.85,14.18 -19.35,17.4 -4.2,2.1 -3.52,-0.12 -7.69,0.85 -11.63,2.72 -19.34,6.81 -17.63,12.96 1.19,4.2799995 5.42,5.4599995 7.79,5.9299995 2.92,0.57 5.52,-0.72 5.21,0.92 -0.31,1.63 -5.61,6.51 -9.19,10.78 -1.42,1.71 -5.69,5.1100005 -10.2,7.1300005 -7.55,3.35 -9.87,4.6 -9.49,7.11 0.46,3.09 3.56,4.4 6.92,4 z M 756.17,6.3455055 c 4.26,-1.29 0.17,-8.78 2.1,-12.89 1.29,-2.75 11.37,-3.7299995 17.88,-5.6199995 2.98,-0.85 7.04,-2.62 11.56,-2.93 7.49,-0.53 14.29,-2.57 18.89,-3.09 2.5,-0.27 5.19,0.35 7.74,-0.15 2.91,-0.58 1.88,2.95 3.15,3.83 3.32,2.27 7.99,2.69 10.06,0.43 1.46,-1.29 2.58,-4.49 1.26,-8.39 -2.47,-7.32 -17.25,-0.07 -19.2,-3.86 -0.43,-0.84 4.11,-5.45 3.24,-4.49 2.49,-2.75 5.22,-6.65 6.26,-11.05 0.85,-3.61 -0.53,-4.52 -0.99,-6.65 -0.37,-1.73 -0.09,-3.5 -1.4,-5.16 -3.26,-4.1 -7.82,-2.98 -10.23,-0.43 -2.58,2.75 -5.11,9.49 -8.25,9.72 -3.49,0.25 -5.03,-1.51 -4.41,-3.42 0.89,-2.72 4.47,-6.56 3.96,-8.38 -0.29,-1.02 -2.78,-1.51 -5.28,-0.77 -2.5,0.74 -4.67,6.4 -7.41,5.14 -1.26,-0.57 -0.47,-3.61 -1.49,-4.24 -2.83,-1.77 -6.41,6.97 -9.49,7.31 -5.44,0.58 -7.08,2.92 -8.58,7.22 -1.09,3.15 -1.68,8.56 -2.84,12.29 -1.34,4.31 -0.33,8.77 -1.93,9.9 -1.75,1.22 -1.5,-0.36 -3.58,-0.1 -2.99,0.4 -8.42,13.6299995 -6.27,21.9499995 0.43,1.57 2.93,4.53 5.25,3.83 z m 43.05,-38.1199995 c 0.1,-8.96 3.78,-11.58 5.27,-12.36 3.31,-1.74 3.08,-3.17 4.9,-3.58 2.3,-0.52 3.96,1.91 4.14,4.73 0.17,2.65 -0.99,5.75 -3.19,5.94 -2.48,0.23 -2.51,-3.08 -3.99,-3.13 -1.77,-0.04 -3.68,2.5 -2.08,3.85 1.37,1.15 0.79,3.38 -0.36,5.16 -0.47,0.74 -2.41,1.5 -2.74,2.27 -0.47,1.12 0.85,2.88 0.46,4.03 -0.38,1.11 -3.83,2.11 -5.02,0.66 -1.86,-2.24 2.59,-5.86 2.61,-7.57 z m -8.29,-0.69 c 3.9,0.35 -0.83,11.36 -3.82,7.21 0,0 0.04,-1.23 0,-1.32 -0.94,-2.02 3.51,-5.91 3.82,-5.89 z m -11.9,2.27 c 0.71,-4.84 4.06,-8.78 6.42,-9.12 5.04,-0.75 0.01,3.97 -0.43,4.79 -0.99,1.75 -2.79,7.85 -4.07,7.1 -1.31,-0.76 -2.24,-0.59 -1.92,-2.77 z m -10.29,4.45 c -0.06,-4.47 -0.18,-10.18 0.52,-10.43 1.21,-0.43 4.25,-4.2 4.98,-3.15 1.23,1.78 -1.31,7.23 -1.65,9.4 -1.21,4.15 1.28,3.26 -1.12,7.1 -1.36,2.19 -0.81,4.61 -2.48,3.94 -1.28,-0.53 -0.2,-3.75 -0.25,-6.86 z m 232.62,116.14 h 5.48 v -34.87 h -5.48 z M 688.86,-4.9144945 c -2.4,-0.62 -4.26,5.17 -3.96,8.6 0.82,9.7800005 16.55,15.1200005 26.46,17.1600005 3.82,0.78 9.12,-0.58 12.94,-0.84 4.03,-0.27 7.36,0.79 8.29,-1.38 0.93,-2.17 2.2,-2.08 1.86,-4.34 -0.77,-5.2500005 -7.34,-7.1300005 -15.78,-6.7600005 -4.9,0.22 -9.75,-1.7 -12.86,-2.57 -9.44,-2.65 -14.54,-9.25 -16.95,-9.87 z M 17.72,30.545506 c 0.31,-0.21 0.66,-0.65 1.06,-1.32 0.1,-0.18 0.2,-0.46 0.32,-0.85 0.13,-0.45 0.21,-0.74 0.23,-0.88 l 0.22,-0.97 0.22,-1.040001 0.11,-0.45 c 0.08,-0.31 0.17,-0.56 0.27,-0.759999 0.17,-0.46 0.53,-0.720001 1.07,-0.78 0.5,-0.06 0.92,0.12 1.26,0.53 0.34,0.42 0.55,0.98 0.64,1.68 0.1,0.839999 0.03,1.72 -0.22,2.63 -0.26,0.899999 -0.62,1.639999 -1.05,2.23 l 2.97,-0.36 c 0.83,-1.4 1.14,-3.05 0.91,-4.920001 -0.17,-1.43 -0.7,-2.56 -1.58,-3.41 -0.88,-0.85 -1.99,-1.19 -3.32,-1.02 -1.28,0.160001 -2.19,0.69 -2.74,1.600001 -0.51,0.85 -0.89,1.81 -1.12,2.89 -0.08,0.36 -0.17,0.829999 -0.27,1.41 -0.07,0.43 -0.17,0.79 -0.29,1.07 -0.18,0.47 -0.47,0.73 -0.87,0.779999 -0.91,0.110001 -1.45,-0.54 -1.63,-1.949999 -0.17,-1.430001 0.1,-2.83 0.81,-4.21 l -2.77,0.339999 c -0.61,1.350001 -0.83,2.76 -0.65,4.220001 0.18,1.45 0.67,2.55 1.49,3.31 0.8,0.76 1.82,1.06 3.05,0.91 0.65,-0.09 1.28,-0.31 1.88,-0.68 z m 1.3,-27.7300005 c 2.04,0.51 3.89,0.31 5.54,-0.6 1.63,-0.92 2.69,-2.33 3.16,-4.22 0.33,-1.32 0.3,-2.56 -0.11,-3.71 l -2.81,-0.71 c 0.56,1.09 0.67,2.31 0.34,3.64 -0.3,1.21 -0.97,2.1 -1.99,2.67 -1.04,0.58 -2.2,0.7 -3.49,0.38 -1.29,-0.33 -2.25,-0.98 -2.88,-1.95 -0.64,-1 -0.81,-2.08 -0.52,-3.23 0.3,-1.2 0.92,-2.18 1.85,-2.94 l -2.81,-0.71 c -0.81,0.82 -1.37,1.82 -1.66,3.01 -0.48,1.9 -0.22,3.65 0.78,5.24 1,1.56 2.53,2.61 4.6,3.13 z m 17.23,-24.2699995 -11.83,-7.43 -1.37,2.18 11.83,7.43 z m -22.73,37.36 11.39,0.3 0.07,-2.59 -11.39,-0.3 0.11,-3.9900005 -2.57,-0.07 -0.28,10.5400005 2.57,0.07 z m 16.41,-25.3800005 -5.58,-2.5299995 2.34,-5.17 5.58,2.53 1.06,-2.34 -12.73,-5.76 -1.06,2.34 4.76,2.16 -2.34,5.17 -4.76,-2.16 -1.07,2.36 12.73,5.7599995 z m 9.33,-16.3199995 -6.88,-5.77 10.99,0.87 1.37,-1.64 -10.71,-8.97 -1.62,1.93 6.85,5.74 -10.93,-0.88 -1.42,1.69 10.71,8.97 z m 62.39,-36.62 2.33,4.84 1.42,0.19 3.46,-4.07 -1.26,9.48 2.53,0.34 1.84,-13.85 -2.53,-0.34 -4.38,5.26 -2.85,-6.22 -2.55,-0.34 -1.84,13.85 2.56,0.34 z m 11.73,11.76 2.21,-2.66 5.04,1.71 0.14,3.459999 2.6,0.88 -0.6,-15.04 -2.35,-0.8 -9.61,11.58 z m 7.05,-8.66 0.18,5.18 -3.49,-1.18 z m 12.69,14.51 -5.62,-3.01 5.38,-10.05 -2.28,-1.220001 -6.6,12.32 7.9,4.230001 z m 11.08,10.31 c 1.48,-0.15 2.85,-0.95 4.12,-2.42 l 5.31,-6.12 -1.95,-1.7 -5.38,6.19 c -0.71,0.81 -1.44,1.269999 -2.2,1.38 -0.76,0.1 -1.47,-0.13 -2.12,-0.69 -0.64,-0.56 -0.97,-1.220001 -0.97,-1.99 0,-0.77 0.35,-1.56 1.05,-2.38 l 5.38,-6.19 -1.94,-1.68 -5.31,6.12 c -1.27,1.47 -1.88,2.94 -1.83,4.41 0.05,1.47 0.67,2.72 1.86,3.75 1.18,1.04 2.51,1.48 3.98,1.32 z m -71.49,-17.14 c 1.54,1.07 3.22,1.37 5.04,0.92 1.81,-0.45 3.14,-1.51 4,-3.18 0.86,-1.68 1.05,-3.5 0.56,-5.45 -0.49,-1.96 -1.51,-3.48 -3.06,-4.54 -1.54,-1.07 -3.21,-1.38 -5.03,-0.92 -1.82,0.46 -3.16,1.52 -4.02,3.19 -0.86,1.64 -1.04,3.46 -0.54,5.44 0.5,1.96 1.51,3.47 3.05,4.54 z m -0.21,-8.63 c 0.51,-1.02 1.3,-1.66 2.39,-1.93 1.07,-0.27 2.07,-0.07 3,0.59 0.93,0.66 1.56,1.63 1.88,2.899999 0.32,1.28 0.22,2.43 -0.28,3.45 -0.51,1.02 -1.3,1.660001 -2.37,1.93 -1.08,0.27 -2.08,0.08 -3.02,-0.579999 -0.92,-0.65 -1.53,-1.620001 -1.86,-2.910001 -0.33,-1.3 -0.25,-2.44 0.26,-3.449999 z m 15.64,7.45 -0.32,-5.64 2.17,-0.12 3.97,5.43 2.99,-0.17 -4.21,-5.74 c 0.8,-0.32 1.41,-0.84 1.83,-1.55 0.42,-0.71 0.61,-1.53 0.55,-2.46 -0.07,-1.22 -0.51,-2.19 -1.33,-2.9 -0.81,-0.73 -1.88,-1.05 -3.22,-0.98 l -5.81,0.33 0.78,13.95 z m 2.44,-11.61 c 0.59,-0.03 1.05,0.09 1.4,0.37 0.34,0.279999 0.53,0.69 0.56,1.22 0.03,0.54 -0.11,0.97 -0.42,1.28 -0.31,0.31 -0.76,0.48 -1.35,0.51 l -3.08,0.17 -0.19,-3.39 z m -28.38,19.29 -3.84,-8.12 9.62,5.39 1.93,-0.910001 -5.97,-12.629999 -2.27,1.069999 3.82,8.08 -9.55,-5.37 -2,0.94 5.97,12.63 z m -14.92,10.49 -1.1,-3.28 4.1,-3.38 3.01,1.7 2.12,-1.75 -13.1,-7.4 -1.91,1.58 4.79,14.26 z m 0.85,-7.97 -2.84,2.339999 -1.66,-4.92 z m 124.04,83.59 -10.82,-3.58 -0.81,2.46 10.82,3.58 -1.25,3.79 2.44,0.81 3.31,-10.01 -2.44,-0.81 z m -14.79,6.4 -1.17,2.28 5.63,2.889999 4.59,7.800001 1.35,-2.64 -2.99,-5.06 5.85,-0.51 1.39,-2.720001 -9.08,0.81 z m -3.69,28.42 c -0.37,-0.52 -0.21,-0.58 -0.4,-0.76 -0.39,-0.35 -0.74,-0.31 -0.73,-0.5 0.03,-0.6 0.77,-1.07 0.89,-1.23 0.19,-0.24 0.74,-0.72 0.84,-1.21 0.2,-0.93 -1.2,-1.05 -1.55,-0.85 -0.3,0.18 -1.18,1.93 -1.83,2.67 -0.25,0.28 -0.46,0.23 -0.62,0.08 -0.54,-0.49 1.11,-2.07 0.54,-2.59 -0.85,-0.77 -1.71,-0.47 -2.39,0.49 0,0 -0.79,1.24 -1.6,2.25 -0.68,0.85 -1.03,2.47 -0.27,2.77 0.8,0.32 1.45,-0.43 1.61,-1.3 0.05,-0.3 -0.04,-0.33 -0.1,-0.59 -0.07,-0.31 0.17,-0.44 0.17,-0.62 -0.01,-0.53 -0.06,-0.84 0.34,-0.8 0.15,0.02 0.5,0.63 0.57,0.81 0.15,0.33 0.29,0.9 0.14,1.3 -0.52,1.33 -1.27,2.63 -0.72,3.34 0.13,0.16 0.92,0.23 1.22,0.08 0.34,-0.18 0.27,-0.5 0.48,-1.2 0.08,-0.27 0.64,-0.6 0.72,-0.83 0.16,-0.42 0.17,-1.16 0.39,-1.11 0.46,0.1 1.09,1.01 1.22,2.01 0.08,0.61 0,1.29 -0.31,1.529999 -0.12,0.09 -0.65,0.800001 -0.22,1.300001 0.48,0.57 1.03,0.48 1.31,0.32 1.26,-0.680001 0.94,-2.06 0.85,-3.5 -0.03,-0.76 -0.32,-1.550001 -0.55,-1.86 z m 9.01,-43.43 13.67,2.87 0.53,-2.51 -13.67,-2.87 z m -15.58,39.84 c 0.93,-1.1 1.56,-2.31 2.11,-3.01 0.3,-0.38 0.74,-0.67 1.01,-1.08 0.31,-0.48 0.66,0.14 0.95,0.08 0.76,-0.15 1.44,-0.74 1.41,-1.32 0.02,-0.37 -0.27,-0.96 -0.98,-1.3 -1.34,-0.64 -2.32,2.36 -3.1,2.12 -0.16,-0.05 -0.19,-1.06 -0.19,-1.08 -0.05,-0.71 -0.22,-1.59 -0.68,-2.31 -0.38,-0.6 -0.69,-0.53 -1.05,-0.76 -0.29,-0.18 -0.49,-0.46 -0.9,-0.5 -1,-0.1 -1.46,0.67 -1.43,1.35 0.03,0.72 0.62,1.97 0.23,2.43 -0.43,0.51 -0.88,0.49 -1.06,0.15 -0.25,-0.49 -0.3,-1.49 -0.62,-1.67 -0.18,-0.1 -0.58,0.18 -0.81,0.62 -0.23,0.44 0.25,1.5 -0.29,1.71 -0.25,0.1 -0.56,-0.42 -0.78,-0.36 -0.62,0.15 0.1,1.81 -0.27,2.28 -0.65,0.83 -0.55,1.36 -0.16,2.15 0.29,0.57 0.95,1.38 1.31,2.04 0.41,0.76 1.16,1.22 1.1,1.59 -0.07,0.399999 -0.25,0.16 -0.49,0.48 -0.34,0.46 0.74,2.98 2.17,3.8 0.27,0.16 1.01,0.21 1.23,-0.2 0.39,-0.76 -1.18,-1.2 -1.49,-2.02 -0.21,-0.55 1.01,-2.06 1.62,-3.21 0.3,-0.53 0.6,-1.32 1.16,-1.98 z m -3.03,2.06 c -0.24,0.11 -0.54,-0.47 -0.97,-0.88 -0.62,-0.59 -1.42,-1.34 -1.36,-1.47 0.1,-0.22 -0.01,-1.15 0.23,-1.11 0.41,0.07 0.82,1.15 1.07,1.49 0.41,0.72 0.62,0.26 0.83,1.11 0.11,0.47 0.52,0.72 0.2,0.86 z m 0.43,-2.78 c -0.28,0.08 -0.38,0.23 -0.64,-0.11 -0.57,-0.75 -0.66,-1.73 -0.39,-2.1 0.57,-0.79 0.55,0.53 0.6,0.7 0.11,0.37 0.71,1.43 0.43,1.51 z m 0.86,-5.47 c 0.2,-0.69 -0.02,-0.85 0.17,-1.15 0.24,-0.39 0.79,-0.29 1.2,0.06 0.39,0.33 0.66,0.91 0.39,1.24 -0.3,0.37 -0.76,-0.07 -0.96,0.13 -0.24,0.24 -0.15,0.84 0.25,0.8 0.34,-0.03 0.57,0.35 0.66,0.74 0.04,0.16 -0.12,0.53 -0.06,0.68 0.09,0.21 0.51,0.27 0.61,0.48 0.1,0.2 -0.22,0.81 -0.58,0.78 -0.56,-0.05 -0.46,-1.14 -0.69,-1.37 -1.21,-1.23 -1.08,-2.09 -0.99,-2.39 z m 0.27,4.91 c 0,0 -0.17,-0.17 -0.18,-0.18 -0.4,-0.14 -0.34,-1.27 -0.3,-1.31 0.57,-0.49 1.45,1.64 0.48,1.49 z M 98.49,2.8855055 117.19,16.905506 v -5.91 L 98.49,-3.0244945 Z M 94.72,-41.604494 c -32.19,0.06 -58.23,26.1 -58.29,58.29 0.06,32.19 26.1,58.23 58.29,58.29 32.19,-0.06 58.23,-26.09 58.29,-58.29 -0.06,-32.19 -26.1,-58.23 -58.29,-58.29 z m 36.81,54.27 c 0.92,0.69 1.45,1.76 1.45,2.91 0,2.99 -3.42,4.7 -5.81,2.91 l -2.44,-1.83 v 5.91 l 6.79,5.1 c 0.92,0.69 1.45,1.76 1.45,2.91 0,2.99 -3.42,4.7 -5.81,2.91 l -2.44,-1.83 v 5.91 l 6.79,5.1 c 0.92,0.69 1.45,1.76 1.45,2.91 0,2.99 -3.42,4.7 -5.81,2.91 l -28.68,-21.51 v 5.9 l 29.39,22.05 c 0.91,0.69 1.45,1.76 1.45,2.91 0,2.99 -3.42,4.7 -5.81,2.91 l -25.03,-18.78 v 20.04 c 0,2.08 -1.69,3.77 -3.77,3.77 -2.08,0 -3.77,-1.69 -3.77,-3.77 v -20.04 l -25.03,18.78 c -2.39,1.8 -5.81,0.09 -5.81,-2.91 0,-1.14 0.54,-2.22 1.45,-2.91 l 29.39,-22.05 v -5.9 l -28.67,21.51 c -2.4,1.8 -5.82,0.09 -5.82,-2.91 0,-1.14 0.54,-2.22 1.46,-2.91 l 6.8,-5.1 v -5.91 l -2.44,1.83 c -2.39,1.8 -5.81,0.09 -5.81,-2.91 0,-1.14 0.54,-2.22 1.45,-2.91 l 6.8,-5.1 v -5.9 l -2.44,1.83 c -2.4,1.8 -5.81,0.09 -5.81,-2.91 0,-1.14 0.54,-2.22 1.45,-2.91 l 33.04,-24.77 v -5.9 L 62.28,3.5055055 c -2.39,1.8 -5.81,0.09 -5.81,-2.91 0,-1.14 0.54,-2.22 1.45,-2.91 l 6.8,-5.1 v -8.4699995 c 0,-2.08 1.69,-3.77 3.77,-3.77 2.08,0 3.77,1.69 3.77,3.77 v 2.81 l 18.7,-14.02 v -7.11 c 0,-2.08 1.69,-3.77 3.77,-3.77 2.08,0 3.77,1.69 3.77,3.77 v 7.11 l 18.7,14.02 v -2.81 c 0,-2.08 1.69,-3.77 3.77,-3.77 2.08,0 3.77,1.69 3.77,3.77 v 8.4599995 l 6.79,5.1 c 0.92,0.69 1.45,1.76 1.45,2.91 0,2.99 -3.42,4.7 -5.81,2.91 L 98.49,-18.004494 v 5.9 z m -36.81,-60.1 c -35.41,0.07 -64.05,28.71 -64.12,64.12 0.06,35.42 28.71,64.05 64.12,64.12 35.41,-0.07 64.05,-28.7 64.12,-64.12 -0.07,-35.41 -28.71,-64.05 -64.12,-64.12 z m 0,126.05 c -34.2,-0.06 -61.87,-27.72 -61.93,-61.93 0.06,-34.2 27.73,-61.87 61.93,-61.93 34.2,0.06 61.87,27.73 61.93,61.93 -0.06,34.21 -27.73,61.87 -61.93,61.93 z m 80.1,-59.61 c -0.66,-0.06 -1.32,0.03 -1.99,0.26 -0.35,0.14 -0.79,0.5 -1.32,1.07 -0.13,0.16 -0.3,0.41 -0.49,0.769999 -0.22,0.410001 -0.36,0.68 -0.41,0.81 l -0.42,0.9 -0.43,0.97 -0.2,0.420001 c -0.15,0.29 -0.29,0.519999 -0.42,0.68 -0.26,0.41 -0.67,0.589999 -1.21,0.54 -0.5,-0.04 -0.88,-0.31 -1.12,-0.78 -0.25,-0.48 -0.34,-1.07 -0.27,-1.77 0.07,-0.85 0.33,-1.69 0.76,-2.53 0.45,-0.83 0.94,-1.48 1.49,-1.96 l -2.98,-0.26 c -1.11,1.2 -1.74,2.74 -1.91,4.63 -0.13,1.43 0.15,2.65 0.84,3.66 0.69,1.01 1.7,1.57 3.04,1.69 1.29,0.11 2.29,-0.22 3.01,-1 0.68,-0.72 1.24,-1.59 1.69,-2.59 0.15,-0.34 0.34,-0.78 0.56,-1.32 0.16,-0.41 0.32,-0.73 0.51,-0.98 0.28,-0.42 0.61,-0.61 1.01,-0.58 0.92,0.08 1.31,0.83 1.19,2.25 -0.13,1.43 -0.68,2.75 -1.67,3.95 l 2.78,0.24 c 0.88,-1.2 1.38,-2.53 1.51,-4 0.13,-1.45 -0.13,-2.64 -0.77,-3.55 -0.61,-0.9 -1.54,-1.41 -2.78,-1.52 z m -19.4,-36.71 12.02,-7.12 -1.31,-2.21 -12.02,7.12 z m 2.8,-20.26 -1.37,-1.73 -10.94,8.69 1.57,1.98 7.03,-5.59 -3.05,10.59 1.33,1.67 10.93,-8.68 -1.56,-1.97 -7,5.56 z m -63.5,-40.07 c -52.31,0.09 -94.63,42.41 -94.72,94.72 0.09,52.32 42.41,94.620004 94.72,94.720004 52.31,-0.1 94.62,-42.400004 94.72,-94.720004 -0.1,-52.31 -42.41,-94.63 -94.72,-94.72 z m 0,185.800004 c -50.29,-0.1 -90.99,-40.770004 -91.08,-91.080004 0.09,-50.3 40.79,-90.99 91.08,-91.08 50.3,0.09 90.98,40.78 91.08,91.08 -0.1,50.31 -40.78,90.980004 -91.08,91.080004 z m 68.86,-103.2800045 2.5,-0.63 -1.67,-6.64 3.48,-0.88 1.31,5.19 2.46,-0.62 -1.31,-5.19 2.61,-0.66 1.63,6.44 2.5,-0.63 -2.26,-8.95 -13.54,3.42 z m 0.47,4.15 5.63,-0.44 0.17,2.1700005 -5.35,4.09 0.23,2.99 5.65,-4.33 c 0.34,0.79 0.87,1.39 1.59,1.8 0.72,0.41 1.54,0.57 2.47,0.5 1.22,-0.09 2.18,-0.56 2.87,-1.39 0.71,-0.82 1.01,-1.9 0.91,-3.24 l -0.45,-5.8000005 -13.93,1.08 z m 11.42,-0.89 0.24,3.0800005 c 0.05,0.58 -0.07,1.05 -0.34,1.399999 -0.27,0.350001 -0.67,0.550001 -1.21,0.59 -0.54,0.04 -0.97,-0.09 -1.29,-0.4 -0.32,-0.31 -0.5,-0.75 -0.55,-1.339999 l -0.24,-3.0800005 z m -16.33,-17.63 14.99,-0.7399995 -1.11,-2.57 -10.69,0.62 7.77,-7.36 -1.14,-2.62 -10.79,10.43 z M 90.2,89.855506 c -0.91,-0.41 -2.42,0.46 -2.81,-0.07 -0.16,-0.22 0.22,-0.65 0.28,-0.96 0.1,-0.5 -0.19,-0.95 -0.59,-1.05 -0.26,-0.07 -0.25,-0.4 0.05,-0.43 0.44,-0.04 0.65,0.01 1.1,0.06 0.84,0.08 1.33,0.04 1.85,-0.71 0.16,-0.23 0.09,-0.73 -0.26,-0.98 -0.44,-0.33 -1.83,-0.38 -3.28,-0.35 -1.57,0.03 -3.23,-0.02 -3.56,0.54 -0.16,0.28 -0.49,0.59 -0.67,0.95 -0.26,0.51 -0.41,0.98 -0.71,1.19 -0.93,0.64 -1.2,1.97 -1.38,1.52 -0.12,-0.31 -0.58,-0.29 -0.85,-0.35 -0.13,-0.03 -0.11,-0.38 0.04,-0.51 0.14,-0.13 0.17,-0.01 0.37,-0.09 0.57,-0.23 1.27,-0.84 1.39,-1.27 0.29,-1.08 0.73,-1.9 0.25,-2.53 -0.41,-0.54 -1.13,-0.78 -1.87,-0.83 -0.39,-0.03 -1.02,0.03 -1.43,0.2 -0.7,0.29 -0.94,1.16 -1.36,2.2 -0.17,0.43 -0.57,0.96 -0.76,1.63 -0.23,0.85 -0.53,2.03 -0.67,2.64 -0.31,1.37 -0.37,2.34 -0.05,3.31 0.17,0.51 0,1.22 0.72,1.27 0.6,0.03 0.32,-2.18 0.51,-3.19 0.08,-0.41 0.18,-0.81 0.5,-0.98 0.1,-0.05 0.2,-0.25 0.38,-0.16 0.18,0.09 -0.13,0.69 0.17,0.69 0.52,0.01 0.8,-0.63 1.21,-0.39 0.32,0.19 -0.16,0.74 -0.57,1.1 -0.82,0.69 -1.2,1.98 -0.08,2.29 0.48,0.13 1.04,-0.52 1.28,-1.18 0.19,-0.51 0.14,-0.85 0.32,-1.25 0.15,-0.32 0.43,-0.38 0.65,-0.77 0.21,-0.37 0.37,-0.79 0.68,-1.23 0.36,-0.5 0.88,-1.01 1.21,-1.41 0.38,-0.45 0.71,-0.89 1.13,-1.15 0.42,-0.26 1.03,-0.42 1.4,-0.17 0.26,0.18 -0.83,0.81 -1.5,1.43 -0.93,0.86 -1.46,1.95 -1.68,3.36 -0.08,0.57 -0.39,2.14 -0.02,2.48 0.27,0.25 0.51,0.34 0.87,0.31 0.88,-0.09 0.57,-1.74 1.08,-2.44 0.11,-0.15 0.21,-0.43 0.47,-0.29 0.26,0.14 -0.45,3.44 -0.89,5.38 -0.31,1.33 -0.36,2.430004 -0.45,3.480004 -0.04,0.44 -0.06,0.86 0.59,0.98 0.91,0.18 1.26,-1.77 1.47,-2.980004 0.18,-1 0.52,-2.49 0.95,-3 0.48,-0.56 1.61,-0.93 2.31,-1.08 0.71,-0.15 1.31,-1 1.71,-1.33 0.55,-0.44 1.04,-1.96 1.15,-2.5 0.18,-0.74 -0.05,-1.11 -0.65,-1.38 z m -11.41,-0.84 c -0.93,0.27 -1.17,0.97 -1.32,1.36 -0.07,0.18 -0.3,0.12 -0.33,-0.06 -0.07,-0.43 -0.06,-1.18 0.3,-1.74 0.48,-0.75 0.67,-1.36 1.05,-1.84 0.48,-0.61 1.11,-0.86 1.25,-0.7 0.27,0.31 -0.38,0.67 -0.4,0.98 -0.07,0.87 -0.22,0.87 -0.47,1.28 -0.17,0.29 0.4,0.58 -0.08,0.72 z m 5.97,0.75 c -0.37,0.57 -0.84,0.81 -1.09,0.54 -0.19,-0.2 0.76,-1.06 1.18,-1.6 0.53,-0.68 0.64,-0.57 0.82,-0.42 0.2,0.17 -0.41,0.7 -0.91,1.48 z m 3.2,3.54 c -0.53,0.34 -0.83,0.49 -1.17,0.44 -0.18,-0.03 -0.54,-0.45 -0.44,-0.65 0.25,-0.51 0.09,-0.71 0.21,-0.99 0.2,-0.46 0.88,-0.29 1.3,-0.29 0.57,0 0.92,-0.21 0.97,0.2 0,-0.01 -0.17,0.84 -0.87,1.29 z m -41.3,-26.45 c -0.61,0.15 -0.04,0.78 0.09,0.91 0.13,0.12 0.28,0.09 0.4,0.18 0.47,0.34 0.78,0.93 1.09,0.97 1.21,0.17 1.51,-0.73 0.72,-1.51 -0.47,-0.47 -1.36,-0.78 -2.3,-0.55 z m 51.83,-48.99 18.7,14.02 v -5.9 l -18.7,-14.02 z m -33,61.51 c -0.2,-0.37 0.5,-1.25 -0.54,-1.25 -0.14,0 -0.74,-0.08 -0.92,0.02 -0.18,0.1 -0.49,0.79 -0.56,0.76 -0.5,-0.19 -1.3,-0.57 -2.45,-0.86 -1.09,-0.27 -1.7,-1.06 -2.57,-0.79 -0.37,0.11 -0.66,0.14 -0.99,0.36 -0.56,0.39 -0.43,1.24 0.21,1.63 0.28,0.17 2.17,-0.12 2.9,0.04 0.86,0.19 1.73,0.43 1.81,0.79 0.04,0.18 -0.17,0.48 -0.52,0.72 -1.26,0.9 -1.91,0.46 -2.6,0.47 -0.15,0 -0.1,-0.29 0.14,-0.42 0.33,-0.18 0.95,-0.24 0.97,-0.36 0.03,-0.15 -0.97,-0.5 -1.89,-0.56 -0.36,-0.02 -0.64,0.05 -0.94,0.11 -0.9,0.18 -2.21,1.64 -2.73,3.21 -0.43,1.3 -1.02,2.29 -0.35,2.86 0.8,0.68 1.25,-0.2 1.82,-1.65 0.32,-0.83 1.09,-1.28 1.51,-1.51 0.17,-0.09 0.77,-0.93 1.85,-0.21 0.05,0.03 -0.03,0.32 -0.36,0.31 -0.42,-0.01 -0.97,0.23 -1.08,0.47 -0.13,0.3 0.03,0.69 -0.02,1.1 -0.05,0.41 -0.85,0.32 -0.3,1.14 0.04,0.06 -0.48,0.26 -0.67,0.14 -0.09,-0.06 -0.04,-0.24 -0.14,-0.28 -0.3,-0.12 -0.79,0.58 -0.87,0.65 -0.44,0.4 -1.1,0.55 -1.8,0.73 -1.19,0.31 -2.79,0.87 -3.7,1.26 -1.07,0.47 -0.9,1.27 0.26,1.81 0.52,0.24 1.97,-0.38 2.68,-0.65 0.51,-0.19 1.58,-0.56 2.04,-0.43 0.5,0.13 -1.61,2.59 -1.57,2.97 0.07,0.66 1.02,1.39 1.46,0.59 0.2,-0.37 0.38,-0.86 0.66,-1.42 0.22,-0.44 0.6,-0.89 0.82,-1.27 0.32,-0.55 0.62,-1.09 0.78,-1.03 0.35,0.12 0.28,0.7 0.6,1.51 0.73,1.89 2.77,3.95 4.5,4.8 1.04,0.51 1.85,0.05 1.41,-1.31 -0.1,-0.31 -0.18,-0.52 -0.24,-0.67 -0.21,-0.51 -0.21,0.04 -1.2,-0.69 -0.28,-0.21 -1.42,-1.41 -2.04,-1.94 -0.3,-0.26 -0.75,-0.93 -1.04,-1.57 -0.18,-0.42 -0.69,-0.63 0.18,-1.05 0.53,-0.25 0.16,-0.87 0.61,-0.95 0.38,-0.07 1.1,-0.04 1.59,-0.15 0.59,-0.13 1.34,-0.56 2.26,-0.89 0.86,-0.31 2.08,-1.98 1.6,-2.66 -0.33,-0.47 -0.99,-0.68 -1.82,-1.19 -0.42,-0.26 -1.34,0.26 -0.88,-0.39 0.31,-0.45 0.36,-0.66 0.85,-0.68 0.76,-0.03 2.99,1.19 3.28,-0.09 0.27,-1.07 -1.56,-0.75 -2,-1.53 z m -1.8,4.66 c -0.1,0.78 -1.23,1.32 -2.03,1.51 -0.3,0.07 -0.65,0.33 -0.83,0.38 -0.48,0.11 -0.43,-0.12 0.03,-0.59 0.26,-0.26 0.82,-0.84 0.46,-1.26 -0.35,-0.4 0.25,-1.42 0.58,-1.12 0.62,0.55 1.81,0.88 1.79,1.08 z m -18.36,-20.16 c 0,0 -0.52,-0.41 -0.78,-0.45 -0.3,-0.08 -0.34,0.11 -0.61,0.14 -0.28,-0.03 -0.47,0.19 -0.57,0.41 -0.25,0.59 0.37,1.31 1.39,1.79 1.24,0.59 1.55,-1.21 0.57,-1.89 z m 2.81,5.55 c -0.88,-0.46 -1.53,-0.81 -1.72,-1.35 -0.01,-0.04 -0.18,-0.6 -0.38,-0.68 -0.19,-0.08 -0.25,0.24 -0.58,-0.02 -0.33,-0.26 -1.45,-1.42 -2.41,-1.78 -0.4,-0.15 -0.89,-0.98 -1.39,-1.04 -0.48,-0.06 -1.73,0.35 -1.25,1.39 0.21,0.46 1.52,0.33 2.51,1.12 0.48,0.38 1,0.14 1.16,0.82 0.07,0.27 -0.07,0.24 -0.22,0.25 -0.08,0.01 -1.85,-0.82 -3.45,-1.14 -1.12,-0.23 -2.11,-0.41 -2.49,0.62 -0.08,0.22 0.14,1.06 -0.51,0.85 -0.62,-0.2 -1.63,-0.32 -2.01,-0.01 -0.14,0.12 -0.6,0.6 -0.71,0.74 -0.48,0.66 0.39,1.23 0.14,1.44 -0.11,0.09 -0.74,-0.34 -1.32,-0.45 -0.39,-0.07 -0.81,0.34 -0.97,0.55 -0.24,0.33 0.01,0.4 0.61,0.96 0.95,0.89 1.37,1.04 2.84,1.73 0.3,0.14 0.87,0.5 1.07,0.82 0.22,0.35 -0.25,0.65 -0.69,0.43 -0.9,-0.45 -4.72,-2.3 -4.21,-0.15 0.12,0.52 0.89,1.2 1.17,1.34 0.31,0.15 1.25,0.26 1.32,0.74 0.07,0.54 -1.39,1.01 -1.12,1.89 0.18,0.58 0.5,1.01 0.88,0.82 0.6,-0.31 1.68,-1.64 2.01,-1.62 0.96,0.07 2.38,2.32 3.36,1.76 1.15,-0.65 1,-1.52 0.64,-1.75 -0.64,-0.43 -1.75,-0.97 -2.24,-1.47 -0.19,-0.2 0.18,-0.48 0.49,-0.66 0.75,-0.44 1.87,1.31 2.99,2.25 0.83,0.7 0.65,0.78 1.15,1.27 0.7,0.7 1.83,0.49 2.18,-0.73 0.13,-0.46 -2.08,-2.13 -2.93,-2.7 -1.07,-0.71 -1.69,-0.89 -1.71,-1.44 -0.02,-0.61 0.73,-0.18 0.74,-0.17 0.95,0.86 5.34,1.3 5.12,-1.5 -0.08,-0.95 0.72,-1.05 -0.19,-1.73 -0.08,-0.06 -1.09,-0.600001 -1.15,-0.88 -0.06,-0.27 0.37,-0.73 0.83,-0.410001 0.64,0.44 1.57,1.32 1.71,1.38 1.33,0.64 2.29,-0.68 0.73,-1.489999 z m -5.32,-0.63 c 0.18,0.3 -0.14,0.52 -0.81,0.45 -0.99,-0.1 -2.42,-0.25 -2.28,-0.84 0.14,-0.6 2.83,-0.06 3.09,0.39 z m -6.83,1.23 c -0.11,-0.75 1.39,-0.59 1.63,-0.36 0.43,0.42 -1.52,1.17 -1.63,0.36 z m 4.3,1.41 c -0.73,0.55 -1.01,1.27 -1.28,1.24 -0.41,-0.04 -0.74,-0.38 -1.11,-0.54 -0.66,-0.28 -1.26,-0.43 -1.33,-0.59 -0.14,-0.34 0.31,-0.07 0.64,-0.31 1.14,-0.86 1.64,-1.39 2.13,-1.29 0.51,0.1 0.73,0.32 1.03,0.36 0.6,0.09 0.99,-0.03 0.96,0.09 -0.01,0.1 -0.46,0.61 -1.04,1.04 z m 3.69,1.55 c 0.21,0.14 -0.07,0.33 -0.46,0.44 -0.29,0.08 -2.13,0.26 -2.19,-0.24 -0.04,-0.36 0.75,-1.33 1.64,-1.65 0.27,-0.19 0.44,-0.71 0.7,-0.82 0.42,-0.19 1.11,0.42 1.02,0.54 -0.08,0.13 -0.71,0.3 -0.84,0.7 -0.12,0.41 -0.22,0.78 0.13,1.03 z m -13.92,-29.48 -2.3,1.16 3.08,6.11 -3.21,1.62 -2.41,-4.78 -2.26,1.14 2.41,4.78 -2.41,1.21 -2.99,-5.94 -2.3,1.16 4.15,8.25 12.48,-6.28 z m -1.08,-2.98 -3.45,-0.26 -1.53,-5.09 2.74,-2.12 -0.79,-2.63 -11.91,9.2 0.71,2.37 15.01,1.12 z m -11.13,-0.72 4.12,-3.15 1.06,3.53 z m 54.41,-7.92 18.7,-14.02 v -5.91 l -18.7,14.03 z m 43,61.65 c -0.61,0.02 -0.68,0.77 -0.74,1.37 l -0.06,0.46 c -0.18,0.9 -1.74,1.83 -3.12,2.25 l -0.37,0.12 c -0.66,0.22 -1.19,0.39 -1.94,0.02 -0.33,-0.16 -0.6,-0.83 -0.6,-1.5 0,-0.53 0.17,-0.91 0.47,-1.06 0.13,-0.06 0.16,-0.02 0.22,0.06 0.13,0.18 0.3,0.29 1,-0.15 0.06,-0.04 0.09,-0.2 0.14,-0.5 0.04,-0.25 0.09,-0.53 0.17,-0.7 l 0.27,-0.5 0.18,-0.35 c 0.13,-0.57 -0.03,-1.12 -0.44,-1.51 -0.45,-0.43 -1.13,-0.58 -1.82,-0.39 -1.01,0.28 -1.97,1 -2.82,1.63 -0.87,0.65 -1.61,1.21 -2.24,1.21 -0.23,0 -0.39,-0.11 -0.53,-0.21 -0.14,-0.1 -0.26,-0.19 -0.41,-0.14 -0.21,0.06 -0.42,0.38 -0.71,1.08 -0.06,0.14 -0.08,0.41 -0.11,0.71 -0.04,0.49 -0.09,1.11 -0.33,1.28 -0.07,0.05 -0.14,0.06 -0.23,0.03 -0.09,-0.02 -0.16,-0.08 -0.2,-0.17 -0.17,-0.38 0.24,-1.19 0.24,-1.2 0,-0.01 0.12,-0.71 0.12,-0.71 0.02,-0.22 0.04,-0.42 0.1,-0.589999 0.37,-0.970001 1.26,-1.17 2.19,-1.39 0.48,-0.11 1.19,-0.71 1.31,-0.87 0.23,-0.32 -0.11,-0.68 -0.38,-0.96 l -0.05,-0.05 c -0.45,-0.47 -0.9,-0.59 -1.36,-0.35 -0.39,0.2 -0.87,0.7 -1.42,1.279999 -0.42,0.44 -0.85,0.9 -1.3,1.28 l -0.16,0.13 c -0.93,0.76 -1.99,1.69 -1.94,2.16 0.01,0.09 0.06,0.160001 0.15,0.21 0.38,0.19 0.75,-0.21 1.08,-0.58 0.25,-0.27 0.49,-0.54 0.65,-0.42 0.06,0.04 0.09,0.08 0.09,0.14 0.02,0.11 -0.05,0.25 -0.2,0.45 l -0.07,0.09 c -0.18,0.23 -0.35,0.45 -0.43,1.1 -0.12,0.91 0.06,1.12 0.37,1.46 l 0.31,0.38 c 0.14,0.19 0.15,0.5 0.15,0.7 l 0.03,0.23 c 0.21,0.24 0.38,0.23 0.5,0.21 0.1,-0.01 0.15,-0.02 0.22,0.09 0.15,0.25 0.07,0.870005 -0.06,0.940005 -0.01,0 -0.03,0.02 -0.08,-0.05 -0.11,-0.18 -0.44,-0.12 -0.56,-0.1 -0.34,0.05 -0.44,0.33 -0.54,0.57 l -0.07,0.18 c -0.42,0.88 0.04,1.33 0.54,1.65 0.3,0.19 0.56,0.36 1.11,0.08 0.47,-0.24 0.55,-1.02 0.63,-1.85 l 0.03,-0.27 c 0.08,-0.770005 0.21,-1.430005 0.36,-1.810005 0.18,-0.46 0.14,-0.81 0.11,-1.1 l -0.01,-0.41 c 0.1,-0.51 0.39,-0.7 0.75,-0.95 0.19,-0.13 0.4,-0.28 0.61,-0.49 l 0.49,-0.5 c 0.59,-0.62 1.06,-1.11 1.88,-1.55 0.27,-0.15 0.55,-0.38 0.82,-0.6 0.37,-0.31 0.75,-0.62 1.13,-0.75 l 0.08,-0.03 c 0.34,-0.11 0.97,-0.32 1.19,-0.1 0.07,0.07 0.27,0.62 0.15,0.88 -0.04,0.09 -0.11,0.14 -0.23,0.13 -0.19,-0.01 -0.21,-0.12 -0.24,-0.29 -0.01,-0.12 -0.03,-0.24 -0.13,-0.3 -0.19,-0.11 -0.79,-0.02 -0.8,-0.01 -0.23,0.04 -0.4,0.3 -0.61,0.61 -0.15,0.22 -0.31,0.47 -0.52,0.66 -0.77,0.71 -0.94,1.99 -0.7,2.9 0.27,1.04 0.82,1.43 1.15,1.67 l 0.2,0.15 c 0.78,0.83 1.86,1.470005 4.47,0.58 1.72,-0.58 3.05,-1.57 3.65,-2.72 0.28,-0.53 0.24,-1.89 -0.18,-2.56 -0.14,-0.26 -0.35,-0.39 -0.6,-0.389999 z m -43,-76.63 18.7,-14.0200005 v -5.91 L 72.26,10.995506 Z m 63.91,68.64 c -0.8,0.46 -1.79,0.57 -2.39,0.69 -1.82,0.38 -3.25,-0.28 -3.71,-0.17 -0.46,0.1 -0.26,1.24 0.09,1.79 1,1.57 4.11,1.09 5.95,0.57 0.71,-0.2 1.48,-0.9 2.1,-1.27 0.66,-0.4 1.31,-0.51 1.27,-0.96 -0.03,-0.45 0.19,-0.54 -0.07,-0.89 -0.58,-0.82 -1.85,-0.56 -3.24,0.24 z m -33.21,1.63 c 0.21,-0.48 0.53,-0.77 0.81,-1.04 0.17,-0.160001 0.32,-0.3 0.41,-0.45 0.16,-0.27 0.16,-0.56 -0.02,-0.8 -0.2,-0.26 -0.54,-0.38 -0.85,-0.3 -0.56,0.149999 -1.38,1.17 -1.76,1.779999 -0.23,0.37 -0.38,0.75 -0.54,1.13 -0.17,0.410001 -0.32,0.8 -0.56,1.15 -0.26,0.37 -0.08,0.9 0.21,1.26 0.26,0.33 0.74,0.65 1.2,0.47 0.1,-0.04 0.15,-0.15 0.2,-0.279999 0.1,-0.220001 0.21,-0.5 0.65,-0.57 0.21,-0.03 0.35,0.11 0.53,0.269999 0.21,0.19 0.44,0.410001 0.83,0.32 0.39,-0.1 0.67,-0.6 0.92,-1.04 l 0.19,-0.32 c 0.33,-0.52 1.91,-2.39 2.52,-2.62 0.29,-0.11 0.47,-0.13 0.57,-0.07 0.11,0.07 0.14,0.24 0.17,0.49 l 0.03,0.21 c 0.04,0.21 0.19,0.31 0.33,0.4 0.12,0.08 0.23,0.14 0.23,0.27 0,0.3 -0.24,0.47 -0.49,0.66 -0.25,0.18 -0.5,0.37 -0.53,0.69 -0.03,0.39 0.08,0.73 0.29,0.91 0.17,0.13 0.38,0.17 0.64,0.09 0.35,-0.1 0.51,-0.48 0.68,-0.89 0.11,-0.25 0.21,-0.51 0.37,-0.73 0.24,-0.32 0.48,-0.39 0.74,-0.46 0.22,-0.06 0.45,-0.13 0.66,-0.37 0.19,-0.22 0.27,-0.47 0.22,-0.72 -0.06,-0.3 -0.3,-0.56 -0.68,-0.74 -0.52,-0.25 -0.77,0.08 -0.94,0.3 -0.06,0.08 -0.11,0.15 -0.15,0.15 l -0.04,-0.02 c -0.3,-0.3 -0.14,-0.64 0.03,-1 0.08,-0.17 0.16,-0.35 0.2,-0.53 0.04,-0.24 0,-0.43 -0.13,-0.54 -0.19,-0.16 -0.56,-0.15 -1.08,0.05 -0.22,0.08 -0.4,0.28 -0.59,0.49 -0.18,0.2 -0.37,0.41 -0.62,0.54 -0.66,0.33 -1.1,0.72 -1.46,1.03 -0.26,0.23 -0.46,0.41 -0.66,0.48 -0.14,0.05 -0.4,0.07 -0.68,0.1 -0.49,0.04 -1.04,0.09 -1.24,0.3 l -0.31,0.46 c -0.13,0.23 -0.27,0.46 -0.39,0.49 l -0.08,-0.02 c -0.2,-0.14 -0.04,-0.5 0.12,-0.84 z m 29.45,-4.86 c 0.45,-0.78 0.54,-1.69 -0.32,-1.83 -0.32,-0.05 -0.45,-0.11 -0.99,0.19 -0.92,0.51 -0.56,0.94 -1.17,1.3 -0.27,0.16 -0.53,-1.01 -0.06,-1.41 0.98,-0.83 1.95,-2.08 1.62,-3.16 -0.27,-0.89 -0.75,-1.620001 -1.93,-0.58 -0.61,0.55 -1.39,1.35 -1.84,2.64 -0.58,1.66 -0.92,3.509999 -1.73,4.62 -0.52,0.72 -0.6,0.29 -1.22,0.81 -1.72,1.48 -2.66,2.839999 -1.83,3.72 0.57,0.61 1.39,0.44 1.83,0.31 0.54,-0.16 0.86,-0.6 0.96,-0.3 0.09,0.3 -0.37,1.58 -0.6,2.62 -0.09,0.41 -0.51,1.36 -1.09,2.09 -0.98,1.22 -1.26,1.639999 -0.97,2.029999 0.35,0.470001 0.98,0.42 1.51,0.06 0.59,-0.399999 2.66,-3.48 3.32,-6.899999 0.12,-0.610001 0.54,-1.31 0.72,-1.81 0.24,-0.670001 0.09,-1.110001 0.47,-1.57 1.12,-1.37 2.74,-1.84 3.32,-2.83 z"
   id="path1"
   style="display:inline" />
</svg>
