<?xml version="1.0" encoding="UTF-8" standalone="no"?>
<!-- Created with Inkscape (http://www.inkscape.org/) -->

<svg
   version="1.1"
   id="svg1"
   width="1067.8217"
   height="218.00009"
   viewBox="0 0 1067.8217 218.00009"
   sodipodi:docname="logo-short.svg"
   xml:space="preserve"
   inkscape:version="1.4.2 (f4327f4, 2025-05-13)"
   xmlns:inkscape="http://www.inkscape.org/namespaces/inkscape"
   xmlns:sodipodi="http://sodipodi.sourceforge.net/DTD/sodipodi-0.dtd"
   xmlns="http://www.w3.org/2000/svg"
   xmlns:svg="http://www.w3.org/2000/svg"><sodipodi:namedview
     id="namedview1"
     pagecolor="#434343"
     bordercolor="#000000"
     borderopacity="0.25"
     inkscape:showpageshadow="2"
     inkscape:pageopacity="0.0"
     inkscape:pagecheckerboard="0"
     inkscape:deskcolor="#d1d1d1"
     inkscape:zoom="0.884507"
     inkscape:cx="762.57169"
     inkscape:cy="219.89651"
     inkscape:window-width="2560"
     inkscape:window-height="1351"
     inkscape:window-x="-9"
     inkscape:window-y="-9"
     inkscape:window-maximized="1"
     inkscape:current-layer="svg1" /><defs
     id="defs1"><clipPath
       clipPathUnits="userSpaceOnUse"
       id="clipPath30"><path
         d="M 0,8236.594 H 13299.736 V 0 H 0 Z"
         transform="translate(-7106.8562,-6252.4211)"
         id="path30" /></clipPath></defs><g
     id="g222"
     transform="translate(3.8458677e-4,1.0283787e-4)"><g
       id="g221"
       transform="matrix(0.99988152,0,0,0.99988152,-471.40064,-126.54081)"><path
         style="fill:#ffffff;fill-opacity:1;fill-rule:nonzero;stroke:none"
         d="m 46.334,128.72 c 1.239,3.099 1.504,5.474 2.568,7.524 1.335,2.589 3.491,3.963 4.117,3.457 1.212,-0.959 -0.904,-2.735 -0.785,-3.871 0.358,-3.262 -0.203,-3.376 -0.799,-5.051 -0.427,-1.188 1.863,-1.86 0.19,-2.703 -3.246,-1.646 -3.627,-4.418 -3.886,-5.96 -0.123,-0.73 -1.021,-0.664 -1.272,0 -0.581,1.516 -1.054,4.294 -0.133,6.604 m -0.555,-25.474 c 2.22,0.297 -0.383,8.231 -0.408,12.087 -0.009,1.572 0.075,3.091 1.157,3.968 0.344,0.274 0.545,1.063 1.282,0.851 0.744,-0.205 0.019,-2.631 1.107,-2.433 1.933,0.339 2.501,2.901 4.188,2.298 1.328,-0.476 -0.046,-2.843 -1.327,-4.444 -2.515,-3.125 -3.003,-8.152 1.349,-8.495 1.85,-0.148 3.478,2.654 3.896,5.245 0.323,2.026 -0.103,3.208 0.301,4.825 0.335,1.276 1.319,1.717 1.845,3.286 0.504,1.495 0.796,3.177 1.635,4.991 0.963,2.103 2.501,4.337 3.464,6.064 1.085,1.934 1.975,3.785 3.343,5.033 1.36,1.248 3.498,2.293 5.042,1.622 1.105,-0.482 -2.49,-3.592 -4.497,-6.321 -2.808,-3.818 -4.003,-8.229 -3.775,-13.573 0.087,-2.162 0.065,-8.161 1.692,-9.141 1.181,-0.725 2.122,-0.903 3.414,-0.517 3.171,0.95 0.841,6.814 2.228,9.738 0.299,0.633 0.477,1.742 1.519,1.407 1.039,-0.34 0.793,-12.985 0.535,-20.434 -0.181,-5.097 0.406,-9.202 0.816,-13.13 0.176,-1.647 0.407,-3.2 2.858,-3.204 3.474,-0.006 3.382,7.416 3.315,12.011 -0.054,3.813 0.13,9.538 1.362,11.722 1.358,2.416 5.277,4.558 7.722,5.621 2.515,1.08 4.105,4.594 5.363,6.098 1.705,2.029 2.431,7.951 2.466,10.035 0.053,2.864 -1.08,4.08 -3.448,4.642 -3.642,0.874 -8.574,-3.417 -10.39,-1.747 -0.752,0.696 0.355,2.563 0.359,3.749 0.005,1.913 -1.383,3.348 -2.927,3.447 -0.997,0.07 -1.207,1.305 -0.097,1.612 1.587,0.445 2.407,0.413 4.077,0.562 3.151,0.292 4.908,0.812 6.297,3.923 0.428,0.948 -0.204,2.753 -1.638,3.445 -1.838,0.886 -6.979,0.08 -12.33,-1.044 -5.773,-1.212 -11.892,-2.206 -12.714,-4.533 -0.405,-1.135 -1.399,-2.539 -1.801,-3.972 -0.594,-2.072 -0.814,-3.904 -1.759,-4.862 -2.97,-3.013 -3.029,-8.095 -4.003,-6.561 -0.666,1.051 -2.331,0.647 -3.386,0.686 -0.496,0.023 -0.677,1.335 -0.232,1.918 0.439,0.585 0.6,0.148 1.314,0.608 1.944,1.247 4.077,3.978 4.2,5.642 0.301,4.188 1.335,7.516 -0.882,9.486 -1.904,1.695 -4.711,2.054 -7.467,1.71 -1.443,-0.178 -3.733,-0.827 -5.102,-1.749 -2.358,-1.57 -2.64,-4.935 -3.459,-9.074 -0.335,-1.694 -1.425,-3.941 -1.632,-6.528 -0.261,-3.291 -0.502,-7.859 -0.566,-10.203 -0.153,-5.279 0.3,-8.863 2.156,-12.219 0.97,-1.754 0.852,-4.507 3.538,-4.148 m 30.625,32.394 c 0.869,-0.485 -1.003,-2.863 -2.284,-6.09 -0.937,-2.366 -2.51,-3.583 -3.626,-2.751 -0.826,0.608 2.037,4.426 3.194,6.735 1.448,2.879 1.934,2.531 2.716,2.106 m 5.947,-17.176 c 0.568,2.042 -0.191,2.671 0.068,3.8 0.418,1.844 3.02,1.702 4.579,1.999 2.095,0.395 3.25,1.435 3.7,-0.044 0,0 -0.02,-3.272 -2.266,-5.412 -1.699,-1.622 -2.704,-2.39 -3.996,-2.439 -0.678,-0.031 -2.31,1.287 -2.085,2.096"
         transform="matrix(1.3333333,0,0,-1.3333333,603.8518,334.7762)"
         id="path184" /><path
         style="fill:#ffffff;fill-opacity:1;fill-rule:nonzero;stroke:none"
         d="m -0.847,130.524 c 2.942,-0.719 7.377,0.305 7.637,-0.351 1.058,-2.673 -1.627,-6.404 -3.854,-8.414 -0.836,-0.747 -1.505,-2.215 -2.015,-2.665 -1.348,-1.213 -1.596,-0.358 -0.943,1.952 0.366,1.286 1.168,4.15 -0.719,4.853 -1.845,0.678 -1.7,5.016 -0.106,4.625 M -23.448,88.472 c 2.087,0.133 5.642,4.691 7.48,6.811 1.292,1.499 4.082,4.574 5.787,4.988 1.83,0.439 -0.617,-11.163 0.178,-12.313 1.389,-1.979 5.737,-2.682 5.74,0.688 0.003,1.522 -0.283,3.436 -0.387,5.731 -0.075,1.783 0.359,3.919 0.406,5.54 0.063,2.322 0.09,4.586 0.683,4.684 1.336,0.222 2.15,-1.761 4.571,-3.792 5.676,-4.782 15.851,-7.843 22.896,-7.509 4.218,0.2 6.029,3.112 2.241,6.686 -0.864,0.814 -1.486,1.361 -1.952,1.733 -1.575,1.266 -0.609,-0.502 -5.071,0.117 -1.269,0.178 -7.05,2.025 -9.974,2.634 -1.398,0.303 -4.05,1.647 -6.099,3.226 -1.306,1.019 -3.318,0.806 -1.249,3.701 1.249,1.744 -1.014,3.077 0.289,4.124 1.101,0.892 3.471,2.072 4.853,3.279 1.657,1.458 3.305,4.17 5.697,6.851 2.232,2.507 3.192,10.032 0.462,11.373 -1.874,0.917 -4.406,0.448 -7.969,0.626 -1.808,0.087 -3.844,-3.19 -3.514,-0.307 0.225,1.983 0.003,2.753 1.527,3.664 2.403,1.419 11.695,1.433 10.381,6.081 -1.054,3.742 -6.359,-0.535 -9.143,1.231 -1.302,0.814 -0.6,4.872 -3.934,3.078 -0.459,-0.246 -2.513,-1.038 -2.908,-1.68 -0.396,-0.646 -0.168,-3.395 -0.466,-3.435 -1.942,-0.251 -5.183,-0.449 -9.399,-1.536 -3.99,-1.039 -7.324,0.397 -9.657,-1.999 -0.981,-0.999 -1.885,-1.616 -2.533,-2.913 -1.116,-2.22 0.799,-4.723 3.556,-4.862 1.189,-0.06 6.747,4.2 9.407,4.973 3.079,0.894 6.312,1.668 7.195,0.638 0.43,-0.504 0.283,-1.839 -0.395,-3.24 -2.469,-5.094 -5.335,-4.856 -7.517,-6.076 -0.481,-0.27 -0.835,0.75 -0.283,1.62 0.738,1.146 2.637,2.429 2.493,2.862 -0.185,0.548 -3.979,-0.093 -7.062,-1.522 -1.184,-0.549 -1.985,-1.272 -2.845,-2.003 -2.559,-2.167 -4.218,-9.174 -3.118,-15.133 0.913,-4.933 0.756,-9.14 3.915,-9.79 3.765,-0.776 3.686,2.838 2.942,8.523 -0.423,3.247 1.258,6.047 2.185,7.527 0.367,0.594 0.833,4.328 5.584,3.944 0.2,-0.018 0.444,-1.071 -0.609,-1.607 -1.372,-0.702 -2.734,-2.441 -2.635,-3.412 0.122,-1.186 1.298,-2.172 1.867,-3.589 0.57,-1.422 -2.187,-2.519 1.054,-4.199 0.249,-0.13 -1.089,-1.678 -1.93,-1.623 -0.394,0.026 -0.54,0.687 -0.92,0.647 -1.179,-0.141 -1.53,-3.254 -1.657,-3.614 -0.709,-2.064 -2.584,-3.701 -4.505,-5.513 -3.263,-3.08 -7.439,-7.698 -9.652,-10.562 -2.627,-3.412 -0.666,-5.647 3.994,-5.351"
         transform="matrix(1.3333333,0,0,-1.3333333,603.8518,334.7762)"
         id="path183" /><path
         style="fill:#ffffff;fill-opacity:1;fill-rule:nonzero;stroke:none"
         d="m 176.473,109.524 c -2.443,0.34 -3.227,-2.618 -3.856,-4.998 l -0.533,-1.797 c -1.312,-3.479 -8.155,-6.155 -13.933,-6.91 l -1.566,-0.231 c -2.796,-0.439 -4.999,-0.783 -7.78,1.192 -1.21,0.862 -1.839,3.725 -1.397,6.377 0.352,2.101 1.297,3.524 2.587,3.907 0.56,0.167 0.662,-0.038 0.835,-0.369 0.41,-0.789 0.996,-1.338 4.079,-0.055 0.266,0.112 0.496,0.722 0.903,1.888 0.336,0.968 0.72,2.058 1.155,2.691 l 1.421,1.826 0.956,1.277 c 0.908,2.195 0.638,4.5 -0.73,6.329 -1.528,2.034 -4.144,3.071 -7.01,2.765 -4.238,-0.449 -8.548,-2.686 -12.36,-4.659 -3.879,-2.006 -7.232,-3.749 -9.761,-3.357 -0.899,0.142 -1.481,0.71 -1.993,1.211 -0.477,0.466 -0.931,0.921 -1.541,0.844 -0.863,-0.103 -1.929,-1.257 -3.561,-3.858 -0.324,-0.527 -0.584,-1.566 -0.889,-2.768 -0.495,-1.945 -1.104,-4.36 -2.176,-4.879 -0.293,-0.137 -0.6,-0.132 -0.952,0.019 -0.356,0.164 -0.583,0.423 -0.672,0.794 -0.415,1.619 1.74,4.6 1.764,4.626 0.016,0.027 0.932,2.75 0.932,2.75 0.223,0.852 0.436,1.653 0.809,2.281 2.14,3.64 5.793,3.861 9.657,4.096 2.003,0.121 5.234,2.029 5.805,2.609 1.136,1.141 0.015,2.774 -0.884,4.076 l -0.168,0.242 c -1.492,2.188 -3.194,2.938 -5.214,2.307 -1.679,-0.537 -3.924,-2.222 -6.517,-4.175 -1.97,-1.488 -4.004,-3.019 -6.053,-4.24 l -0.72,-0.417 c -4.209,-2.411 -9.054,-5.427 -9.166,-7.336 -0.021,-0.372 0.137,-0.686 0.467,-0.933 1.377,-1.014 3.131,0.361 4.679,1.584 1.185,0.934 2.305,1.812 2.862,1.248 0.196,-0.195 0.283,-0.382 0.283,-0.603 -0.003,-0.428 -0.356,-0.973 -1.087,-1.657 l -0.326,-0.315 c -0.881,-0.804 -1.7,-1.559 -2.472,-4.103 -1.085,-3.566 -0.483,-4.505 0.518,-6.065 l 1.008,-1.711 c 0.428,-0.86 0.261,-2.085 0.147,-2.894 l -0.017,-0.924 c 0.675,-1.117 1.344,-1.147 1.834,-1.17 0.394,-0.021 0.631,-0.031 0.82,-0.508 0.438,-1.106 -0.306,-3.501 -0.847,-3.72 -0.037,-0.009 -0.144,-0.052 -0.274,0.25 -0.32,0.774 -1.678,0.787 -2.186,0.789 -1.38,0.023 -1.993,-1.011 -2.531,-1.929 l -0.404,-0.657 c -2.264,-3.228 -0.734,-5.322 1.059,-6.944 1.071,-0.965 1.994,-1.798 4.365,-1.065 2.034,0.628 2.87,3.702 3.744,6.957 l 0.293,1.049 c 0.835,3.041 1.807,5.582 2.654,6.98 1.034,1.711 1.117,3.149 1.175,4.301 l 0.237,1.629 c 0.738,1.971 2.013,2.558 3.62,3.305 0.843,0.392 1.795,0.831 2.784,1.538 l 2.274,1.674 c 2.771,2.077 4.965,3.714 8.555,4.95 1.187,0.414 2.457,1.151 3.677,1.862 1.675,0.976 3.405,1.985 5.023,2.234 l 0.326,0.052 c 1.432,0.228 4.088,0.656 4.804,-0.368 0.227,-0.31 0.665,-2.656 0.04,-3.634 -0.224,-0.346 -0.552,-0.473 -1.002,-0.388 -0.76,0.147 -0.783,0.598 -0.752,1.325 0.023,0.487 0.046,0.99 -0.334,1.31 -0.671,0.571 -3.145,0.579 -3.17,0.579 -0.938,-0.004 -1.81,-0.936 -2.824,-2.021 -0.732,-0.774 -1.564,-1.663 -2.52,-2.286 -3.539,-2.317 -5.066,-7.346 -4.732,-11.129 0.382,-4.347 2.331,-6.267 3.493,-7.42 l 0.69,-0.75 c 2.572,-3.819 6.468,-7.096 17.485,-5.29 7.242,1.193 13.208,4.268 16.374,8.436 1.447,1.907 2.192,7.376 0.97,10.349 -0.5,1.203 -1.253,1.882 -2.253,2.025"
         transform="matrix(1.3333333,0,0,-1.3333333,603.8518,334.7762)"
         id="path182" /><path
         style="fill:#ffffff;fill-opacity:1;fill-rule:nonzero;stroke:none"
         d="m -66.835,148.828 c 0.708,-0.005 1.052,0.473 1.624,0.545 2.238,0.277 4.652,-0.577 5.657,0.128 3.869,2.717 2.359,6.051 -1.917,6.186 -2.603,0.086 -5.966,-1.387 -8.015,-4.524 -1.333,-2.035 1.942,-2.335 2.651,-2.335"
         transform="matrix(1.3333333,0,0,-1.3333333,603.8518,334.7762)"
         id="path181" /><path
         style="fill:#ffffff;fill-opacity:1;fill-rule:nonzero;stroke:none"
         d="m -77.74,149.235 c 5.059,1.616 1.195,7.547 -3.376,6.878 0,0 -2.559,-0.214 -3.391,-0.78 -1.064,-0.577 -0.669,-1.202 -1.374,-1.996 -0.895,-0.664 -0.858,-1.78 -0.531,-2.677 0.846,-2.338 4.499,-2.743 8.672,-1.425"
         transform="matrix(1.3333333,0,0,-1.3333333,603.8518,334.7762)"
         id="path180" /><path
         style="fill:#ffffff;fill-opacity:1;fill-rule:nonzero;stroke:none"
         d="m 311.121,102.957 c 1.155,0.13 3.871,-0.091 5.427,0.884 3.014,1.897 -0.313,5.955 -1.778,6.378 -1.263,0.358 -8.233,-1.863 -11.924,-2.064 -1.406,-0.083 -1.812,0.633 -1.844,1.429 -0.1,2.744 8.456,2.428 8.343,5.315 -0.164,4.267 -3.197,5.819 -7.551,5.114 0,0 -5.366,-1.122 -10.193,-1.595 -4.058,-0.393 -9.281,-3.694 -8.118,-6.483 1.25,-2.983 4.921,-2.747 7.689,-0.906 0.936,0.623 0.785,0.968 1.313,1.786 0.659,1.009 1.645,0.691 2.109,1.167 1.381,1.418 2.068,2.343 3.02,1.15 0.354,-0.444 -0.4,-2.97 -0.66,-3.638 -0.498,-1.239 -1.641,-3.123 -3.104,-3.751 -4.89,-2.077 -10.355,-3.458 -10.796,-6.774 -0.1,-0.757 1.784,-3.074 2.976,-3.458 1.349,-0.435 2.026,0.592 4.468,1.84 0.948,0.484 3.252,-0.144 4.113,0.232 1.545,0.677 3.528,2.581 3.978,1.84 0.909,-1.492 0.152,-5.531 -2.203,-8.518 -1.409,-1.789 -3.457,-3.368 -4.885,-3.152 -0.536,0.081 -3.836,-0.379 -4.06,-2.793 -0.253,-2.772 1.4,-4.01 2.567,-4.363 5.098,-1.592 7.956,2.877 11.581,6.863 1.908,2.095 3.26,4.906 3.523,6.345 0.431,2.361 1.023,2.074 0.984,3.074 -0.077,1.971 -1.101,2.796 -0.576,3.25 1.698,1.472 4.884,0.746 5.601,0.828"
         transform="matrix(1.3333333,0,0,-1.3333333,603.8518,334.7762)"
         id="path179" /><path
         style="fill:#ffffff;fill-opacity:1;fill-rule:nonzero;stroke:none"
         d="m 283.966,130.357 c -0.045,3.205 -0.128,7.298 0.375,7.476 0.869,0.308 3.044,3.008 3.571,2.259 0.88,-1.277 -0.938,-5.184 -1.184,-6.735 -0.865,-2.977 0.914,-2.335 -0.805,-5.088 -0.978,-1.573 -0.577,-3.307 -1.779,-2.824 -0.92,0.373 -0.147,2.683 -0.178,4.912 m -9.009,-22.998 c 3.05,0.924 0.122,6.291 1.504,9.237 0.927,1.969 8.15,2.671 12.815,4.031 2.138,0.612 5.045,1.878 8.284,2.102 5.37,0.382 10.244,1.84 13.536,2.215 1.79,0.194 3.718,-0.251 5.544,0.109 2.086,0.414 1.35,-2.117 2.261,-2.745 2.377,-1.629 5.723,-1.931 7.209,-0.305 1.047,0.928 1.852,3.215 0.901,6.013 -1.769,5.245 -12.361,0.05 -13.757,2.763 -0.306,0.603 2.943,3.904 2.324,3.217 1.786,1.975 3.74,4.769 4.485,7.921 0.61,2.585 -0.376,3.237 -0.708,4.765 -0.265,1.238 -0.067,2.511 -1.004,3.699 -2.338,2.935 -5.605,2.138 -7.332,0.309 -1.85,-1.968 -3.663,-6.8 -5.911,-6.968 -2.499,-0.179 -3.605,1.082 -3.157,2.452 0.64,1.951 3.204,4.699 2.841,6.003 -0.205,0.733 -1.991,1.084 -3.781,0.55 -1.79,-0.533 -3.347,-4.583 -5.309,-3.684 -0.901,0.412 -0.341,2.586 -1.071,3.041 -2.031,1.27 -4.595,-4.996 -6.802,-5.24 -3.9,-0.412 -5.073,-2.09 -6.145,-5.172 -0.778,-2.259 -1.204,-6.132 -2.038,-8.812 -0.963,-3.087 -0.239,-6.285 -1.382,-7.095 -1.255,-0.871 -1.077,0.26 -2.563,0.068 -2.14,-0.288 -6.035,-9.767 -4.497,-15.727 0.294,-1.131 2.087,-3.253 3.753,-2.747 m 16.382,26.187 c 0.511,3.467 2.906,6.295 4.598,6.538 3.611,0.539 0.01,-2.846 -0.309,-3.43 -0.71,-1.254 -1.997,-5.625 -2.915,-5.091 -0.937,0.541 -1.609,0.417 -1.374,1.983 m 8.526,1.626 c 2.793,-0.254 -0.597,-8.137 -2.74,-5.164 0,0 0.025,0.885 0,0.943 -0.672,1.446 2.518,4.232 2.74,4.221 m 5.942,-0.497 c 0.072,6.422 2.709,8.298 3.779,8.859 2.371,1.25 2.204,2.274 3.512,2.566 1.648,0.372 2.839,-1.368 2.965,-3.39 0.124,-1.899 -0.712,-4.121 -2.285,-4.258 -1.779,-0.167 -1.801,2.207 -2.861,2.239 -1.272,0.032 -2.639,-1.79 -1.49,-2.76 0.979,-0.821 0.563,-2.42 -0.258,-3.7 -0.339,-0.533 -1.732,-1.075 -1.966,-1.624 -0.34,-0.8 0.611,-2.064 0.331,-2.886 -0.272,-0.795 -2.748,-1.516 -3.595,-0.474 -1.334,1.612 1.856,4.204 1.868,5.428"
         transform="matrix(1.3333333,0,0,-1.3333333,603.8518,334.7762)"
         id="path178" /><path
         style="fill:#ffffff;fill-opacity:1;fill-rule:nonzero;stroke:none"
         d="m 248.076,106.512 c -3.512,-0.158 -6.989,1.218 -9.218,1.844 -6.763,1.895 -10.42,6.624 -12.143,7.068 -1.717,0.447 -3.051,-3.704 -2.842,-6.161 0.589,-7.011 11.862,-10.837 18.966,-12.296 2.74,-0.56 6.538,0.418 9.274,0.6 2.89,0.192 5.275,-0.567 5.943,0.987 0.669,1.556 1.576,1.493 1.332,3.112 -0.552,3.759 -5.263,5.113 -11.312,4.846"
         transform="matrix(1.3333333,0,0,-1.3333333,603.8518,334.7762)"
         id="path177" /><path
         style="fill:#ffffff;fill-opacity:1;fill-rule:nonzero;stroke:none"
         d="m 241.102,123.92 c 2.887,1.837 4.754,4.735 2.128,6.714 -0.968,0.729 -1.313,1.173 -3.652,1.098 -3.974,-0.113 -3.506,-2.158 -6.212,-2.325 -1.17,-0.071 0.006,4.309 2.269,4.815 4.741,1.068 10.161,3.565 10.95,7.774 0.647,3.451 0.302,6.766 -5.457,5.304 -3.009,-0.759 -7.031,-2.074 -10.79,-5.619 -4.839,-4.554 -9.207,-10.159 -13.869,-12.473 -3.012,-1.502 -2.52,0.085 -5.513,-0.608 -8.337,-1.949 -13.859,-4.881 -12.635,-9.29 0.853,-3.067 3.882,-3.91 5.583,-4.251 2.091,-0.409 3.956,0.514 3.735,-0.656 -0.221,-1.167 -4.023,-4.665 -6.585,-7.728 -1.021,-1.226 -4.075,-3.664 -7.31,-5.107 -5.411,-2.4 -7.074,-3.299 -6.799,-5.098 0.333,-2.197 2.555,-3.135 4.958,-2.854 2.694,0.304 14.998,7.021 23.174,17.345 1.459,1.839 4.113,3.463 5.565,4.81 1.976,1.835 2.246,3.577 4.312,4.448 6.213,2.621 12.479,1.373 16.148,3.701"
         transform="matrix(1.3333333,0,0,-1.3333333,603.8518,334.7762)"
         id="path176" /><path
         style="fill:#ffffff;fill-opacity:1;fill-rule:nonzero;stroke:none"
         d="m 125.006,131.087 c 0.424,0.098 0.687,0.508 0.989,0.981 0.527,0.819 1.184,1.843 2.982,1.839 0.846,0 1.346,-0.657 1.924,-1.409 0.699,-0.916 1.495,-1.955 3.091,-1.817 1.612,0.137 3.079,1.953 4.369,3.555 l 0.977,1.172 c 1.668,1.868 9.225,8.288 11.789,8.784 1.229,0.239 1.971,0.213 2.326,-0.088 0.4,-0.338 0.383,-1.062 0.354,-2.06 l -0.017,-0.855 c -0.001,-0.88 0.562,-1.378 1.057,-1.815 0.435,-0.388 0.815,-0.726 0.718,-1.238 -0.209,-1.197 -1.273,-1.733 -2.401,-2.304 -1.116,-0.56 -2.258,-1.144 -2.577,-2.408 -0.386,-1.547 -0.177,-2.977 0.566,-3.82 0.572,-0.642 1.427,-0.918 2.476,-0.796 1.475,0.182 2.359,1.599 3.306,3.096 0.586,0.935 1.195,1.904 1.984,2.666 1.158,1.124 2.177,1.239 3.257,1.362 0.92,0.103 1.879,0.21 2.88,1.021 0.915,0.741 1.394,1.707 1.357,2.724 -0.051,1.229 -0.836,2.434 -2.219,3.387 -1.928,1.33 -3.137,0.197 -3.935,-0.56 -0.286,-0.271 -0.559,-0.527 -0.721,-0.507 l -0.162,0.119 c -0.977,1.391 -0.118,2.638 0.791,3.969 0.439,0.638 0.891,1.3 1.145,1.986 0.336,0.942 0.274,1.711 -0.176,2.233 -0.663,0.781 -2.125,0.96 -4.333,0.53 -0.95,-0.178 -1.792,-0.857 -2.677,-1.57 -0.863,-0.699 -1.752,-1.414 -2.814,-1.743 -2.861,-0.88 -4.875,-2.146 -6.502,-3.165 -1.178,-0.75 -2.113,-1.335 -2.949,-1.482 -0.592,-0.106 -1.654,-0.023 -2.773,0.067 -1.977,0.153 -4.215,0.333 -5.143,-0.392 l -1.543,-1.636 c -0.688,-0.821 -1.402,-1.674 -1.902,-1.698 l -0.317,0.138 c -0.702,0.702 0.183,2.002 1.044,3.268 l 0.332,0.491 c 1.172,1.771 2.623,2.748 3.906,3.608 0.778,0.53 1.456,0.981 1.927,1.531 0.832,0.971 0.995,2.142 0.435,3.205 -0.601,1.16 -1.915,1.885 -3.187,1.747 -2.354,-0.242 -6.281,-3.764 -8.203,-5.93 -1.16,-1.306 -2.041,-2.746 -2.89,-4.137 -0.935,-1.527 -1.812,-2.97 -3.012,-4.199 -1.27,-1.306 -0.915,-3.539 -0.005,-5.18 0.83,-1.502 2.504,-3.099 4.476,-2.67"
         transform="matrix(1.3333333,0,0,-1.3333333,603.8518,334.7762)"
         id="path175" /><path
         style="fill:#ffffff;fill-opacity:1;fill-rule:nonzero;stroke:none"
         d="m -84.748,113.805 c 0.991,5.46 0.997,8.279 2.657,9.303 1.716,1.064 2.919,1.037 3.896,1.699 1.954,1.318 2.721,2.696 2.951,2.282 0.196,-0.358 0.269,-3.002 -0.227,-5.737 -0.637,-3.491 0.481,-6.248 -0.371,-6.89 -1.276,-0.956 -3.106,-0.846 -4.57,-1.381 -2.597,-0.944 -4.719,-2.097 -5.324,-1.825 -1.297,0.584 0.71,1.018 0.988,2.549 m 7.549,-8.868 c 1.558,-0.426 1.026,-2.514 -0.81,-3.047 -3.732,-1.087 -19.475,-5.922 -12.365,-10.673 1.715,-1.15 5.701,-1.056 6.837,-0.708 1.27,0.396 4.259,2.557 5.695,1.357 1.605,-1.344 -1.286,-6.516 1.821,-8.324 2.015,-1.169 4.091,-1.538 4.655,-0.008 0.895,2.459 0.465,9.095 1.448,9.888 2.906,2.323 12.874,-0.305 14.189,3.871 1.546,4.858 -1.153,6.938 -2.81,6.672 -2.96,-0.477 -7.522,-1.867 -10.252,-1.729 -1.077,0.055 -0.757,1.852 -0.352,3.178 0.973,3.232 8.789,1.207 14.414,1.493 4.209,0.224 3.892,-0.489 6.62,-0.585 3.856,-0.131 6.493,3.455 4.263,7.824 -0.846,1.66 -11.543,0.558 -15.438,-0.064 -4.918,-0.779 -7.151,-1.924 -8.66,-0.418 -1.669,1.689 1.59,2.434 1.676,2.434 4.96,0.052 18.586,10.408 10.593,17.756 -2.723,2.508 -0.709,4.88 -5.094,4.443 -0.384,-0.043 -4.682,-1.171 -5.606,-0.544 -0.881,0.591 -0.894,3.04 1.268,3.366 2.953,0.44 7.936,0.412 8.489,0.589 5.444,1.602 4.682,7.88 -1.899,6.067 -3.718,-1.019 -6.49,-1.73 -8.414,-0.7 -0.158,0.083 -2.101,1.208 -2.863,0.944 -0.763,-0.268 -0.091,-1.342 -1.699,-1.477 -1.612,-0.132 -7.861,0.238 -11.552,-1.282 -1.551,-0.635 -5.112,0.443 -6.669,-0.701 -1.518,-1.12 -3.988,-5.541 0.124,-7.249 1.797,-0.75 5.207,3.069 10.074,3.43 2.373,0.173 3.226,2.233 5.461,0.751 0.893,-0.591 0.422,-0.868 0.054,-1.284 -0.215,-0.245 -7.401,-2.552 -12.818,-5.858 -3.779,-2.305 -7.077,-4.418 -5.428,-8.314 0.351,-0.833 3.204,-2.636 0.799,-3.759 -2.283,-1.068 -5.473,-3.385 -5.74,-5.274 -0.093,-0.698 -0.125,-3.294 -0.044,-3.981 0.351,-3.135 4.335,-2.471 4.201,-3.721 -0.063,-0.558 -3.002,-0.983 -4.928,-2.186 -1.29,-0.813 -1.421,-3.096 -1.304,-4.115 0.175,-1.568 1.093,-1.123 4.248,-1.124 5.06,-0.01 6.643,0.654 12.626,2.577 1.218,0.385 3.783,0.863 5.19,0.485 m 1.927,30.603 c 1.302,-0.376 0.976,-1.823 -1.123,-3.402 -3.092,-2.317 -7.547,-5.687 -8.689,-3.649 -1.174,2.084 7.877,7.618 9.812,7.051 m -16.162,-21.536 c -2.28,1.855 2.406,5.357 3.674,5.333 2.338,-0.047 -1.209,-7.309 -3.674,-5.333 m 23.628,18.349 c 0.676,1.651 4.239,1.737 4.35,1.153 0.099,-0.58 -1.236,-2.738 -0.548,-4.199 0.711,-1.527 1.426,-2.826 3.084,-2.604 0.964,0.129 0.666,-1.12 -0.141,-2.458 -0.603,-1.012 -5.374,-6.364 -6.875,-5.084 -1.062,0.888 -1.356,5.762 0.303,9.029 0.261,1.268 -0.62,3.174 -0.173,4.163"
         transform="matrix(1.3333333,0,0,-1.3333333,603.8518,334.7762)"
         id="path174" /><path
         style="fill:#ffffff;fill-opacity:1;fill-rule:nonzero;stroke:none"
         d="m 250.219,46.412 c -2.164,-2.254 -4.813,-3.38 -7.949,-3.38 -3.137,0 -5.787,1.126 -7.949,3.38 -2.132,2.254 -3.197,5.087 -3.197,8.497 0,3.41 1.065,6.227 3.197,8.451 2.162,2.283 4.812,3.426 7.949,3.426 3.136,0 5.785,-1.143 7.949,-3.426 2.162,-2.254 3.243,-5.071 3.243,-8.451 0,-3.35 -1.081,-6.183 -3.243,-8.497 m -7.949,25.079 c -4.691,0 -8.587,-1.599 -11.695,-4.796 -3.077,-3.168 -4.614,-7.096 -4.614,-11.786 0,-4.66 1.537,-8.604 4.614,-11.831 3.108,-3.168 7.004,-4.751 11.695,-4.751 4.689,0 8.588,1.583 11.695,4.751 3.105,3.197 4.658,7.14 4.658,11.831 0,4.69 -1.553,8.618 -4.658,11.786 -3.107,3.197 -7.006,4.796 -11.695,4.796"
         transform="matrix(1.3333333,0,0,-1.3333333,603.8518,334.7762)"
         id="path173" /><path
         style="fill:#ffffff;fill-opacity:1;fill-rule:nonzero;stroke:none"
         d="M -50.665,64.731 -44.817,51.3 h -11.695 z m 7.583,-17.862 3.473,-7.949 h 5.39 l -13.979,32.16 h -4.841 L -67.018,38.92 h 5.343 l 3.427,7.949 z"
         transform="matrix(1.3333333,0,0,-1.3333333,603.8518,334.7762)"
         id="path172" /><path
         style="fill:#ffffff;fill-opacity:1;fill-rule:nonzero;stroke:none"
         d="m 373.219,43.535 v 27.362 h -5.072 V 38.92 h 22.065 v 4.615 z"
         transform="matrix(1.3333333,0,0,-1.3333333,603.8518,334.7762)"
         id="path171" /><path
         style="fill:#ffffff;fill-opacity:1;fill-rule:nonzero;stroke:none"
         d="m -25.349,-6.761 h 5.026 v 31.977 h -5.026 z"
         transform="matrix(1.3333333,0,0,-1.3333333,603.8518,334.7762)"
         id="path170" /><path
         style="fill:#ffffff;fill-opacity:1;fill-rule:nonzero;stroke:none"
         d="m -71.983,6.579 c 0,-2.955 -0.755,-5.232 -2.262,-6.831 -1.507,-1.598 -3.556,-2.397 -6.145,-2.397 -2.588,0 -4.629,0.799 -6.12,2.397 -1.492,1.599 -2.239,3.876 -2.239,6.831 v 18.637 h -5.024 V 6.761 c 0,-4.508 1.232,-7.994 3.7,-10.462 2.526,-2.436 5.756,-3.653 9.683,-3.653 3.929,0 7.158,1.232 9.686,3.699 2.496,2.467 3.745,5.94 3.745,10.416 v 18.455 h -5.024 z"
         transform="matrix(1.3333333,0,0,-1.3333333,603.8518,334.7762)"
         id="path169" /><path
         style="fill:#ffffff;fill-opacity:1;fill-rule:nonzero;stroke:none"
         d="M 93.966,38.92 V 70.897 H 88.941 V 58.289 H 72.269 V 70.897 H 67.242 V 38.92 h 5.027 V 53.675 H 88.941 V 38.92 Z"
         transform="matrix(1.3333333,0,0,-1.3333333,603.8518,334.7762)"
         id="path168" /><path
         style="fill:#ffffff;fill-opacity:1;fill-rule:nonzero;stroke:none"
         d="m -37.637,2.056 -18.044,23.16 h -4.384 V -6.761 h 4.933 v 23.252 l 18.181,-23.252 h 4.249 v 31.977 h -4.935 z"
         transform="matrix(1.3333333,0,0,-1.3333333,603.8518,334.7762)"
         id="path167" /><path
         style="fill:#ffffff;fill-opacity:1;fill-rule:nonzero;stroke:none"
         d="m 312.151,56.508 -10.368,14.389 h -5.117 V 38.92 h 5.024 v 24.302 l 8.909,-12.059 h 2.923 l 8.909,12.059 V 38.92 h 5.023 v 31.977 h -5.023 z"
         transform="matrix(1.3333333,0,0,-1.3333333,603.8518,334.7762)"
         id="path166" /><path
         style="fill:#ffffff;fill-opacity:1;fill-rule:nonzero;stroke:none"
         d="m 341.922,51.3 5.848,13.431 5.847,-13.431 z m 3.473,19.78 -13.979,-32.16 h 5.345 l 3.426,7.949 h 15.166 l 3.471,-7.949 h 5.39 l -13.978,32.16 z"
         transform="matrix(1.3333333,0,0,-1.3333333,603.8518,334.7762)"
         id="path165" /><path
         style="fill:#ffffff;fill-opacity:1;fill-rule:nonzero;stroke:none"
         d="m -70.613,66.284 v 4.613 h -22.75 V 38.92 h 23.344 v 4.615 h -18.318 v 10.14 h 14.435 v 4.614 h -14.435 v 7.995 z"
         transform="matrix(1.3333333,0,0,-1.3333333,603.8518,334.7762)"
         id="path164" /><path
         style="fill:#ffffff;fill-opacity:1;fill-rule:nonzero;stroke:none"
         d="m 269.373,56.873 v 9.411 h 9.227 c 1.827,0 3.25,-0.412 4.271,-1.234 1.02,-0.822 1.531,-1.964 1.531,-3.426 0,-1.523 -0.511,-2.695 -1.531,-3.518 -1.021,-0.822 -2.444,-1.233 -4.271,-1.233 z m 18.25,-0.753 c 1.232,1.568 1.85,3.463 1.85,5.687 0,2.68 -0.947,4.872 -2.833,6.577 -1.859,1.676 -4.432,2.513 -7.72,2.513 H 264.347 V 38.92 h 5.026 v 13.522 h 7.49 l 9.64,-13.522 h 6.075 l -10.05,14.07 c 2.162,0.517 3.861,1.561 5.095,3.13"
         transform="matrix(1.3333333,0,0,-1.3333333,603.8518,334.7762)"
         id="path163" /><path
         style="fill:#ffffff;fill-opacity:1;fill-rule:nonzero;stroke:none"
         d="m 52.433,38.327 c 3.562,0 6.685,0.852 9.365,2.558 v 5.071 c -2.438,-1.95 -5.482,-2.924 -9.137,-2.924 -3.441,0 -6.289,1.111 -8.542,3.335 -2.255,2.253 -3.381,5.1 -3.381,8.542 0,3.441 1.112,6.273 3.335,8.497 2.253,2.253 5.055,3.38 8.406,3.38 3.167,0 6.044,-0.838 8.634,-2.512 v 5.07 c -2.528,1.431 -5.423,2.147 -8.68,2.147 -4.874,0 -8.894,-1.569 -12.061,-4.705 -3.196,-3.107 -4.795,-7.066 -4.795,-11.877 0,-4.813 1.599,-8.787 4.795,-11.923 3.259,-3.106 7.278,-4.659 12.061,-4.659"
         transform="matrix(1.3333333,0,0,-1.3333333,603.8518,334.7762)"
         id="path162" /><path
         style="fill:#ffffff;fill-opacity:1;fill-rule:nonzero;stroke:none"
         d="m 162.012,12.289 -9.136,12.927 h -5.848 L 159.408,7.721 V -6.761 h 5.025 V 7.857 l 12.379,17.359 h -5.664 z"
         transform="matrix(1.3333333,0,0,-1.3333333,603.8518,334.7762)"
         id="path161" /><path
         style="fill:#ffffff;fill-opacity:1;fill-rule:nonzero;stroke:none"
         d="m 118.227,20.603 h 10.552 V -6.761 h 5.026 v 27.364 h 10.597 v 4.613 h -26.175 z"
         transform="matrix(1.3333333,0,0,-1.3333333,603.8518,334.7762)"
         id="path160" /><path
         style="fill:#ffffff;fill-opacity:1;fill-rule:nonzero;stroke:none"
         d="M 118.633,62.172 136.815,38.92 h 4.248 v 31.977 h -4.933 v -23.16 l -18.046,23.16 h -4.385 V 38.92 h 4.934 z"
         transform="matrix(1.3333333,0,0,-1.3333333,603.8518,334.7762)"
         id="path159" /><path
         style="fill:#ffffff;fill-opacity:1;fill-rule:nonzero;stroke:none"
         d="m 155.529,51.3 5.848,13.431 5.848,-13.431 z m 3.473,19.78 -13.978,-32.16 h 5.344 l 3.426,7.949 h 15.167 l 3.472,-7.949 h 5.39 l -13.979,32.16 z"
         transform="matrix(1.3333333,0,0,-1.3333333,603.8518,334.7762)"
         id="path158" /><path
         style="fill:#ffffff;fill-opacity:1;fill-rule:nonzero;stroke:none"
         d="m 98.763,9.593 c -1.675,0.914 -3.624,1.706 -5.847,2.376 l -3.655,1.051 c -0.183,0.06 -0.488,0.167 -0.914,0.319 -0.427,0.152 -0.807,0.297 -1.142,0.434 -0.335,0.137 -0.594,0.266 -0.776,0.389 -1.248,0.882 -1.874,1.842 -1.874,2.878 0,1.217 0.555,2.199 1.669,2.946 1.11,0.745 2.732,1.118 4.864,1.118 3.502,0 6.882,-0.99 10.141,-2.968 v 5.025 c -2.955,1.765 -6.365,2.649 -10.233,2.649 -3.562,0 -6.387,-0.792 -8.473,-2.375 -2.086,-1.585 -3.13,-3.701 -3.13,-6.351 0,-2.922 1.097,-5.07 3.29,-6.44 1.309,-0.762 2.375,-1.295 3.198,-1.6 1.035,-0.395 2.421,-0.837 4.157,-1.323 l 0.64,-0.184 c 2.039,-0.579 3.501,-1.081 4.384,-1.507 0.731,-0.304 1.28,-0.625 1.645,-0.96 0.943,-0.821 1.415,-1.811 1.415,-2.968 0,-1.462 -0.691,-2.62 -2.078,-3.472 -1.387,-0.853 -3.159,-1.279 -5.32,-1.279 -2.194,0 -4.387,0.411 -6.579,1.232 -2.194,0.854 -3.915,1.828 -5.164,2.924 v -5.436 c 3.138,-2.283 7.143,-3.425 12.015,-3.425 3.503,0 6.427,0.852 8.772,2.558 2.344,1.704 3.516,4.035 3.516,6.989 -0.182,3.411 -1.689,5.877 -4.521,7.4"
         transform="matrix(1.3333333,0,0,-1.3333333,603.8518,334.7762)"
         id="path157" /><path
         style="fill:#ffffff;fill-opacity:1;fill-rule:nonzero;stroke:none"
         d="m 108.899,-6.761 h 5.023 v 31.977 h -5.023 z"
         transform="matrix(1.3333333,0,0,-1.3333333,603.8518,334.7762)"
         id="path156" /><path
         style="fill:#ffffff;fill-opacity:1;fill-rule:nonzero;stroke:none"
         d="m 215.281,47.737 -18.044,23.16 h -4.385 V 38.92 h 4.934 v 23.252 l 18.18,-23.252 h 4.248 v 31.977 h -4.933 z"
         transform="matrix(1.3333333,0,0,-1.3333333,603.8518,334.7762)"
         id="path155" /><path
         style="fill:#ffffff;fill-opacity:1;fill-rule:nonzero;stroke:none"
         d="m 101.32,38.92 h 5.024 v 31.978 h -5.024 z"
         transform="matrix(1.3333333,0,0,-1.3333333,603.8518,334.7762)"
         id="path154" /><path
         style="fill:#ffffff;fill-opacity:1;fill-rule:nonzero;stroke:none"
         d="m -7.35,47.874 c -0.183,3.411 -1.69,5.877 -4.521,7.4 -1.676,0.914 -3.626,1.705 -5.848,2.376 l -3.655,1.051 c -0.183,0.06 -0.487,0.167 -0.914,0.319 -0.426,0.152 -0.808,0.297 -1.142,0.435 -0.335,0.136 -0.593,0.265 -0.775,0.388 -1.25,0.882 -1.874,1.842 -1.874,2.878 0,1.217 0.556,2.199 1.667,2.946 1.112,0.746 2.733,1.119 4.865,1.119 3.502,0 6.883,-0.991 10.141,-2.969 v 5.024 c -2.953,1.766 -6.365,2.65 -10.232,2.65 -3.563,0 -6.388,-0.792 -8.473,-2.375 -2.086,-1.585 -3.13,-3.701 -3.13,-6.35 0,-2.923 1.095,-5.071 3.29,-6.441 1.307,-0.762 2.374,-1.295 3.197,-1.599 1.036,-0.396 2.42,-0.838 4.157,-1.324 l 0.64,-0.184 c 2.038,-0.579 3.501,-1.081 4.385,-1.507 0.731,-0.304 1.278,-0.625 1.645,-0.96 0.943,-0.821 1.415,-1.811 1.415,-2.968 0,-1.462 -0.692,-2.62 -2.078,-3.472 -1.387,-0.853 -3.16,-1.279 -5.321,-1.279 -2.194,0 -4.387,0.41 -6.579,1.233 -2.193,0.853 -3.913,1.827 -5.162,2.923 v -5.436 c 3.136,-2.283 7.14,-3.425 12.014,-3.425 3.502,0 6.425,0.852 8.771,2.558 2.345,1.704 3.517,4.035 3.517,6.989"
         transform="matrix(1.3333333,0,0,-1.3333333,603.8518,334.7762)"
         id="path153" /><path
         style="fill:#ffffff;fill-opacity:1;fill-rule:nonzero;stroke:none"
         d="m 53.342,11.192 v 9.411 h 9.227 c 1.827,0 3.251,-0.412 4.272,-1.234 1.019,-0.822 1.53,-1.964 1.53,-3.427 0,-1.523 -0.511,-2.694 -1.53,-3.517 -1.021,-0.822 -2.445,-1.233 -4.272,-1.233 z m 18.25,-0.754 c 1.233,1.568 1.849,3.464 1.849,5.688 0,2.68 -0.943,4.873 -2.832,6.578 -1.857,1.675 -4.431,2.512 -7.719,2.512 H 48.317 V -6.761 h 5.025 V 6.761 h 7.492 l 9.639,-13.522 h 6.075 l -10.05,14.07 c 2.162,0.517 3.86,1.561 5.094,3.129"
         transform="matrix(1.3333333,0,0,-1.3333333,603.8518,334.7762)"
         id="path152" /><path
         style="fill:#ffffff;fill-opacity:1;fill-rule:nonzero;stroke:none"
         d="m 10.589,38.92 v 27.364 h 10.598 v 4.613 H -4.988 V 66.284 H 5.564 V 38.92 Z"
         transform="matrix(1.3333333,0,0,-1.3333333,603.8518,334.7762)"
         id="path151" /><path
         style="fill:#ffffff;fill-opacity:1;fill-rule:nonzero;stroke:none"
         d="M 25.084,7.994 H 39.52 v 4.613 H 25.084 v 7.996 h 17.724 v 4.613 H 20.059 V -6.761 h 23.343 v 4.615 H 25.084 Z"
         transform="matrix(1.3333333,0,0,-1.3333333,603.8518,334.7762)"
         id="path150" /><path
         style="fill:#ffffff;fill-opacity:1;fill-rule:nonzero;stroke:none"
         d="m 0,0 -10.598,25.216 h -5.573 l 13.75,-32.159 h 4.752 l 13.703,32.159 h -5.435 z"
         transform="matrix(1.3333333,0,0,-1.3333333,603.8518,334.7762)"
         id="path29" /></g><path
       style="fill:#ffffff;fill-opacity:1;fill-rule:nonzero;stroke:none;stroke-width:0.779549"
       d="m 982.46086,197.43896 c -0.70002,0.0187 -0.78269,0.88401 -0.84816,1.58016 l -0.0655,0.5293 c -0.20581,1.03684 -2.00107,2.1056 -3.58667,2.58655 l -0.42799,0.1388 c -0.76322,0.25257 -1.36425,0.45212 -2.23498,0.0263 -0.38044,-0.18474 -0.6899,-0.95808 -0.68915,-1.72201 0,-0.60653 0.19961,-1.04929 0.54339,-1.21691 0.14967,-0.074 0.18785,-0.021 0.25175,0.064 0.14969,0.20187 0.34227,0.32891 1.14595,-0.1739 0.0701,-0.0421 0.10602,-0.22602 0.16685,-0.57139 0.0474,-0.2853 0.10438,-0.61038 0.19722,-0.80683 l 0.31179,-0.57923 0.21048,-0.40459 c 0.1505,-0.65481 -0.0309,-1.28859 -0.50047,-1.73604 -0.52228,-0.50122 -1.30414,-0.67042 -2.09461,-0.45136 -1.16623,0.32432 -2.27083,1.15063 -3.24605,1.88186 -0.99551,0.74446 -1.85379,1.38682 -2.58187,1.3946 -0.25884,0.007 -0.44904,-0.1302 -0.61432,-0.24556 -0.15669,-0.10988 -0.30402,-0.21515 -0.47164,-0.16605 -0.23855,0.0686 -0.48177,0.44278 -0.81854,1.24728 -0.0678,0.16294 -0.0927,0.46696 -0.1216,0.81852 -0.0473,0.56829 -0.10603,1.27538 -0.38272,1.46949 -0.0749,0.0521 -0.16219,0.0646 -0.26661,0.0374 -0.10911,-0.0286 -0.18323,-0.0905 -0.22608,-0.19179 -0.19178,-0.43188 0.27518,-1.36893 0.27905,-1.37747 0.007,-0.009 0.13255,-0.81542 0.13255,-0.81542 0.024,-0.24948 0.0468,-0.48486 0.12084,-0.67587 0.43031,-1.11946 1.4453,-1.35174 2.51791,-1.59731 0.55585,-0.12938 1.37128,-0.81384 1.50691,-1.0017 0.26428,-0.37419 -0.12628,-0.77801 -0.43966,-1.10309 l -0.0567,-0.0601 c -0.5207,-0.54333 -1.03285,-0.67588 -1.56999,-0.40225 -0.44592,0.22767 -0.99627,0.80531 -1.63238,1.47259 -0.48252,0.50825 -0.98299,1.03293 -1.50066,1.46943 l -0.1816,0.1505 c -1.06642,0.87308 -2.28644,1.94343 -2.22721,2.48365 0.01,0.10602 0.0686,0.18551 0.17306,0.24006 0.43423,0.22141 0.86296,-0.24708 1.23872,-0.6626 0.28766,-0.31572 0.56052,-0.61583 0.74294,-0.48253 0.0639,0.0468 0.099,0.0951 0.10911,0.15587 0.017,0.12085 -0.0562,0.28924 -0.22838,0.51685 l -0.0787,0.10295 c -0.20814,0.26583 -0.40226,0.5153 -0.50048,1.2652 -0.1372,1.04931 0.0749,1.28473 0.42874,1.67448 l 0.36097,0.43347 c 0.15902,0.22135 0.16914,0.57372 0.17539,0.80524 l 0.0369,0.26036 c 0.24322,0.28064 0.43265,0.2596 0.57144,0.24246 0.10989,-0.0134 0.17775,-0.0204 0.25259,0.10526 0.17457,0.28924 0.0795,0.9955 -0.0647,1.08122 -0.009,0.007 -0.0374,0.0228 -0.0881,-0.0579 -0.1263,-0.20193 -0.50593,-0.14114 -0.64857,-0.11927 -0.38899,0.0579 -0.5106,0.37728 -0.61817,0.6595 l -0.0842,0.2019 c -0.48411,1.01187 0.0415,1.52713 0.62126,1.89664 0.3446,0.22217 0.64161,0.41235 1.27222,0.0967 0.53947,-0.27128 0.63227,-1.17085 0.72581,-2.12426 l 0.0328,-0.3087 c 0.0927,-0.89178 0.2463,-1.64875 0.41936,-2.0814 0.21049,-0.5262 0.16606,-0.93236 0.12863,-1.25977 l -0.009,-0.46691 c 0.11543,-0.58701 0.44518,-0.81076 0.86146,-1.09532 0.21749,-0.14885 0.46538,-0.31648 0.70861,-0.56046 l 0.5597,-0.57687 c 0.68054,-0.70864 1.21844,-1.27147 2.16793,-1.78517 0.31337,-0.16995 0.63377,-0.43815 0.94481,-0.69224 0.42254,-0.35238 0.8614,-0.71645 1.30264,-0.85986 l 0.0905,-0.0304 c 0.39056,-0.13097 1.11553,-0.37419 1.36419,-0.12085 0.0772,0.0764 0.30872,0.71412 0.1785,1.01813 -0.045,0.10757 -0.13096,0.15821 -0.26193,0.15436 -0.21983,-0.007 -0.24708,-0.13255 -0.27128,-0.33678 -0.0169,-0.13722 -0.0328,-0.27911 -0.15435,-0.35002 -0.21516,-0.12939 -0.90974,-0.0182 -0.91674,-0.0164 -0.26346,0.045 -0.4654,0.3477 -0.69845,0.69769 -0.16839,0.25257 -0.35939,0.54022 -0.59794,0.7593 -0.88635,0.81462 -1.07969,2.2958 -0.80992,3.34037 0.30945,1.20053 0.94399,1.64874 1.32442,1.91692 l 0.22919,0.17931 c 0.89805,0.95026 2.1422,1.68928 5.14814,0.66887 1.97382,-0.6712 3.50413,-1.81094 4.19636,-3.12678 0.31806,-0.60337 0.27281,-2.17027 -0.20813,-2.94753 -0.19493,-0.31338 -0.44049,-0.46849 -0.72657,-0.46305 m -23.63839,16.36889 C 900.94499,213.69841 854.1197,166.88952 854.01212,108.99848 854.11969,51.117546 900.94499,4.2937688 958.8228,4.1924473 c 57.884,0.1013259 104.6978,46.9250987 104.8054,104.8060327 -0.1079,57.89104 -46.9214,104.69998 -104.8054,104.80912 M 958.8228,0 c -60.19465,0.10682 -108.89163,48.803857 -109.00155,108.99848 0.10988,60.20631 48.8069,108.88851 109.00155,109.00151 60.197,-0.113 108.8869,-48.7952 108.9985,-109.00151 C 1067.7097,48.803857 1019.0198,0.1068178 958.8228,0 m 9.48325,190.11155 c 0.2448,-0.54959 0.60571,-0.89104 0.92692,-1.1919 0.19487,-0.18476 0.36249,-0.34227 0.4685,-0.52001 0.18943,-0.31022 0.18084,-0.64623 -0.0258,-0.91751 -0.22451,-0.29777 -0.626,-0.43809 -0.97598,-0.3422 -0.64862,0.17849 -1.5856,1.34858 -2.02451,2.04317 -0.26351,0.42095 -0.44277,0.86454 -0.6174,1.2956 -0.18944,0.47165 -0.37027,0.91599 -0.64939,1.31749 -0.29545,0.42405 -0.0919,1.03521 0.23854,1.45382 0.30484,0.38203 0.84817,0.75153 1.38139,0.53948 0.11383,-0.0474 0.16913,-0.17465 0.23153,-0.32116 0.11066,-0.25416 0.24789,-0.57222 0.74993,-0.65406 0.23773,-0.0397 0.40845,0.1216 0.60572,0.30559 0.23854,0.22369 0.50902,0.47785 0.95101,0.36402 0.44593,-0.11225 0.771,-0.69143 1.05942,-1.20049 l 0.21749,-0.3726 c 0.3812,-0.60103 2.20302,-2.7526 2.89842,-3.01219 0.33284,-0.12395 0.54174,-0.15126 0.65557,-0.0818 0.12863,0.0749 0.15746,0.2783 0.19569,0.56128 l 0.0345,0.23925 c 0.0403,0.24633 0.2214,0.36091 0.3812,0.45996 0.13955,0.0865 0.26192,0.16369 0.25958,0.31338 0,0.3453 -0.27671,0.54567 -0.56671,0.75691 -0.28455,0.21047 -0.57999,0.42644 -0.60962,0.79595 -0.0369,0.45288 0.0888,0.84344 0.33524,1.04223 0.19019,0.15591 0.44353,0.19258 0.73276,0.10988 0.40458,-0.11845 0.587,-0.55811 0.78187,-1.02199 0.12084,-0.28917 0.24555,-0.58775 0.43113,-0.84032 0.27281,-0.36794 0.55268,-0.44827 0.85044,-0.53246 0.25492,-0.0718 0.51843,-0.14734 0.76166,-0.42014 0.21983,-0.25105 0.31027,-0.54491 0.25333,-0.82789 -0.0709,-0.34144 -0.34846,-0.64312 -0.7803,-0.84583 -0.60185,-0.28374 -0.88869,0.0912 -1.07893,0.3407 -0.067,0.088 -0.13098,0.17305 -0.17692,0.17615 l -0.0509,-0.0281 c -0.3391,-0.3422 -0.15745,-0.73433 0.0356,-1.14752 0.0936,-0.19878 0.18944,-0.4061 0.22768,-0.6119 0.0514,-0.27755 0,-0.49112 -0.15202,-0.61665 -0.22298,-0.18867 -0.64002,-0.16996 -1.23949,0.0532 -0.25648,0.0951 -0.46071,0.32274 -0.67587,0.56671 -0.20972,0.23311 -0.42721,0.47551 -0.71018,0.61742 -0.7593,0.37884 -1.26679,0.82945 -1.67372,1.19036 -0.29701,0.26427 -0.53164,0.47166 -0.75849,0.55269 -0.16212,0.0579 -0.46229,0.0833 -0.78111,0.10988 -0.56052,0.0486 -1.19739,0.10217 -1.425,0.34928 l -0.35472,0.53005 c -0.15434,0.26275 -0.31414,0.53556 -0.45293,0.5652 l -0.0967,-0.0251 c -0.22919,-0.16371 -0.0421,-0.56983 0.13874,-0.96352 z m -17.25847,7.05805 c -0.60887,0.38904 -0.95499,0.56127 -1.34789,0.50205 -0.20813,-0.0304 -0.62284,-0.52228 -0.50667,-0.75229 0.28999,-0.58384 0.0974,-0.8177 0.24089,-1.14278 0.23305,-0.53088 1.01106,-0.3391 1.49749,-0.33601 0.65324,0.007 1.06251,-0.24397 1.11163,0.2292 0,0 -0.19563,0.98381 -0.99545,1.49983 m -3.69121,-4.07312 c -0.42096,0.66026 -0.96506,0.9339 -1.25354,0.61893 -0.21433,-0.23072 0.87315,-1.2161 1.35491,-1.84287 0.60648,-0.78496 0.732,-0.65091 0.94014,-0.4786 0.23697,0.19563 -0.46773,0.80525 -1.04151,1.70254 m -6.86548,-0.86296 c -1.07502,0.30712 -1.35175,1.12022 -1.52095,1.56923 -0.0779,0.21283 -0.34529,0.14108 -0.38195,-0.0724 -0.0849,-0.49112 -0.0678,-1.35567 0.34455,-1.99804 0.55191,-0.86447 0.77174,-1.56532 1.21065,-2.12115 0.55427,-0.7016 1.28234,-0.99159 1.44371,-0.80292 0.30871,0.36092 -0.43184,0.77409 -0.46224,1.12179 -0.0827,1.00638 -0.25724,1.00714 -0.53713,1.47569 -0.1972,0.3352 0.45528,0.67038 -0.0967,0.82788 m 13.13231,0.96429 c -1.04772,-0.47475 -2.783,0.53088 -3.2336,-0.0787 -0.18709,-0.25257 0.25573,-0.75145 0.3259,-1.1085 0.11301,-0.57766 -0.22142,-1.08983 -0.68055,-1.20986 -0.29859,-0.0795 -0.28924,-0.46229 0.0632,-0.49186 0.50434,-0.0415 0.74913,0.0145 1.26205,0.0663 0.9682,0.0974 1.52714,0.0427 2.12741,-0.81461 0.18319,-0.26118 0.0982,-0.84116 -0.29307,-1.13191 -0.50131,-0.37501 -2.10095,-0.43267 -3.77853,-0.40383 -1.80934,0.0286 -3.71301,-0.0263 -4.09888,0.62675 -0.18476,0.31807 -0.56749,0.68447 -0.77177,1.09058 -0.30086,0.59168 -0.47316,1.13116 -0.81303,1.36343 -1.0711,0.73826 -1.38448,2.26698 -1.58875,1.74622 -0.13951,-0.35471 -0.66495,-0.33051 -0.9799,-0.40459 -0.14735,-0.0351 -0.12706,-0.43966 0.0415,-0.59092 0.16681,-0.14886 0.19019,-0.01 0.43107,-0.1068 0.65875,-0.26193 1.46167,-0.96119 1.59497,-1.4578 0.33442,-1.24258 0.83958,-2.18664 0.28532,-2.90847 -0.47552,-0.62208 -1.3003,-0.89495 -2.14999,-0.95183 -0.44592,-0.0304 -1.17476,0.0328 -1.64174,0.23071 -0.80139,0.33676 -1.08121,1.33303 -1.57,2.53511 -0.19959,0.4911 -0.65873,1.10541 -0.87231,1.87324 -0.26976,0.97604 -0.60805,2.34024 -0.76556,3.04184 -0.35156,1.58252 -0.42405,2.68945 -0.0592,3.8081 0.19102,0.58623 -0.007,1.40943 0.82398,1.45855 0.68755,0.0392 0.36482,-2.50627 0.58231,-3.66701 0.0873,-0.47633 0.20195,-0.92844 0.57848,-1.13114 0.12002,-0.0623 0.22602,-0.28685 0.4365,-0.18009 0.2113,0.10603 -0.1481,0.7913 0.19178,0.79673 0.6026,0.01 0.92142,-0.72733 1.39699,-0.44826 0.37103,0.21907 -0.18008,0.85519 -0.65874,1.25978 -0.94015,0.79671 -1.3798,2.2841 -0.0872,2.64109 0.54801,0.15284 1.20283,-0.59787 1.47879,-1.35326 0.21515,-0.59169 0.15669,-0.9737 0.37261,-1.43752 0.17464,-0.36406 0.49661,-0.44124 0.74684,-0.88243 0.23855,-0.42254 0.42482,-0.91289 0.78188,-1.41177 0.41317,-0.57608 1.0072,-1.15998 1.39694,-1.62537 0.44048,-0.51843 0.817,-1.02668 1.30111,-1.32369 0.48251,-0.29625 1.19037,-0.48877 1.61519,-0.19411 0.30402,0.21048 -0.95886,0.93705 -1.72359,1.64409 -1.06877,0.98531 -1.68617,2.24744 -1.92939,3.87122 -0.0974,0.65716 -0.4537,2.46343 -0.0204,2.85474 0.31416,0.28455 0.58854,0.39523 0.99939,0.35389 1.01029,-0.10129 0.65014,-2.00498 1.23713,-2.8048 0.12788,-0.17382 0.24481,-0.49738 0.54024,-0.33676 0.29391,0.16212 -0.51684,3.96167 -1.02744,6.19275 -0.35161,1.52556 -0.41392,2.79704 -0.51841,4.00611 -0.0427,0.50358 -0.0631,0.98533 0.67588,1.12957 1.04613,0.20346 1.45071,-2.03854 1.6971,-3.42613 0.2058,-1.15453 0.59477,-2.86794 1.09215,-3.45577 0.55034,-0.64932 1.85689,-1.06875 2.65746,-1.24568 0.82012,-0.17855 1.50376,-1.14675 1.97149,-1.52562 0.62986,-0.51134 1.19347,-2.25522 1.32525,-2.8804 0.18242,-0.86062 -0.0865,-1.29328 -0.76865,-1.60123 m 52.90115,-4.95636 c -0.9245,0.53555 -2.0557,0.65166 -2.7471,0.79667 -2.0931,0.43732 -3.7442,-0.32274 -4.27121,-0.20114 -0.52772,0.1201 -0.30321,1.42974 0.0982,2.0627 1.14591,1.81012 4.72561,1.25902 6.84921,0.65331 0.8169,-0.23387 1.7056,-1.03217 2.4181,-1.46399 0.7546,-0.4584 1.5022,-0.58784 1.4648,-1.10234 -0.038,-0.51451 0.2144,-0.62518 -0.076,-1.02818 -0.6782,-0.93548 -2.1407,-0.64004 -3.7357,0.28297 m -73.5522,-61.74832 21.51329,-16.1367 v -6.79532 l -21.51329,16.14215 z m 69.2234,58.02828 c 0.5207,-0.90114 0.6166,-1.94652 -0.3695,-2.1118 -0.3633,-0.0591 -0.5192,-0.13097 -1.1397,0.21749 -1.05786,0.58934 -0.6439,1.07655 -1.35019,1.50065 -0.30559,0.18318 -0.60337,-1.16464 -0.0647,-1.61916 1.12959,-0.95417 2.24199,-2.38853 1.86159,-3.6358 -0.3095,-1.02356 -0.8684,-1.8694 -2.21783,-0.66574 -0.70474,0.62834 -1.60431,1.54819 -2.12274,3.03399 -0.66493,1.90916 -1.05706,4.03651 -1.99018,5.31734 -0.6018,0.82788 -0.69301,0.32899 -1.40243,0.93703 -1.97459,1.69706 -3.0543,3.26552 -2.10398,4.28518 0.66102,0.70704 1.59648,0.51058 2.10322,0.36174 0.62284,-0.18399 0.9955,-0.6954 1.10074,-0.34846 0.10361,0.34687 -0.43113,1.82414 -0.69149,3.01219 -0.10217,0.47393 -0.58308,1.56221 -1.25509,2.40565 -1.12256,1.40787 -1.44605,1.8842 -1.1194,2.33245 0.39991,0.54491 1.1319,0.48563 1.73996,0.0724 0.68289,-0.45996 3.06282,-4.00225 3.81744,-7.93972 0.13641,-0.70085 0.62367,-1.51159 0.82555,-2.07906 0.27596,-0.77334 0.10294,-1.28159 0.53946,-1.80779 1.30883,-1.58018 3.17507,-2.12273 3.83927,-3.26867 m -117.78245,-44.66052 -2.64577,1.33151 3.54071,7.03309 -3.69121,1.85999 -2.77048,-5.50127 -2.60527,1.31198 2.77049,5.50127 -2.76897,1.39466 -3.43858,-6.83046 -2.64659,1.33229 4.77868,9.48867 14.35701,-7.22955 z m 16.02446,33.92451 c 0.23696,0.16604 -0.0803,0.37734 -0.5262,0.50596 -0.336,0.0982 -2.45483,0.29936 -2.52265,-0.28144 -0.0514,-0.40845 0.86846,-1.52949 1.88964,-1.90444 0.31262,-0.22375 0.50596,-0.81543 0.80217,-0.94089 0.48257,-0.22452 1.27537,0.47784 1.17949,0.62593 -0.0951,0.14658 -0.82086,0.34694 -0.96744,0.80532 -0.15278,0.47551 -0.2596,0.90115 0.14499,1.18956 m -4.247,-1.77737 c -0.84349,0.63067 -1.15839,1.45855 -1.47177,1.42505 -0.4709,-0.0491 -0.8466,-0.442 -1.27304,-0.6229 -0.75539,-0.31882 -1.44997,-0.49657 -1.52791,-0.67897 -0.1637,-0.38899 0.36091,-0.078 0.73124,-0.35547 1.31743,-0.98693 1.88805,-1.59965 2.45635,-1.48815 0.58777,0.11536 0.84425,0.36483 1.18961,0.41862 0.69301,0.10834 1.13811,-0.0369 1.10384,0.10063 -0.0286,0.11769 -0.54806,0.70702 -1.20832,1.20124 m -4.9556,-1.62379 c -0.12161,-0.86688 1.60355,-0.6813 1.87484,-0.41861 0.50048,0.48253 -1.73996,1.34472 -1.87484,0.41861 m 7.86565,-1.42267 c 0.20581,0.34531 -0.15668,0.59479 -0.93155,0.5137 -1.14126,-0.12003 -2.79,-0.28685 -2.62864,-0.96037 0.16605,-0.69225 3.25383,-0.067 3.56019,0.44667 m 6.11875,0.72417 c -1.0158,-0.52929 -1.76335,-0.93464 -1.97308,-1.54819 -0.0169,-0.0507 -0.21281,-0.68833 -0.43264,-0.78263 -0.21984,-0.0967 -0.29075,0.27363 -0.6681,-0.0251 -0.37803,-0.29626 -1.66279,-1.63783 -2.77049,-2.05334 -0.4662,-0.17464 -1.02433,-1.128 -1.59496,-1.19429 -0.5566,-0.064 -1.9871,0.39914 -1.4375,1.6028 0.24086,0.52619 1.75321,0.38354 2.88589,1.28777 0.55116,0.442 1.15295,0.16605 1.33929,0.94014 0.0756,0.30871 -0.0818,0.27363 -0.24715,0.29 -0.0974,0.01 -2.12659,-0.93933 -3.97335,-1.31508 -1.28785,-0.26117 -2.43145,-0.46773 -2.86019,0.71328 -0.0919,0.25257 0.16529,1.22002 -0.58624,0.97914 -0.71248,-0.22843 -1.87327,-0.36875 -2.31293,-0.0118 -0.16213,0.13249 -0.69224,0.69377 -0.81537,0.85594 -0.55659,0.75457 0.44586,1.41408 0.16213,1.65962 -0.12553,0.10757 -0.85052,-0.39288 -1.51311,-0.52069 -0.44511,-0.0858 -0.93471,0.38822 -1.11554,0.63143 -0.27754,0.37804 0.0111,0.46539 0.69767,1.10384 1.09917,1.02434 1.57784,1.2005 3.26792,1.99097 0.34297,0.16059 0.99703,0.57455 1.22698,0.94322 0.25415,0.40542 -0.28373,0.75387 -0.79122,0.4974 -1.03211,-0.5161 -5.43504,-2.64504 -4.84804,-0.17617 0.14033,0.59869 1.02743,1.38367 1.3455,1.53802 0.35629,0.16837 1.44294,0.30168 1.51391,0.85284 0.0772,0.61741 -1.5981,1.1584 -1.28473,2.17962 0.20113,0.66342 0.57847,1.16156 1.0103,0.94091 0.69149,-0.35157 1.93873,-1.88413 2.3114,-1.85765 1.10151,0.0818 2.74009,2.66682 3.87124,2.0245 1.319,-0.74602 1.15062,-1.7431 0.73744,-2.01906 -0.74212,-0.49498 -2.01512,-1.11321 -2.58187,-1.69471 -0.22218,-0.23076 0.20812,-0.55427 0.56595,-0.76322 0.86611,-0.50749 2.15705,1.51311 3.43863,2.58579 0.96038,0.80216 0.74603,0.89413 1.3221,1.46634 0.80994,0.80684 2.11023,0.55969 2.50705,-0.84115 0.15126,-0.53165 -2.39713,-2.45326 -3.37158,-3.10573 -1.2278,-0.82322 -1.94419,-1.0251 -1.96757,-1.6573 -0.0228,-0.70552 0.83723,-0.20972 0.85752,-0.19101 1.08824,0.98924 6.14517,1.4913 5.89108,-1.72435 -0.0865,-1.09531 0.83021,-1.20441 -0.21364,-1.99487 -0.0912,-0.071 -1.25353,-0.69306 -1.32836,-1.01497 -0.0718,-0.30718 0.42178,-0.8435 0.95733,-0.47709 0.73118,0.50046 1.80855,1.51386 1.96366,1.58871 1.50924,0.74912 2.60917,-0.771 0.81467,-1.70413 m -3.23436,-6.38218 c 0,0 -0.5987,-0.46925 -0.8942,-0.51368 -0.34922,-0.0896 -0.3882,0.12705 -0.70311,0.15667 -0.32899,-0.0374 -0.54725,0.21435 -0.6564,0.47475 -0.28689,0.67974 0.42488,1.50686 1.60039,2.06271 1.42741,0.67037 1.7844,-1.40086 0.65332,-2.18045 m 1.531,3.42847 c -0.70161,0.17229 -0.0491,0.90119 0.10448,1.04461 0.15435,0.14342 0.32508,0.10834 0.4654,0.20814 0.54099,0.39213 0.89413,1.06485 1.25662,1.11554 1.39074,0.19101 1.73377,-0.83957 0.8318,-1.73452 -0.54958,-0.54334 -1.577,-0.90272 -2.65829,-0.63377 m -33.15745,-31.12983 4.73811,-3.62334 1.21844,4.05832 z m 12.81506,0.83648 -3.97414,-0.29702 -1.75865,-5.85908 3.1525,-2.43536 -0.90822,-3.02857 -13.70293,10.58633 0.82087,2.73233 17.26705,1.28941 z m 39.93798,50.06046 c -0.11302,0.89647 -1.41407,1.51932 -2.33006,1.73529 -0.34379,0.0795 -0.74914,0.3843 -0.95809,0.43266 -0.55425,0.12939 -0.49422,-0.14349 0.0345,-0.68056 0.29542,-0.30017 0.94873,-0.96901 0.53395,-1.44454 -0.40533,-0.46614 0.28924,-1.63939 0.6712,-1.29017 0.69927,0.64004 2.07755,1.02667 2.04867,1.24732 m 2.07438,-5.361 c -0.23462,-0.42172 0.56987,-1.43361 -0.6174,-1.44061 -0.16447,0 -0.85045,-0.0959 -1.05549,0.0233 -0.20655,0.11775 -0.55818,0.90973 -0.64706,0.87547 -0.57448,-0.22299 -1.49357,-0.6595 -2.82117,-0.99551 -1.2551,-0.31414 -1.95745,-1.21452 -2.96073,-0.90581 -0.42172,0.12704 -0.76316,0.16055 -1.13659,0.42013 -0.64388,0.44516 -0.49345,1.42272 0.2448,1.87718 0.31723,0.19411 2.493,-0.14032 3.34111,0.0486 0.98459,0.21748 1.9902,0.49345 2.07989,0.9089 0.0421,0.20429 -0.19961,0.54959 -0.59794,0.83415 -1.44838,1.03211 -2.20301,0.53322 -2.98803,0.54022 -0.17307,0 -0.11694,-0.33284 0.16603,-0.48877 0.37654,-0.2058 1.09373,-0.27361 1.11946,-0.41394 0.0322,-0.17774 -1.11085,-0.57372 -2.1757,-0.64624 -0.4101,-0.0258 -0.73826,0.0521 -1.08672,0.12396 -1.03058,0.21048 -2.54522,1.89039 -3.14082,3.69817 -0.49345,1.49598 -1.16932,2.63023 -0.39914,3.28581 0.92068,0.78344 1.44376,-0.22609 2.09701,-1.90442 0.37184,-0.95575 1.25895,-1.47336 1.73686,-1.74154 0.19095,-0.10911 0.88319,-1.06643 2.13362,-0.2448 0.0538,0.0345 -0.038,0.3625 -0.41085,0.35162 -0.48328,-0.0141 -1.12022,0.25958 -1.241,0.54256 -0.14659,0.3422 0.0309,0.79514 -0.0251,1.27066 -0.0591,0.47632 -0.98299,0.36324 -0.34535,1.31432 0.0496,0.074 -0.55269,0.29858 -0.77562,0.15669 -0.10526,-0.0678 -0.045,-0.27206 -0.15669,-0.31806 -0.3446,-0.13722 -0.91055,0.66576 -1.00019,0.74445 -0.50825,0.46305 -1.27064,0.63143 -2.0728,0.84274 -1.36344,0.35389 -3.20945,0.99626 -4.25559,1.45148 -1.23638,0.54491 -1.03369,1.45622 0.29543,2.07755 0.59401,0.27748 2.26306,-0.44201 3.08702,-0.74919 0.58315,-0.2175 1.81637,-0.64465 2.34959,-0.49966 0.57063,0.15512 -1.8569,2.98096 -1.80854,3.41829 0.0826,0.75462 1.174,1.6028 1.68302,0.67745 0.23076,-0.42096 0.44124,-0.98924 0.7593,-1.63863 0.24789,-0.50198 0.68914,-1.02509 0.94639,-1.46476 0.36951,-0.62834 0.71796,-1.2496 0.89412,-1.18804 0.40383,0.1419 0.32818,0.81076 0.68599,1.73604 0.8435,2.17419 3.18607,4.55027 5.17626,5.52157 1.19113,0.58081 2.13052,0.0532 1.62613,-1.50452 -0.1146,-0.35389 -0.20423,-0.5987 -0.27597,-0.77175 -0.24321,-0.58542 -0.24397,0.0468 -1.37904,-0.79673 -0.32274,-0.23929 -1.63624,-1.6222 -2.34953,-2.22949 -0.34226,-0.29391 -0.86923,-1.06566 -1.19271,-1.81012 -0.20814,-0.47785 -0.79362,-0.72188 0.21282,-1.2075 0.60806,-0.29234 0.18474,-1.00019 0.7016,-1.09374 0.43808,-0.078 1.26988,-0.0468 1.83115,-0.17071 0.67821,-0.14968 1.54195,-0.64938 2.60369,-1.02744 0.99083,-0.35314 2.39244,-2.281 1.84209,-3.06288 -0.37575,-0.53554 -1.14359,-0.78812 -2.1001,-1.37435 -0.48493,-0.29778 -1.54042,0.29858 -1.01422,-0.44512 0.36092,-0.51292 0.41704,-0.75929 0.97446,-0.77877 0.87542,-0.0304 3.43624,1.36887 3.77611,-0.10834 0.27362,-1.19037 -1.83193,-0.81543 -2.33398,-1.71972 m 122.75682,-44.18186 -12.4487,-4.11989 -0.9354,2.82585 12.4494,4.11995 -1.4414,4.3561 2.8118,0.93161 3.812,-11.51945 -2.8118,-0.93003 z m -17.0122,7.35823 -1.3494,2.62865 6.4765,3.32398 5.2776,8.98119 1.5567,-3.034 -3.4354,-5.8295 6.729,-0.58853 1.6043,-3.12601 -10.4435,0.93704 z m 6.1226,-17.26787 15.7321,3.30528 0.6073,-2.8921 -15.7321,-3.30451 z m 17.1618,-13.62266 c -0.7233,-1.04695 -1.7945,-1.63162 -3.2124,-1.75557 -0.7626,-0.067 -1.5241,0.0322 -2.2849,0.29701 -0.3984,0.15826 -0.9036,0.57063 -1.5148,1.23639 -0.1551,0.18008 -0.3414,0.47474 -0.562,0.88477 -0.2573,0.47557 -0.4147,0.78502 -0.4739,0.93313 l -0.4825,1.03683 -0.4912,1.11788 -0.2261,0.47861 c -0.1668,0.33133 -0.329,0.59326 -0.4833,0.78659 -0.3032,0.47241 -0.7671,0.68056 -1.3923,0.62596 -0.58,-0.0514 -1.0103,-0.35232 -1.2925,-0.90273 -0.2822,-0.5511 -0.3874,-1.23014 -0.3165,-2.04082 0.086,-0.97369 0.3788,-1.94343 0.8778,-2.9101 0.5138,-0.95027 1.0867,-1.70256 1.7198,-2.25598 l -3.4317,-0.30169 c -1.2738,1.38365 -2.0058,3.15794 -2.1968,5.32587 -0.1442,1.64798 0.1777,3.05195 0.9674,4.21425 0.789,1.16307 1.9544,1.8117 3.4947,1.94653 1.4789,0.1302 2.6342,-0.25258 3.4659,-1.14746 0.7804,-0.8318 1.4282,-1.82497 1.945,-2.98262 0.1723,-0.38663 0.3859,-0.89336 0.6408,-1.52088 0.1801,-0.4693 0.3743,-0.84584 0.584,-1.1319 0.3187,-0.4841 0.707,-0.7047 1.1645,-0.66418 1.0525,0.0919 1.507,0.95416 1.3635,2.58813 -0.145,1.64641 -0.785,3.16104 -1.92,4.54009 l 3.2024,0.28221 c 1.0118,-1.37746 1.5926,-2.91086 1.7407,-4.59861 0.1473,-1.67448 -0.1481,-3.03557 -0.8856,-4.08171 m -36.7878,57.99471 c 0,0 -0.191,-0.19721 -0.2073,-0.20188 -0.4647,-0.16529 -0.3929,-1.46634 -0.3423,-1.51235 0.6564,-0.56204 1.6652,1.8811 0.5496,1.71423 m -0.3032,-5.65721 c 0.233,-0.79198 -0.028,-0.97598 0.1909,-1.32753 0.2745,-0.44434 0.9121,-0.33209 1.3853,0.0749 0.4444,0.38354 0.7546,1.04305 0.4475,1.42109 -0.3454,0.42879 -0.8747,-0.0795 -1.1101,0.14891 -0.2814,0.27205 -0.173,0.96745 0.2885,0.92068 0.3929,-0.0369 0.6556,0.39909 0.7608,0.85361 0.044,0.18942 -0.1349,0.61348 -0.064,0.78421 0.1021,0.2463 0.5862,0.3087 0.7063,0.54799 0.1161,0.23001 -0.2572,0.93161 -0.6688,0.89571 -0.6432,-0.0538 -0.5294,-1.31432 -0.796,-1.58093 -1.4009,-1.39852 -1.2466,-2.38309 -1.1405,-2.73857 m -0.9884,6.29648 c -0.3228,0.0897 -0.4389,0.26426 -0.7359,-0.12394 -0.6526,-0.85752 -0.7609,-1.99645 -0.4514,-2.42209 0.6587,-0.91131 0.6299,0.60963 0.6899,0.8076 0.1239,0.42644 0.8099,1.64874 0.4974,1.73843 m -0.4966,3.20548 c -0.2799,0.12243 -0.6237,-0.54566 -1.1202,-1.01732 -0.7173,-0.67972 -1.6387,-1.54193 -1.5686,-1.69235 0.1178,-0.25649 -0.01,-1.31825 0.269,-1.27306 0.4725,0.0796 0.9433,1.32292 1.2317,1.71038 0.4701,0.83099 0.7117,0.3001 0.9503,1.27299 0.1356,0.5535 0.6042,0.83647 0.2378,0.99936 m 3.4869,-2.37525 c 1.0703,-1.26603 1.7976,-2.65437 2.4236,-3.46121 0.343,-0.43657 0.8552,-0.76557 1.1678,-1.24575 0.3578,-0.54881 0.7569,0.15669 1.0921,0.0912 0.87,-0.17464 1.6566,-0.8466 1.6192,-1.52324 0.02,-0.43188 -0.3111,-1.09998 -1.1328,-1.49363 -1.5364,-0.73668 -2.6699,2.71676 -3.5679,2.43997 -0.1809,-0.0555 -0.2206,-1.22077 -0.2144,-1.23865 -0.054,-0.81309 -0.2495,-1.82808 -0.7772,-2.65905 -0.4397,-0.68992 -0.796,-0.61431 -1.2036,-0.86923 -0.3314,-0.20656 -0.5676,-0.52461 -1.0322,-0.57221 -1.1514,-0.11845 -1.6783,0.77334 -1.6456,1.54902 0.036,0.83022 0.7117,2.27 0.2635,2.8017 -0.4958,0.59009 -1.0135,0.5628 -1.2184,0.16991 -0.2916,-0.56129 -0.3477,-1.71892 -0.7126,-1.91923 -0.2058,-0.11225 -0.668,0.20733 -0.9354,0.71563 -0.2674,0.50983 0.2907,1.72277 -0.329,1.96446 -0.2837,0.10911 -0.6447,-0.48099 -0.9019,-0.41785 -0.718,0.17382 0.1138,2.08684 -0.308,2.62555 -0.7476,0.95027 -0.6306,1.57 -0.1816,2.4688 0.3313,0.65799 1.0937,1.58485 1.5053,2.34648 0.4725,0.87543 1.3354,1.40238 1.2668,1.83035 -0.077,0.46539 -0.2877,0.18242 -0.566,0.54959 -0.3967,0.53479 0.856,3.43397 2.5016,4.37562 0.3126,0.17932 1.1662,0.24089 1.4118,-0.23538 0.4521,-0.8708 -1.3588,-1.38063 -1.7127,-2.31918 -0.2361,-0.62834 1.1638,-2.37298 1.8694,-3.69432 0.3235,-0.60338 0.6688,-1.5162 1.3182,-2.27937 m -55.96257,-79.77317 21.51328,16.13513 v -6.79998 L 963.16328,86.318972 Z m 0,17.24132 21.51328,16.13127 v -6.78989 l -21.51328,-16.13671 z m -4.34054,69.91255 c -39.35799,-0.074 -71.19878,-31.90394 -71.27127,-71.27049 0.0725,-39.35721 31.91328,-71.19881 71.27127,-71.266631 39.35956,0.06781 71.19331,31.909421 71.26581,71.266631 -0.072,39.36655 -31.90625,71.1964 -71.26581,71.27049 m 0,-145.052694 c -40.74639,0.07169 -73.71283,33.035014 -73.7869,73.782204 0.074,40.75573 33.04051,73.7097 73.7869,73.7853 40.7472,-0.0756 73.70511,-33.02957 73.78151,-73.7853 -0.076,-40.74719 -33.03431,-73.710524 -73.78151,-73.782204 m -25.85068,74.033954 21.51328,-16.13513 v -6.796128 l -21.51323,16.136708 z m 68.20769,-4.87294 c 1.0531,0.78965 1.6721,2.02913 1.6721,3.34429 0,3.44559 -3.93205,5.41241 -6.68857,3.34427 l -2.80328,-2.10169 v 6.79536 l 7.81975,5.86453 c 1.0531,0.7897 1.6721,2.02919 1.6721,3.34509 0,3.44484 -3.93205,5.41165 -6.68857,3.34427 l -2.80328,-2.10243 v 6.79612 l 7.81975,5.86453 c 1.0531,0.7897 1.6721,2.02919 1.6721,3.34427 0,3.44484 -3.93205,5.41164 -6.68857,3.34509 l -33,-24.75232 v 6.78987 l 33.82396,25.36973 c 1.0524,0.7897 1.67215,2.02918 1.67215,3.34427 0,3.44483 -3.93281,5.41164 -6.68932,3.34503 l -28.80679,-21.60683 v 23.06696 c 0,2.39631 -1.9426,4.33897 -4.33895,4.33897 -2.39639,0 -4.33899,-1.94266 -4.33899,-4.33897 v -23.06696 l -28.80678,21.60683 c -2.75569,2.06661 -6.68931,0.0999 -6.68931,-3.34503 0,-1.31509 0.61974,-2.55457 1.67214,-3.34427 l 33.82395,-25.36973 v -6.78987 l -32.99688,24.74998 c -2.75729,2.06736 -6.69242,0.0998 -6.69242,-3.34586 0,-1.31743 0.62051,-2.55691 1.67447,-3.34661 l 7.82357,-5.86459 v -6.79614 l -2.80873,2.10795 c -2.75568,2.06656 -6.68931,0.0998 -6.68931,-3.34507 0,-1.31511 0.61974,-2.55459 1.67213,-3.34429 l 7.82591,-5.86921 v -6.79068 l -2.80797,2.10478 c -2.75728,2.06661 -6.69007,0.099 -6.69007,-3.34661 0,-1.31591 0.62051,-2.55539 1.67366,-3.34586 L 954.48579,75.867506 V 69.076813 L 921.4858,93.829139 c -2.75568,2.067351 -6.68931,0.100523 -6.68931,-3.344285 0,-1.315079 0.61974,-2.554566 1.67213,-3.344272 l 7.82591,-5.869205 v -9.742815 c 0,-2.39636 1.94266,-4.339783 4.3382,-4.339783 2.39711,0 4.33978,1.943423 4.33978,4.339783 v 3.228103 l 21.51328,-16.130459 v -8.182953 c 0,-2.396362 1.9426,-4.339782 4.33899,-4.339782 2.39635,0 4.33895,1.94342 4.33895,4.339782 v 8.182953 l 21.51302,16.135896 V 71.53166 c 0,-2.398699 1.94424,-4.342881 4.34213,-4.342881 2.39786,0 4.34129,1.944182 4.34129,4.342881 v 9.739737 l 7.81973,5.863765 c 1.0531,0.790465 1.6721,2.029185 1.6721,3.344275 0,3.445611 -3.93203,5.412413 -6.68855,3.345034 L 963.16328,69.076833 v 6.790693 z M 958.82507,41.924295 c -37.04271,0.06472 -67.01101,30.03224 -67.07882,67.073355 0.0678,37.04821 30.03611,67.00712 67.07882,67.07577 37.04429,-0.0686 67.00563,-30.02756 67.07423,-67.07577 -0.069,-37.041115 -30.02994,-67.008632 -67.07423,-67.073355 m 67.86313,135.091595 c -0.4287,-0.60261 -0.2393,-0.67119 -0.4669,-0.87781 -0.4506,-0.40612 -0.8536,-0.357 -0.8405,-0.57215 0.039,-0.69148 0.8865,-1.23715 1.0244,-1.41337 0.2184,-0.28139 0.8513,-0.83408 0.9705,-1.38682 0.23,-1.07344 -1.3813,-1.21452 -1.7882,-0.98066 -0.3493,0.2027 -1.3619,2.21629 -2.111,3.07376 -0.2846,0.32741 -0.5302,0.26274 -0.711,0.0974 -0.6267,-0.56595 1.2824,-2.38543 0.6229,-2.98179 -0.9776,-0.88325 -1.9723,-0.54648 -2.7534,0.56596 0,0 -0.9075,1.42348 -1.8413,2.59047 -0.7858,0.97831 -1.1826,2.84147 -0.3158,3.18443 0.9254,0.36565 1.6644,-0.49422 1.8546,-1.50061 0.062,-0.34068 -0.046,-0.38043 -0.113,-0.67434 -0.082,-0.36249 0.2011,-0.51059 0.1964,-0.71482 -0.016,-0.61039 -0.071,-0.96042 0.3961,-0.91598 0.1745,0.0186 0.5698,0.72966 0.6602,0.92921 0.1661,0.37732 0.336,1.03525 0.159,1.49205 -0.5932,1.52563 -1.464,3.02779 -0.8286,3.83855 0.1458,0.18476 1.0625,0.26661 1.4024,0.0896 0.3874,-0.20581 0.3072,-0.57609 0.5558,-1.38291 0.098,-0.31262 0.7312,-0.68605 0.8342,-0.95732 0.1831,-0.48645 0.1902,-1.33303 0.4513,-1.27376 0.5247,0.12004 1.2543,1.15764 1.404,2.31912 0.091,0.69541 0,1.48664 -0.3555,1.75716 -0.1325,0.0982 -0.7422,0.92529 -0.258,1.49516 0.5565,0.6509 1.1849,0.55268 1.5139,0.3726 1.4476,-0.78344 1.0773,-2.37373 0.9783,-4.03026 -0.052,-0.87232 -0.3812,-1.77579 -0.6408,-2.14296 m 25.0549,-78.30206 0.275,3.54381 c 0.051,0.67277 -0.078,1.21143 -0.3928,1.61683 -0.3141,0.40378 -0.7772,0.62987 -1.3869,0.67821 -0.6266,0.0486 -1.1217,-0.10371 -1.4865,-0.45527 -0.3656,-0.35156 -0.5738,-0.86374 -0.626,-1.53808 l -0.2752,-3.54381 z m -13.1432,1.02041 6.4803,-0.50281 0.1933,2.49224 -6.153,4.70772 0.2674,3.44092 6.4999,-4.9821 c 0.3929,0.90973 1.0025,1.59655 1.8304,2.06579 0.8271,0.46772 1.775,0.66032 2.8438,0.5769 1.4039,-0.10922 2.5062,-0.64391 3.3076,-1.60433 0.8162,-0.94791 1.1654,-2.19208 1.0462,-3.73015 l -0.5184,-6.6761 -16.0276,1.24498 z m -147.06495,-34.620551 -13.61331,-8.550122 -1.57157,2.502362 13.61254,8.550881 z m 137.13255,4.3109 13.8316,-8.193066 -1.5069,-2.542936 -13.8308,8.193125 z m -9.134,-13.026304 8.0925,-6.428203 -3.5158,12.189888 1.5295,1.926231 12.5883,-9.998508 -1.8001,-2.266915 -8.0558,6.399318 3.5181,-12.112651 -1.5809,-1.989435 -12.5883,9.998507 z m -124.53033,3.720798 -7.91944,-6.639441 12.64744,1.000945 1.57936,-1.884955 -12.31922,-10.327498 -1.85922,2.217044 7.88436,6.609797 -12.57185,-1.018075 -1.63237,1.9481 12.31926,10.327499 z M 1015.7573,50.106487 c 1.6971,-0.169203 3.2788,-1.096829 4.7444,-2.786155 l 6.1109,-7.040111 -2.2475,-1.952015 -6.1873,7.127457 c -0.8123,0.937801 -1.6581,1.464759 -2.5366,1.584848 -0.8794,0.118453 -1.694,-0.147335 -2.4424,-0.797481 -0.739,-0.64161 -1.1116,-1.405531 -1.1179,-2.291882 -0.01,-0.887167 0.3984,-1.798424 1.2115,-2.735465 l 6.1865,-7.128218 -2.2318,-1.937166 -6.1118,7.04087 c -1.4647,1.689326 -2.1663,3.380934 -2.1055,5.075698 0.062,1.695525 0.7733,3.134557 2.1367,4.317156 1.3736,1.192713 2.9039,1.700961 4.5908,1.522464 M 933.2472,20.451532 c 0.587,-1.172426 1.50223,-1.915359 2.74482,-2.225581 1.23013,-0.308702 2.37999,-0.08343 3.45028,0.674292 1.0711,0.758484 1.79065,1.870924 2.15857,3.341178 0.368,1.471012 0.25884,2.792353 -0.32817,3.965538 -0.587,1.172485 -1.49516,1.912259 -2.72452,2.221722 -1.24342,0.310282 -2.39947,0.0881 -3.47057,-0.670375 -1.05316,-0.746849 -1.76568,-1.861569 -2.13829,-3.347433 -0.37184,-1.484227 -0.26895,-2.804046 0.30788,-3.959341 m 0.25024,9.928406 c 1.77036,1.229313 3.70525,1.580929 5.80377,1.055493 2.08533,-0.522281 3.61867,-1.742298 4.6009,-3.661573 0.99241,-1.937166 1.20757,-4.027163 0.64547,-6.269933 -0.56514,-2.257561 -1.73996,-3.999098 -3.52435,-5.225313 -1.77113,-1.228553 -3.69894,-1.583269 -5.78425,-1.06099 -2.09855,0.525439 -3.63895,1.748554 -4.62119,3.667012 -0.99001,1.889631 -1.19815,3.97805 -0.62518,6.265254 0.56514,2.256802 1.73294,3.999918 3.50483,5.23005 m 69.51186,7.85472 -6.46949,-3.461208 6.18569,-11.561488 -2.6247,-1.404011 -7.58273,14.173823 9.09353,4.865162 z m -97.80257,2.528086 -3.26711,2.69647 -1.91068,-5.657966 z m -0.97599,9.173021 -1.26913,-3.776167 4.7179,-3.895437 3.46822,1.96137 2.4384,-2.01358 -15.07415,-8.519719 -2.19916,1.814795 5.51069,16.415776 z m 17.17276,-12.080728 -4.41462,-9.343684 11.06809,6.201292 2.22329,-1.050055 -6.8671,-14.536257 -2.61614,1.23633 4.3951,9.302407 -10.99168,-6.185742 -2.2989,1.086715 6.86787,14.533918 z m 116.6622,57.105258 2.8727,-0.724211 -1.927,-7.634895 4.0084,-1.011876 1.5069,5.972153 2.8282,-0.713278 -1.5077,-5.972166 3.0067,-0.759302 1.871,7.415107 2.8726,-0.724223 -2.5997,-10.300948 -15.5864,3.932798 z m -71.265,-76.984579 2.67777,5.569095 1.63939,0.218255 3.9804,-4.682747 -1.4523,10.904387 2.91003,0.387397 2.12192,-15.93559 -2.90928,-0.386638 -5.03821,6.047759 -3.28039,-7.155522 -2.92875,-0.390554 -2.12274,15.935589 2.95062,0.392895 z m 21.60216,3.570306 0.20656,5.96123 -4.01312,-1.358758 z m -8.1081,9.958808 2.54444,-3.065976 5.79437,1.962132 0.15752,3.981149 2.99499,1.014976 -0.68676,-17.301364 -2.70194,-0.915994 -11.05869,13.324133 z m -112.25235,94.21268 c 0.76006,-0.0928 1.48504,-0.34694 2.17418,-0.76397 0.35625,-0.23856 0.76474,-0.74603 1.22546,-1.52405 0.11301,-0.20814 0.23538,-0.53473 0.36635,-0.98142 0.15283,-0.51841 0.24246,-0.85595 0.26976,-1.01111 l 0.25802,-1.11396 0.24713,-1.19663 0.12238,-0.51526 c 0.0951,-0.35782 0.19879,-0.64859 0.31028,-0.86998 0.19878,-0.52386 0.60957,-0.82397 1.23165,-0.89963 0.57846,-0.0709 1.06175,0.13488 1.4523,0.6143 0.39056,0.48019 0.63377,1.12332 0.732,1.93015 0.11851,0.97055 0.0334,1.98084 -0.25567,3.02939 -0.30479,1.03601 -0.70938,1.89196 -1.21376,2.56315 l 3.41911,-0.41628 c 0.9596,-1.61601 1.30806,-3.50411 1.04462,-5.6658 -0.19961,-1.64174 -0.80608,-2.94903 -1.82029,-3.92268 -1.01182,-0.97211 -2.28639,-1.36577 -3.82137,-1.17867 -1.4741,0.18083 -2.52574,0.79356 -3.1525,1.84286 -0.59168,0.97363 -1.01965,2.08057 -1.28545,3.32088 -0.0881,0.41313 -0.19177,0.95336 -0.31027,1.62069 -0.0787,0.49497 -0.19102,0.90424 -0.33677,1.22697 -0.21124,0.53871 -0.54566,0.83648 -1.0017,0.89185 -1.04931,0.12781 -1.67297,-0.62132 -1.87017,-2.24826 -0.20036,-1.6425 0.11226,-3.25541 0.93704,-4.84178 l -3.19227,0.3898 c -0.70392,1.55673 -0.95417,3.1774 -0.74918,4.85891 0.20346,1.66827 0.77491,2.93891 1.71348,3.80965 0.92377,0.8739 2.09234,1.22312 3.50564,1.05088 m 3.66234,-32.676474 c 2.34408,0.592476 4.4715,0.361715 6.37984,-0.691434 1.87794,-1.060988 3.0917,-2.679341 3.64128,-4.858208 0.38512,-1.52246 0.34145,-2.94746 -0.12786,-4.273477 l -3.22969,-0.816191 c 0.64629,1.257436 0.77492,2.655133 0.38746,4.191629 -0.3508,1.389979 -1.11477,2.411973 -2.28955,3.066799 -1.19504,0.664933 -2.53433,0.809925 -4.01855,0.434172 -1.48429,-0.373375 -2.59048,-1.121742 -3.3178,-2.24354 -0.7351,-1.152189 -0.93622,-2.390101 -0.60179,-3.7122 0.34688,-1.375947 1.05783,-2.503179 2.13285,-3.382514 l -3.22891,-0.81619 c -0.93313,0.944057 -1.57158,2.097014 -1.91537,3.45969 -0.5535,2.191319 -0.25567,4.199403 0.89494,6.024371 1.15296,1.811646 2.91783,3.017626 5.29315,3.617093 m 161.25335,-14.613444 17.25,-0.856766 -1.2824,-2.957579 -12.3053,0.717149 8.9423,-8.473707 -1.3081,-3.015284 -12.4144,12.007411 z m -167.57942,29.673598 13.10816,0.3477 0.0795,-2.97477 -13.10892,-0.34845 0.12163,-4.58611 -2.96155,-0.0787 -0.32117,12.12825 2.9615,0.0787 z m 18.88773,-29.202768 -6.42346,-2.908526 2.69413,-5.948719 6.42271,2.908468 1.21919,-2.69413 -14.64383,-6.629266 -1.21926,2.691791 5.48104,2.482072 -2.69488,5.950297 -5.48029,-2.482833 -1.22779,2.711262 14.64389,6.630844 z m 69.79096,-63.241133 c 0.67353,-0.03741 1.20908,0.104486 1.60742,0.427214 0.3968,0.322736 0.61272,0.789706 0.6478,1.401615 0.0351,0.625999 -0.12787,1.118695 -0.4872,1.475691 -0.35939,0.357053 -0.87624,0.55426 -1.54977,0.592497 l -3.55007,0.199546 -0.2175,-3.897776 z m -2.81264,13.359973 -0.36326,-6.489005 2.49686,-0.139501 4.57365,6.251982 3.44562,-0.193347 -4.8418,-6.60588 c 0.91834,-0.371846 1.61911,-0.968203 2.10557,-1.785212 0.48568,-0.816191 0.69775,-1.759428 0.6377,-2.828953 -0.078,-1.407871 -0.58934,-2.52107 -1.5326,-3.342756 -0.93002,-0.837239 -2.1656,-1.212942 -3.70676,-1.126413 l -6.68546,0.374945 0.89962,16.049424 z"
       id="path100" /></g></svg>
