<?xml version="1.0" encoding="UTF-8" standalone="no"?>
<!-- Created with Inkscape (http://www.inkscape.org/) -->

<svg
   version="1.1"
   id="svg1"
   width="652.67773"
   height="218.02588"
   viewBox="0 0 652.67775 218.02588"
   xmlns="http://www.w3.org/2000/svg"
   xmlns:svg="http://www.w3.org/2000/svg">
  <defs
     id="defs1" />
  <g
     id="layer-MC0"
     transform="translate(-9551.7683,-5786.3032)">
    <g
       id="g443"
       transform="translate(226.21454,150.01596)">
      <path
         style="fill:#a32136;fill-opacity:1;fill-rule:nonzero;stroke:none"
         d="m -54.188,119.332 c 2.941,-0.72 7.376,0.306 7.636,-0.351 1.058,-2.672 -1.627,-6.405 -3.854,-8.415 -0.836,-0.746 -1.504,-2.214 -2.015,-2.664 -1.348,-1.213 -1.596,-0.358 -0.942,1.952 0.365,1.287 1.167,4.15 -0.72,4.853 -1.845,0.678 -1.7,5.016 -0.105,4.625 M -76.79,77.279 c 2.087,0.135 5.643,4.693 7.48,6.813 1.292,1.498 4.082,4.574 5.788,4.987 1.83,0.44 -0.618,-11.163 0.178,-12.313 1.388,-1.979 5.737,-2.681 5.74,0.687 0.002,1.524 -0.284,3.438 -0.388,5.732 -0.074,1.784 0.359,3.919 0.406,5.54 0.064,2.323 0.09,4.587 0.684,4.684 1.336,0.222 2.149,-1.762 4.57,-3.792 5.676,-4.782 15.852,-7.843 22.896,-7.509 4.219,0.2 6.029,3.113 2.242,6.686 -0.865,0.814 -1.487,1.361 -1.952,1.733 -1.576,1.267 -0.61,-0.503 -5.072,0.118 -1.268,0.177 -7.05,2.024 -9.972,2.633 -1.4,0.304 -4.052,1.647 -6.101,3.226 -1.305,1.019 -3.316,0.806 -1.249,3.702 1.249,1.743 -1.014,3.076 0.29,4.123 1.102,0.892 3.47,2.072 4.853,3.279 1.656,1.458 3.305,4.17 5.696,6.851 2.232,2.507 3.192,10.032 0.462,11.374 -1.873,0.916 -4.406,0.447 -7.969,0.626 -1.808,0.086 -3.844,-3.19 -3.513,-0.309 0.224,1.985 0.003,2.754 1.528,3.664 2.402,1.42 11.693,1.434 10.38,6.082 -1.055,3.742 -6.36,-0.536 -9.143,1.231 -1.303,0.814 -0.601,4.872 -3.935,3.078 -0.459,-0.245 -2.512,-1.038 -2.908,-1.68 -0.394,-0.646 -0.168,-3.394 -0.466,-3.435 -1.941,-0.25 -5.183,-0.449 -9.399,-1.535 -3.99,-1.039 -7.323,0.396 -9.657,-2 -0.98,-0.998 -1.885,-1.617 -2.533,-2.913 -1.115,-2.219 0.8,-4.723 3.556,-4.863 1.19,-0.059 6.747,4.201 9.407,4.974 3.079,0.894 6.313,1.668 7.195,0.638 0.43,-0.504 0.283,-1.839 -0.395,-3.241 -2.469,-5.092 -5.335,-4.855 -7.516,-6.075 -0.482,-0.27 -0.835,0.75 -0.284,1.619 0.739,1.147 2.638,2.43 2.494,2.863 -0.186,0.548 -3.979,-0.092 -7.063,-1.523 -1.184,-0.548 -1.984,-1.271 -2.844,-2.002 -2.56,-2.167 -4.218,-9.174 -3.119,-15.134 0.913,-4.931 0.756,-9.139 3.915,-9.79 3.765,-0.775 3.686,2.838 2.944,8.524 -0.425,3.247 1.257,6.048 2.184,7.527 0.366,0.595 0.832,4.328 5.583,3.945 0.201,-0.019 0.444,-1.072 -0.609,-1.608 -1.371,-0.701 -2.734,-2.441 -2.634,-3.412 0.121,-1.186 1.297,-2.171 1.866,-3.589 0.571,-1.422 -2.186,-2.518 1.054,-4.199 0.249,-0.13 -1.089,-1.678 -1.929,-1.623 -0.394,0.026 -0.541,0.687 -0.921,0.647 -1.178,-0.141 -1.529,-3.254 -1.657,-3.614 -0.708,-2.063 -2.584,-3.701 -4.505,-5.513 -3.263,-3.08 -7.438,-7.699 -9.652,-10.561 -2.627,-3.413 -0.666,-5.648 3.994,-5.353"
         transform="matrix(1.3333333,0,0,-1.3333333,9529.0714,5829.585)"
         id="path442" />
      <path
         style="fill:#a32136;fill-opacity:1;fill-rule:nonzero;stroke:none"
         d="m 187.76,112.729 c 2.887,1.836 4.755,4.734 2.129,6.713 -0.969,0.729 -1.314,1.173 -3.652,1.098 -3.974,-0.113 -3.507,-2.158 -6.213,-2.325 -1.17,-0.07 0.006,4.308 2.27,4.814 4.74,1.069 10.161,3.566 10.949,7.775 0.648,3.451 0.302,6.765 -5.457,5.304 -3.008,-0.759 -7.03,-2.075 -10.79,-5.619 -4.838,-4.553 -9.206,-10.159 -13.869,-12.472 -3.011,-1.502 -2.52,0.085 -5.513,-0.609 -8.337,-1.949 -13.859,-4.881 -12.634,-9.29 0.852,-3.067 3.881,-3.91 5.582,-4.251 2.091,-0.408 3.957,0.514 3.735,-0.656 -0.221,-1.167 -4.023,-4.664 -6.585,-7.729 -1.021,-1.225 -4.075,-3.663 -7.31,-5.106 -5.41,-2.399 -7.074,-3.299 -6.798,-5.098 0.333,-2.196 2.554,-3.134 4.958,-2.854 2.693,0.305 14.999,7.021 23.173,17.346 1.459,1.838 4.114,3.462 5.565,4.81 1.976,1.834 2.246,3.576 4.313,4.447 6.212,2.621 12.478,1.373 16.147,3.702"
         transform="matrix(1.3333333,0,0,-1.3333333,9529.0714,5829.585)"
         id="path441" />
      <path
         style="fill:#a32136;fill-opacity:1;fill-rule:nonzero;stroke:none"
         d="m 194.735,95.32 c -3.512,-0.158 -6.99,1.218 -9.218,1.844 -6.764,1.896 -10.42,6.624 -12.144,7.068 -1.717,0.448 -3.051,-3.705 -2.842,-6.161 0.59,-7.01 11.863,-10.837 18.966,-12.297 2.74,-0.559 6.539,0.419 9.274,0.601 2.89,0.192 5.276,-0.566 5.943,0.987 0.67,1.556 1.576,1.492 1.333,3.112 -0.553,3.758 -5.264,5.113 -11.312,4.846"
         transform="matrix(1.3333333,0,0,-1.3333333,9529.0714,5829.585)"
         id="path440" />
      <path
         style="fill:#a32136;fill-opacity:1;fill-rule:nonzero;stroke:none"
         d="m -131.081,138.043 c 5.059,1.615 1.195,7.547 -3.377,6.878 0,0 -2.559,-0.213 -3.391,-0.78 -1.063,-0.577 -0.669,-1.202 -1.374,-1.995 -0.895,-0.666 -0.858,-1.782 -0.531,-2.678 0.846,-2.338 4.499,-2.742 8.673,-1.425"
         transform="matrix(1.3333333,0,0,-1.3333333,9529.0714,5829.585)"
         id="path439" />
      <path
         style="fill:#a32136;fill-opacity:1;fill-rule:nonzero;stroke:none"
         d="m -120.177,137.636 c 0.709,-0.005 1.053,0.473 1.624,0.545 2.239,0.278 4.653,-0.577 5.657,0.129 3.871,2.716 2.359,6.05 -1.917,6.184 -2.603,0.088 -5.965,-1.386 -8.015,-4.523 -1.333,-2.034 1.942,-2.335 2.651,-2.335"
         transform="matrix(1.3333333,0,0,-1.3333333,9529.0714,5829.585)"
         id="path438" />
      <path
         style="fill:#a32136;fill-opacity:1;fill-rule:nonzero;stroke:none"
         d="m 71.664,119.895 c 0.424,0.098 0.688,0.507 0.989,0.982 0.529,0.817 1.184,1.842 2.982,1.838 0.847,0 1.346,-0.656 1.925,-1.409 0.698,-0.916 1.494,-1.954 3.09,-1.817 1.613,0.137 3.079,1.952 4.37,3.556 l 0.976,1.171 c 1.668,1.868 9.226,8.288 11.789,8.784 1.23,0.239 1.971,0.213 2.326,-0.088 0.4,-0.338 0.383,-1.062 0.354,-2.059 l -0.017,-0.856 c -10e-4,-0.88 0.562,-1.378 1.057,-1.814 0.436,-0.389 0.815,-0.727 0.72,-1.239 -0.21,-1.197 -1.275,-1.733 -2.403,-2.304 -1.116,-0.559 -2.258,-1.144 -2.577,-2.408 -0.386,-1.546 -0.176,-2.977 0.567,-3.82 0.571,-0.642 1.427,-0.918 2.475,-0.796 1.475,0.182 2.359,1.6 3.306,3.097 0.586,0.934 1.196,1.903 1.984,2.665 1.159,1.124 2.178,1.239 3.257,1.362 0.92,0.103 1.879,0.21 2.88,1.021 0.915,0.741 1.394,1.707 1.357,2.724 -0.05,1.229 -0.835,2.435 -2.218,3.388 -1.929,1.328 -3.138,0.196 -3.936,-0.561 -0.286,-0.27 -0.558,-0.527 -0.721,-0.507 l -0.162,0.12 c -0.976,1.39 -0.118,2.637 0.791,3.969 0.44,0.637 0.891,1.299 1.145,1.985 0.337,0.942 0.275,1.711 -0.176,2.233 -0.663,0.781 -2.125,0.959 -4.333,0.531 -0.95,-0.179 -1.792,-0.858 -2.677,-1.571 -0.863,-0.698 -1.752,-1.414 -2.814,-1.743 -2.86,-0.88 -4.875,-2.145 -6.501,-3.164 -1.179,-0.751 -2.114,-1.336 -2.949,-1.483 -0.592,-0.107 -1.655,-0.023 -2.774,0.068 -1.975,0.152 -4.215,0.332 -5.142,-0.393 l -1.543,-1.636 c -0.689,-0.821 -1.403,-1.674 -1.903,-1.698 l -0.317,0.137 c -0.701,0.703 0.183,2.003 1.044,3.269 l 0.332,0.491 c 1.173,1.77 2.623,2.748 3.906,3.607 0.779,0.531 1.456,0.982 1.927,1.533 0.833,0.97 0.995,2.14 0.435,3.205 -0.601,1.16 -1.915,1.884 -3.186,1.746 -2.355,-0.241 -6.281,-3.764 -8.204,-5.93 -1.158,-1.306 -2.041,-2.746 -2.89,-4.137 -0.934,-1.527 -1.811,-2.97 -3.011,-4.199 -1.271,-1.306 -0.916,-3.538 -0.006,-5.18 0.831,-1.502 2.505,-3.099 4.476,-2.67"
         transform="matrix(1.3333333,0,0,-1.3333333,9529.0714,5829.585)"
         id="path437" />
      <path
         style="fill:#a32136;fill-opacity:1;fill-rule:nonzero;stroke:none"
         d="m 123.131,98.332 c -2.443,0.34 -3.227,-2.617 -3.856,-4.998 l -0.533,-1.796 c -1.31,-3.479 -8.155,-6.156 -13.932,-6.911 l -1.567,-0.231 c -2.796,-0.439 -4.999,-0.784 -7.78,1.192 -1.21,0.862 -1.839,3.725 -1.397,6.377 0.352,2.1 1.298,3.524 2.587,3.907 0.561,0.167 0.662,-0.038 0.835,-0.369 0.41,-0.789 0.997,-1.337 4.079,-0.055 0.267,0.112 0.496,0.723 0.903,1.888 0.337,0.968 0.72,2.059 1.156,2.691 l 1.42,1.827 0.956,1.276 c 0.908,2.195 0.64,4.5 -0.729,6.329 -1.529,2.034 -4.145,3.07 -7.011,2.765 -4.237,-0.45 -8.548,-2.685 -12.36,-4.659 -3.878,-2.005 -7.232,-3.749 -9.76,-3.357 -0.9,0.143 -1.482,0.71 -1.994,1.212 -0.477,0.466 -0.931,0.92 -1.541,0.843 -0.863,-0.103 -1.928,-1.257 -3.56,-3.858 -0.324,-0.526 -0.585,-1.565 -0.89,-2.768 -0.494,-1.945 -1.104,-4.36 -2.176,-4.878 -0.293,-0.138 -0.6,-0.133 -0.952,0.018 -0.356,0.164 -0.583,0.422 -0.672,0.794 -0.415,1.619 1.741,4.6 1.764,4.626 0.017,0.027 0.932,2.749 0.932,2.749 0.223,0.853 0.436,1.655 0.809,2.283 2.14,3.639 5.794,3.86 9.658,4.095 2.002,0.121 5.233,2.029 5.804,2.609 1.137,1.141 0.015,2.774 -0.884,4.077 l -0.167,0.241 c -1.493,2.187 -3.195,2.938 -5.214,2.307 -1.68,-0.537 -3.925,-2.221 -6.518,-4.175 -1.97,-1.487 -4.004,-3.019 -6.052,-4.24 l -0.719,-0.416 c -4.209,-2.412 -9.056,-5.428 -9.167,-7.337 -0.022,-0.371 0.137,-0.686 0.466,-0.932 1.377,-1.015 3.131,0.36 4.679,1.583 1.186,0.934 2.305,1.812 2.862,1.248 0.197,-0.194 0.284,-0.383 0.284,-0.603 -0.002,-0.428 -0.357,-0.973 -1.087,-1.657 l -0.327,-0.314 c -0.88,-0.805 -1.699,-1.561 -2.472,-4.104 -1.085,-3.566 -0.483,-4.505 0.519,-6.064 l 1.007,-1.712 c 0.429,-0.859 0.261,-2.084 0.148,-2.894 l -0.018,-0.923 c 0.675,-1.118 1.344,-1.148 1.834,-1.171 0.395,-0.021 0.632,-0.032 0.821,-0.507 0.438,-1.108 -0.306,-3.502 -0.847,-3.721 -0.036,-0.009 -0.145,-0.053 -0.275,0.25 -0.32,0.775 -1.676,0.787 -2.186,0.789 -1.38,0.023 -1.992,-1.012 -2.531,-1.929 l -0.403,-0.658 c -2.264,-3.227 -0.735,-5.321 1.059,-6.943 1.07,-0.965 1.993,-1.797 4.365,-1.065 2.033,0.627 2.869,3.702 3.743,6.957 l 0.293,1.049 c 0.835,3.041 1.808,5.581 2.654,6.981 1.035,1.71 1.118,3.148 1.176,4.301 l 0.237,1.628 c 0.738,1.971 2.012,2.558 3.62,3.304 0.843,0.393 1.795,0.832 2.783,1.539 l 2.274,1.675 c 2.772,2.076 4.965,3.714 8.555,4.949 1.187,0.414 2.457,1.151 3.679,1.862 1.673,0.975 3.403,1.986 5.021,2.235 l 0.326,0.051 c 1.432,0.228 4.088,0.656 4.804,-0.367 0.228,-0.31 0.665,-2.658 0.04,-3.635 -0.224,-0.345 -0.551,-0.474 -1.001,-0.388 -0.761,0.148 -0.784,0.598 -0.753,1.325 0.024,0.487 0.046,0.991 -0.334,1.31 -0.671,0.57 -3.143,0.579 -3.17,0.579 -0.938,-0.004 -1.809,-0.937 -2.824,-2.022 -0.73,-0.773 -1.563,-1.662 -2.52,-2.286 -3.539,-2.316 -5.066,-7.345 -4.732,-11.128 0.383,-4.346 2.332,-6.266 3.493,-7.419 l 0.692,-0.75 c 2.57,-3.82 6.466,-7.097 17.483,-5.291 7.243,1.193 13.208,4.268 16.374,8.436 1.447,1.906 2.192,7.376 0.97,10.349 -0.5,1.203 -1.253,1.881 -2.253,2.025"
         transform="matrix(1.3333333,0,0,-1.3333333,9529.0714,5829.585)"
         id="path436" />
      <path
         style="fill:#a32136;fill-opacity:1;fill-rule:nonzero;stroke:none"
         d="m -7.008,117.527 c 1.239,3.101 1.504,5.475 2.57,7.525 1.334,2.589 3.49,3.963 4.116,3.457 1.213,-0.959 -0.905,-2.736 -0.785,-3.871 0.357,-3.262 -0.204,-3.376 -0.8,-5.051 -0.427,-1.189 1.863,-1.859 0.191,-2.703 -3.247,-1.646 -3.628,-4.418 -3.887,-5.96 -0.122,-0.73 -1.021,-0.664 -1.272,0 -0.58,1.516 -1.054,4.294 -0.133,6.603 M -7.562,92.054 c 2.219,0.298 -0.383,8.231 -0.409,12.087 -0.008,1.572 0.076,3.091 1.158,3.968 0.343,0.274 0.544,1.063 1.281,0.852 0.744,-0.205 0.019,-2.632 1.107,-2.435 1.933,0.34 2.502,2.902 4.189,2.299 1.327,-0.476 -0.047,-2.844 -1.327,-4.444 -2.516,-3.124 -3.003,-8.152 1.348,-8.494 1.85,-0.15 3.479,2.653 3.897,5.244 0.322,2.026 -0.104,3.208 0.3,4.825 0.335,1.276 1.319,1.717 1.845,3.286 0.504,1.494 0.797,3.177 1.635,4.991 0.963,2.104 2.501,4.337 3.465,6.064 1.085,1.933 1.974,3.785 3.343,5.033 1.359,1.248 3.498,2.293 5.042,1.621 1.104,-0.481 -2.49,-3.591 -4.498,-6.319 -2.808,-3.819 -4.002,-8.231 -3.774,-13.574 0.086,-2.162 0.064,-8.162 1.691,-9.141 1.181,-0.726 2.123,-0.903 3.415,-0.517 3.17,0.95 0.84,6.815 2.227,9.738 0.299,0.633 0.478,1.743 1.52,1.408 1.039,-0.341 0.793,-12.986 0.534,-20.435 -0.181,-5.097 0.406,-9.202 0.816,-13.13 0.176,-1.647 0.407,-3.2 2.859,-3.204 3.473,-0.006 3.382,7.415 3.314,12.011 -0.054,3.813 0.13,9.538 1.362,11.722 1.358,2.416 5.278,4.558 7.723,5.621 2.515,1.08 4.104,4.595 5.362,6.098 1.706,2.029 2.431,7.952 2.466,10.035 0.053,2.864 -1.08,4.08 -3.448,4.642 -3.642,0.873 -8.573,-3.418 -10.39,-1.747 -0.752,0.696 0.356,2.564 0.36,3.749 0.004,1.913 -1.384,3.348 -2.927,3.447 -0.998,0.071 -1.207,1.305 -0.097,1.612 1.586,0.445 2.406,0.413 4.076,0.561 3.152,0.293 4.91,0.813 6.297,3.923 0.428,0.948 -0.204,2.754 -1.637,3.446 -1.838,0.886 -6.98,0.08 -12.331,-1.043 -5.773,-1.213 -11.892,-2.208 -12.713,-4.535 -0.406,-1.133 -1.4,-2.538 -1.802,-3.97 -0.593,-2.073 -0.813,-3.905 -1.759,-4.863 -2.969,-3.013 -3.029,-8.094 -4.003,-6.561 -0.666,1.051 -2.331,0.647 -3.386,0.686 -0.495,0.023 -0.676,1.335 -0.231,1.917 0.438,0.586 0.599,0.149 1.313,0.61 1.945,1.246 4.078,3.977 4.201,5.641 0.3,4.188 1.335,7.517 -0.883,9.486 -1.904,1.695 -4.711,2.054 -7.467,1.711 -1.442,-0.179 -3.732,-0.828 -5.102,-1.749 -2.358,-1.571 -2.64,-4.936 -3.459,-9.075 -0.334,-1.694 -1.424,-3.941 -1.631,-6.527 -0.261,-3.291 -0.502,-7.859 -0.567,-10.203 -0.153,-5.279 0.3,-8.863 2.157,-12.22 0.969,-1.754 0.851,-4.507 3.538,-4.148 m 30.624,32.394 c 0.87,-0.485 -1.002,-2.863 -2.283,-6.09 -0.938,-2.367 -2.51,-3.583 -3.627,-2.751 -0.826,0.609 2.037,4.426 3.194,6.735 1.449,2.879 1.934,2.531 2.716,2.106 m 5.948,-17.176 c 0.567,2.041 -0.192,2.671 0.067,3.799 0.418,1.845 3.022,1.703 4.58,2 2.094,0.395 3.249,1.436 3.699,-0.044 0,0 -0.02,-3.272 -2.266,-5.412 -1.698,-1.622 -2.703,-2.389 -3.995,-2.439 -0.679,-0.03 -2.311,1.287 -2.085,2.096"
         transform="matrix(1.3333333,0,0,-1.3333333,9529.0714,5829.585)"
         id="path435" />
      <path
         style="fill:#a32136;fill-opacity:1;fill-rule:nonzero;stroke:none"
         d="m 230.624,119.166 c -0.045,3.203 -0.128,7.298 0.375,7.475 0.869,0.308 3.044,3.008 3.571,2.259 0.881,-1.277 -0.937,-5.184 -1.184,-6.735 -0.865,-2.977 0.915,-2.334 -0.805,-5.089 -0.977,-1.572 -0.577,-3.305 -1.778,-2.822 -0.921,0.372 -0.148,2.683 -0.179,4.912 m -9.009,-22.998 c 3.05,0.923 0.122,6.29 1.504,9.236 0.928,1.969 8.151,2.671 12.817,4.032 2.137,0.611 5.043,1.877 8.283,2.102 5.369,0.381 10.243,1.84 13.535,2.214 1.79,0.194 3.719,-0.25 5.545,0.109 2.085,0.414 1.349,-2.118 2.261,-2.745 2.377,-1.63 5.722,-1.93 7.209,-0.304 1.047,0.927 1.851,3.214 0.901,6.011 -1.77,5.246 -12.36,0.052 -13.758,2.764 -0.306,0.603 2.943,3.903 2.324,3.218 1.786,1.974 3.741,4.768 4.487,7.92 0.608,2.585 -0.377,3.237 -0.709,4.765 -0.266,1.239 -0.068,2.512 -1.005,3.699 -2.337,2.936 -5.604,2.137 -7.331,0.309 -1.851,-1.968 -3.663,-6.8 -5.911,-6.968 -2.499,-0.179 -3.606,1.082 -3.158,2.452 0.64,1.952 3.204,4.7 2.841,6.003 -0.205,0.733 -1.991,1.084 -3.781,0.55 -1.79,-0.532 -3.346,-4.584 -5.309,-3.683 -0.901,0.411 -0.339,2.585 -1.071,3.041 -2.031,1.269 -4.595,-4.997 -6.801,-5.241 -3.901,-0.412 -5.074,-2.09 -6.146,-5.172 -0.778,-2.259 -1.202,-6.132 -2.038,-8.812 -0.963,-3.087 -0.239,-6.284 -1.382,-7.095 -1.255,-0.871 -1.077,0.26 -2.563,0.069 -2.14,-0.288 -6.035,-9.768 -4.497,-15.728 0.294,-1.131 2.087,-3.254 3.753,-2.746 m 16.383,26.186 c 0.51,3.467 2.905,6.295 4.598,6.539 3.611,0.538 0.009,-2.847 -0.31,-3.431 -0.709,-1.254 -1.996,-5.625 -2.915,-5.09 -0.936,0.54 -1.608,0.417 -1.373,1.982 m 8.526,1.626 c 2.792,-0.253 -0.598,-8.137 -2.741,-5.165 0,0 0.027,0.885 0,0.944 -0.672,1.446 2.518,4.232 2.741,4.221 m 5.941,-0.497 c 0.072,6.421 2.709,8.298 3.779,8.86 2.371,1.249 2.204,2.273 3.512,2.564 1.648,0.373 2.839,-1.366 2.967,-3.389 0.122,-1.899 -0.713,-4.121 -2.286,-4.258 -1.78,-0.167 -1.802,2.207 -2.862,2.24 -1.272,0.031 -2.638,-1.791 -1.49,-2.761 0.98,-0.821 0.563,-2.42 -0.258,-3.7 -0.339,-0.533 -1.73,-1.074 -1.966,-1.624 -0.34,-0.8 0.612,-2.063 0.331,-2.887 -0.272,-0.794 -2.748,-1.514 -3.593,-0.473 -1.335,1.612 1.854,4.204 1.866,5.428"
         transform="matrix(1.3333333,0,0,-1.3333333,9529.0714,5829.585)"
         id="path434" />
      <path
         style="fill:#a32136;fill-opacity:1;fill-rule:nonzero;stroke:none"
         d="m -138.09,102.613 c 0.991,5.459 0.997,8.28 2.657,9.304 1.716,1.063 2.919,1.036 3.896,1.697 1.954,1.319 2.722,2.697 2.951,2.283 0.196,-0.357 0.27,-3.001 -0.226,-5.737 -0.638,-3.49 0.48,-6.248 -0.372,-6.889 -1.276,-0.957 -3.106,-0.846 -4.569,-1.382 -2.598,-0.944 -4.72,-2.097 -5.325,-1.825 -1.297,0.584 0.711,1.018 0.988,2.549 m 7.549,-8.868 c 1.559,-0.426 1.026,-2.514 -0.81,-3.047 -3.732,-1.087 -19.475,-5.922 -12.365,-10.673 1.715,-1.15 5.701,-1.056 6.837,-0.708 1.271,0.396 4.26,2.557 5.695,1.357 1.605,-1.344 -1.286,-6.517 1.822,-8.323 2.014,-1.17 4.091,-1.538 4.654,-0.009 0.895,2.459 0.465,9.096 1.448,9.888 2.906,2.323 12.874,-0.305 14.19,3.872 1.546,4.857 -1.154,6.937 -2.811,6.671 -2.96,-0.477 -7.521,-1.867 -10.252,-1.728 -1.076,0.054 -0.757,1.851 -0.35,3.177 0.972,3.232 8.788,1.207 14.413,1.493 4.209,0.224 3.891,-0.488 6.619,-0.585 3.856,-0.131 6.493,3.455 4.263,7.824 -0.846,1.659 -11.542,0.558 -15.438,-0.064 -4.918,-0.78 -7.15,-1.923 -8.66,-0.418 -1.668,1.689 1.59,2.434 1.677,2.434 4.961,0.052 18.586,10.408 10.592,17.756 -2.723,2.508 -0.709,4.881 -5.093,4.443 -0.385,-0.043 -4.683,-1.171 -5.607,-0.543 -0.88,0.59 -0.893,3.04 1.269,3.366 2.953,0.438 7.935,0.412 8.488,0.589 5.444,1.601 4.683,7.879 -1.898,6.066 -3.719,-1.019 -6.491,-1.73 -8.414,-0.699 -0.158,0.082 -2.102,1.207 -2.864,0.943 -0.761,-0.267 -0.09,-1.342 -1.699,-1.476 -1.612,-0.133 -7.861,0.237 -11.552,-1.283 -1.55,-0.635 -5.112,0.443 -6.669,-0.701 -1.518,-1.12 -3.988,-5.542 0.124,-7.25 1.798,-0.749 5.207,3.07 10.075,3.431 2.374,0.173 3.225,2.233 5.461,0.751 0.893,-0.591 0.421,-0.868 0.054,-1.284 -0.216,-0.244 -7.402,-2.551 -12.818,-5.858 -3.779,-2.304 -7.077,-4.419 -5.429,-8.313 0.352,-0.834 3.204,-2.637 0.8,-3.76 -2.283,-1.067 -5.474,-3.385 -5.739,-5.273 -0.094,-0.7 -0.125,-3.295 -0.046,-3.981 0.351,-3.137 4.335,-2.472 4.201,-3.722 -0.063,-0.558 -3.002,-0.983 -4.928,-2.185 -1.29,-0.814 -1.421,-3.097 -1.303,-4.116 0.174,-1.568 1.092,-1.122 4.248,-1.124 5.059,-0.009 6.643,0.654 12.626,2.577 1.217,0.385 3.782,0.863 5.189,0.485 m 1.927,30.603 c 1.303,-0.376 0.977,-1.823 -1.122,-3.402 -3.093,-2.317 -7.548,-5.687 -8.69,-3.648 -1.174,2.084 7.877,7.617 9.812,7.05 m -16.161,-21.536 c -2.281,1.856 2.405,5.358 3.674,5.334 2.337,-0.048 -1.21,-7.31 -3.674,-5.334 m 23.628,18.349 c 0.675,1.652 4.238,1.737 4.349,1.153 0.099,-0.58 -1.236,-2.738 -0.548,-4.199 0.711,-1.526 1.426,-2.826 3.084,-2.603 0.965,0.128 0.666,-1.12 -0.14,-2.459 -0.603,-1.012 -5.374,-6.364 -6.875,-5.083 -1.063,0.887 -1.357,5.761 0.303,9.029 0.26,1.267 -0.621,3.173 -0.173,4.162"
         transform="matrix(1.3333333,0,0,-1.3333333,9529.0714,5829.585)"
         id="path433" />
      <path
         style="fill:#a32136;fill-opacity:1;fill-rule:nonzero;stroke:none"
         d="m 257.779,91.765 c 1.157,0.131 3.871,-0.091 5.428,0.884 3.014,1.897 -0.313,5.955 -1.779,6.377 -1.263,0.359 -8.233,-1.862 -11.923,-2.063 -1.406,-0.083 -1.813,0.633 -1.845,1.43 -0.098,2.744 8.456,2.427 8.343,5.314 -0.164,4.267 -3.195,5.819 -7.551,5.114 0,0 -5.366,-1.122 -10.192,-1.594 -4.059,-0.394 -9.281,-3.695 -8.117,-6.484 1.249,-2.982 4.919,-2.747 7.687,-0.906 0.937,0.623 0.785,0.968 1.314,1.787 0.658,1.008 1.644,0.69 2.108,1.166 1.381,1.418 2.068,2.344 3.02,1.15 0.355,-0.444 -0.4,-2.97 -0.66,-3.637 -0.498,-1.24 -1.64,-3.124 -3.104,-3.751 -4.89,-2.078 -10.355,-3.459 -10.796,-6.775 -0.1,-0.756 1.784,-3.074 2.977,-3.458 1.349,-0.435 2.025,0.592 4.467,1.84 0.949,0.485 3.252,-0.144 4.114,0.233 1.545,0.676 3.527,2.58 3.977,1.839 0.909,-1.493 0.152,-5.531 -2.203,-8.518 -1.409,-1.788 -3.457,-3.368 -4.885,-3.151 -0.536,0.081 -3.836,-0.38 -4.059,-2.794 -0.252,-2.771 1.399,-4.01 2.566,-4.364 5.1,-1.591 7.956,2.878 11.581,6.865 1.909,2.094 3.261,4.905 3.524,6.343 0.43,2.362 1.023,2.075 0.983,3.076 -0.077,1.969 -1.101,2.795 -0.575,3.249 1.697,1.472 4.883,0.746 5.6,0.828"
         transform="matrix(1.3333333,0,0,-1.3333333,9529.0714,5829.585)"
         id="path432" />
      <path
         style="fill:#a32136;fill-opacity:1;fill-rule:nonzero;stroke:none"
         d="m 288.58,40.108 5.849,13.431 5.846,-13.431 z m 3.473,19.78 -13.979,-32.159 h 5.345 l 3.426,7.949 h 15.167 l 3.47,-7.949 h 5.391 l -13.978,32.159 z"
         transform="matrix(1.3333333,0,0,-1.3333333,9529.0714,5829.585)"
         id="path431" />
      <path
         style="fill:#a32136;fill-opacity:1;fill-rule:nonzero;stroke:none"
         d="m 258.811,45.316 -10.37,14.389 h -5.117 V 27.729 h 5.026 V 52.03 l 8.908,-12.059 h 2.923 l 8.908,12.059 V 27.729 h 5.024 v 31.976 h -5.024 z"
         transform="matrix(1.3333333,0,0,-1.3333333,9529.0714,5829.585)"
         id="path430" />
      <path
         style="fill:#a32136;fill-opacity:1;fill-rule:nonzero;stroke:none"
         d="m 319.878,32.343 v 27.362 h -5.072 V 27.729 h 22.064 v 4.614 z"
         transform="matrix(1.3333333,0,0,-1.3333333,9529.0714,5829.585)"
         id="path429" />
      <path
         style="fill:#a32136;fill-opacity:1;fill-rule:nonzero;stroke:none"
         d="m 196.877,35.22 c -2.164,-2.253 -4.813,-3.38 -7.949,-3.38 -3.137,0 -5.785,1.127 -7.949,3.38 -2.131,2.254 -3.197,5.087 -3.197,8.498 0,3.409 1.066,6.226 3.197,8.45 2.164,2.283 4.812,3.426 7.949,3.426 3.136,0 5.785,-1.143 7.949,-3.426 2.162,-2.254 3.243,-5.071 3.243,-8.45 0,-3.351 -1.081,-6.184 -3.243,-8.498 m -7.949,25.079 c -4.69,0 -8.587,-1.6 -11.694,-4.796 -3.078,-3.168 -4.615,-7.096 -4.615,-11.785 0,-4.661 1.537,-8.606 4.615,-11.832 3.107,-3.167 7.004,-4.751 11.694,-4.751 4.689,0 8.589,1.584 11.695,4.751 3.106,3.197 4.658,7.14 4.658,11.832 0,4.689 -1.552,8.617 -4.658,11.785 -3.106,3.196 -7.006,4.796 -11.695,4.796"
         transform="matrix(1.3333333,0,0,-1.3333333,9529.0714,5829.585)"
         id="path428" />
      <path
         style="fill:#a32136;fill-opacity:1;fill-rule:nonzero;stroke:none"
         d="m 216.031,45.682 v 9.41 h 9.227 c 1.827,0 3.25,-0.412 4.271,-1.234 1.021,-0.822 1.532,-1.964 1.532,-3.426 0,-1.524 -0.511,-2.695 -1.532,-3.518 -1.021,-0.821 -2.444,-1.232 -4.271,-1.232 z m 18.25,-0.754 c 1.233,1.567 1.85,3.464 1.85,5.687 0,2.68 -0.945,4.872 -2.833,6.577 -1.859,1.676 -4.431,2.513 -7.72,2.513 H 211.006 V 27.729 h 5.025 V 41.25 h 7.491 l 9.639,-13.521 h 6.075 l -10.049,14.069 c 2.163,0.517 3.86,1.56 5.094,3.13"
         transform="matrix(1.3333333,0,0,-1.3333333,9529.0714,5829.585)"
         id="path427" />
      <path
         style="fill:#a32136;fill-opacity:1;fill-rule:nonzero;stroke:none"
         d="M 40.624,27.729 V 59.705 H 35.601 V 47.097 H 18.927 V 59.705 H 13.9 V 27.729 h 5.027 V 42.483 H 35.601 V 27.729 Z"
         transform="matrix(1.3333333,0,0,-1.3333333,9529.0714,5829.585)"
         id="path426" />
      <path
         style="fill:#a32136;fill-opacity:1;fill-rule:nonzero;stroke:none"
         d="m -0.909,27.135 c 3.562,0 6.685,0.852 9.365,2.558 v 5.071 C 6.02,32.814 2.975,31.84 -0.681,31.84 c -3.441,0 -6.289,1.111 -8.542,3.335 -2.255,2.253 -3.381,5.1 -3.381,8.543 0,3.44 1.112,6.272 3.336,8.496 2.252,2.253 5.054,3.38 8.405,3.38 3.168,0 6.046,-0.838 8.634,-2.512 v 5.07 c -2.528,1.432 -5.421,2.147 -8.68,2.147 -4.873,0 -8.894,-1.569 -12.061,-4.705 -3.196,-3.107 -4.795,-7.066 -4.795,-11.876 0,-4.814 1.599,-8.787 4.795,-11.924 3.259,-3.107 7.28,-4.659 12.061,-4.659"
         transform="matrix(1.3333333,0,0,-1.3333333,9529.0714,5829.585)"
         id="path425" />
      <path
         style="fill:#a32136;fill-opacity:1;fill-rule:nonzero;stroke:none"
         d="m 161.939,36.546 -18.043,23.159 h -4.385 V 27.729 h 4.933 v 23.25 l 18.18,-23.25 h 4.248 v 31.976 h -4.933 z"
         transform="matrix(1.3333333,0,0,-1.3333333,9529.0714,5829.585)"
         id="path424" />
      <path
         style="fill:#a32136;fill-opacity:1;fill-rule:nonzero;stroke:none"
         d="m -42.753,27.729 v 27.363 h 10.599 v 4.613 H -58.33 v -4.613 h 10.553 V 27.729 Z"
         transform="matrix(1.3333333,0,0,-1.3333333,9529.0714,5829.585)"
         id="path423" />
      <path
         style="fill:#a32136;fill-opacity:1;fill-rule:nonzero;stroke:none"
         d="m -28.258,-3.198 h 14.436 v 4.614 h -14.436 v 7.995 h 17.724 v 4.613 h -22.749 v -31.977 h 23.344 v 4.615 h -18.319 z"
         transform="matrix(1.3333333,0,0,-1.3333333,9529.0714,5829.585)"
         id="path422" />
      <path
         style="fill:#a32136;fill-opacity:1;fill-rule:nonzero;stroke:none"
         d="m -78.689,-17.953 h 5.025 v 31.978 h -5.025 z"
         transform="matrix(1.3333333,0,0,-1.3333333,9529.0714,5829.585)"
         id="path421" />
      <path
         style="fill:#a32136;fill-opacity:1;fill-rule:nonzero;stroke:none"
         d="m -53.341,-11.192 -10.598,25.216 h -5.573 l 13.749,-32.159 h 4.752 l 13.703,32.159 h -5.435 z"
         transform="matrix(1.3333333,0,0,-1.3333333,9529.0714,5829.585)"
         id="path420" />
      <path
         style="fill:#a32136;fill-opacity:1;fill-rule:nonzero;stroke:none"
         d="m -90.978,-9.136 -18.043,23.16 h -4.386 v -31.977 h 4.933 V 5.299 l 18.182,-23.252 h 4.248 v 31.977 h -4.934 z"
         transform="matrix(1.3333333,0,0,-1.3333333,9529.0714,5829.585)"
         id="path419" />
      <path
         style="fill:#a32136;fill-opacity:1;fill-rule:nonzero;stroke:none"
         d="m -60.691,36.682 c -0.183,3.411 -1.691,5.878 -4.522,7.4 -1.675,0.914 -3.626,1.706 -5.848,2.377 l -3.654,1.05 c -0.183,0.06 -0.488,0.167 -0.914,0.319 -0.427,0.152 -0.808,0.297 -1.142,0.435 -0.335,0.136 -0.594,0.265 -0.776,0.388 -1.25,0.882 -1.874,1.842 -1.874,2.877 0,1.218 0.556,2.201 1.667,2.948 1.112,0.745 2.734,1.118 4.866,1.118 3.501,0 6.882,-0.99 10.141,-2.969 v 5.024 c -2.954,1.766 -6.365,2.65 -10.232,2.65 -3.564,0 -6.389,-0.792 -8.474,-2.375 -2.086,-1.584 -3.13,-3.701 -3.13,-6.351 0,-2.922 1.096,-5.07 3.29,-6.44 1.308,-0.762 2.375,-1.295 3.197,-1.599 1.036,-0.395 2.421,-0.838 4.158,-1.324 l 0.639,-0.184 c 2.039,-0.579 3.502,-1.081 4.385,-1.506 0.731,-0.305 1.278,-0.625 1.645,-0.96 0.943,-0.823 1.415,-1.812 1.415,-2.969 0,-1.462 -0.692,-2.62 -2.078,-3.473 -1.386,-0.851 -3.16,-1.278 -5.321,-1.278 -2.193,0 -4.387,0.411 -6.578,1.233 -2.193,0.853 -3.914,1.827 -5.163,2.924 v -5.436 c 3.137,-2.284 7.141,-3.426 12.015,-3.426 3.501,0 6.424,0.852 8.77,2.558 2.345,1.704 3.518,4.035 3.518,6.989"
         transform="matrix(1.3333333,0,0,-1.3333333,9529.0714,5829.585)"
         id="path418" />
      <path
         style="fill:#a32136;fill-opacity:1;fill-rule:nonzero;stroke:none"
         d="m -104.007,53.539 5.848,-13.431 h -11.695 z m 7.583,-17.861 3.473,-7.949 h 5.39 l -13.979,32.159 h -4.841 l -13.978,-32.159 h 5.342 l 3.428,7.949 z"
         transform="matrix(1.3333333,0,0,-1.3333333,9529.0714,5829.585)"
         id="path417" />
      <path
         style="fill:#a32136;fill-opacity:1;fill-rule:nonzero;stroke:none"
         d="m -123.955,55.092 v 4.613 h -22.749 V 27.729 h 23.344 v 4.614 h -18.319 v 10.14 h 14.436 v 4.614 h -14.436 v 7.995 z"
         transform="matrix(1.3333333,0,0,-1.3333333,9529.0714,5829.585)"
         id="path416" />
      <path
         style="fill:#a32136;fill-opacity:1;fill-rule:nonzero;stroke:none"
         d="m -125.325,-4.613 c 0,-2.955 -0.754,-5.232 -2.262,-6.83 -1.507,-1.599 -3.555,-2.398 -6.144,-2.398 -2.588,0 -4.628,0.799 -6.121,2.398 -1.492,1.598 -2.239,3.875 -2.239,6.83 v 18.637 h -5.024 V -4.431 c 0,-4.507 1.233,-7.994 3.7,-10.462 2.527,-2.436 5.756,-3.653 9.684,-3.653 3.928,0 7.157,1.233 9.685,3.699 2.496,2.467 3.745,5.94 3.745,10.416 v 18.455 h -5.024 z"
         transform="matrix(1.3333333,0,0,-1.3333333,9529.0714,5829.585)"
         id="path415" />
      <path
         style="fill:#a32136;fill-opacity:1;fill-rule:nonzero;stroke:none"
         d="m 102.188,40.108 5.847,13.431 5.848,-13.431 z m 3.473,19.78 -13.978,-32.159 h 5.343 l 3.426,7.949 h 15.167 l 3.472,-7.949 h 5.391 l -13.98,32.159 z"
         transform="matrix(1.3333333,0,0,-1.3333333,9529.0714,5829.585)"
         id="path414" />
      <path
         style="fill:#a32136;fill-opacity:1;fill-rule:nonzero;stroke:none"
         d="m 65.291,50.979 18.183,-23.25 h 4.249 V 59.705 H 82.788 V 36.546 L 64.743,59.705 H 60.358 V 27.729 h 4.933 z"
         transform="matrix(1.3333333,0,0,-1.3333333,9529.0714,5829.585)"
         id="path413" />
      <path
         style="fill:#a32136;fill-opacity:1;fill-rule:nonzero;stroke:none"
         d="m 64.885,9.411 h 10.553 v -27.364 h 5.025 V 9.411 h 10.598 v 4.613 H 64.885 Z"
         transform="matrix(1.3333333,0,0,-1.3333333,9529.0714,5829.585)"
         id="path412" />
      <path
         style="fill:#a32136;fill-opacity:1;fill-rule:nonzero;stroke:none"
         d="m 108.67,1.097 -9.136,12.927 h -5.847 l 12.38,-17.495 v -14.482 h 5.024 v 14.619 l 12.38,17.358 h -5.664 z"
         transform="matrix(1.3333333,0,0,-1.3333333,9529.0714,5829.585)"
         id="path411" />
      <path
         style="fill:#a32136;fill-opacity:1;fill-rule:nonzero;stroke:none"
         d="m 47.979,27.729 h 5.024 v 31.977 h -5.024 z"
         transform="matrix(1.3333333,0,0,-1.3333333,9529.0714,5829.585)"
         id="path410" />
      <path
         style="fill:#a32136;fill-opacity:1;fill-rule:nonzero;stroke:none"
         d="m 45.421,-1.599 c -1.675,0.914 -3.624,1.705 -5.847,2.376 l -3.655,1.051 c -0.183,0.06 -0.487,0.167 -0.914,0.319 -0.427,0.152 -0.807,0.296 -1.142,0.435 -0.335,0.136 -0.593,0.265 -0.776,0.388 -1.248,0.883 -1.874,1.842 -1.874,2.878 0,1.217 0.556,2.199 1.669,2.946 1.111,0.746 2.732,1.119 4.864,1.119 3.502,0 6.883,-0.99 10.143,-2.969 v 5.025 c -2.956,1.765 -6.367,2.649 -10.235,2.649 -3.562,0 -6.386,-0.792 -8.472,-2.375 -2.087,-1.585 -3.13,-3.701 -3.13,-6.35 0,-2.923 1.096,-5.071 3.29,-6.441 1.308,-0.762 2.374,-1.295 3.197,-1.599 1.035,-0.396 2.421,-0.838 4.157,-1.324 l 0.64,-0.184 c 2.04,-0.578 3.501,-1.081 4.384,-1.507 0.731,-0.305 1.28,-0.624 1.645,-0.959 0.944,-0.822 1.416,-1.813 1.416,-2.969 0,-1.463 -0.692,-2.62 -2.079,-3.473 -1.387,-0.852 -3.159,-1.278 -5.32,-1.278 -2.194,0 -4.387,0.41 -6.579,1.233 -2.193,0.853 -3.914,1.827 -5.162,2.923 v -5.436 c 3.136,-2.283 7.141,-3.425 12.013,-3.425 3.503,0 6.427,0.852 8.772,2.558 2.345,1.705 3.517,4.035 3.517,6.989 -0.183,3.411 -1.69,5.878 -4.522,7.4"
         transform="matrix(1.3333333,0,0,-1.3333333,9529.0714,5829.585)"
         id="path409" />
      <path
         style="fill:#a32136;fill-opacity:1;fill-rule:nonzero;stroke:none"
         d="m 55.558,-17.953 h 5.024 v 31.978 h -5.024 z"
         transform="matrix(1.3333333,0,0,-1.3333333,9529.0714,5829.585)"
         id="path408" />
      <path
         style="fill:#a32136;fill-opacity:1;fill-rule:nonzero;stroke:none"
         d="m 0,0 v 9.411 h 9.228 c 1.827,0 3.251,-0.412 4.271,-1.234 1.021,-0.822 1.53,-1.964 1.53,-3.426 0,-1.523 -0.509,-2.694 -1.53,-3.518 C 12.479,0.411 11.055,0 9.228,0 Z m 18.25,-0.753 c 1.233,1.567 1.85,3.463 1.85,5.687 0,2.679 -0.944,4.873 -2.831,6.578 -1.859,1.675 -4.432,2.512 -7.721,2.512 H -5.024 V -17.953 H 0 v 13.522 h 7.492 l 9.639,-13.522 h 6.075 l -10.05,14.07 c 2.162,0.518 3.861,1.561 5.094,3.13"
         transform="matrix(1.3333333,0,0,-1.3333333,9529.0714,5829.585)"
         id="path97" />
    </g>
  </g>
</svg>
