<?xml version="1.0" encoding="UTF-8" standalone="no"?>
<!-- Created with Inkscape (http://www.inkscape.org/) -->

<svg
   version="1.1"
   id="svg1"
   width="372.86426"
   height="372.86426"
   viewBox="0 0 372.86427 372.86425"
   xmlns="http://www.w3.org/2000/svg"
   xmlns:svg="http://www.w3.org/2000/svg">
  <defs
     id="defs1" />
  <g
     id="layer-MC0"
     transform="translate(-8474.0329,-6233.444)">
    <path
       style="fill:#c56b6d;fill-opacity:1;fill-rule:nonzero;stroke:none;stroke-width:1.33333"
       d="m 8700.8979,6571.1407 c -1.1973,0.032 -1.3387,1.512 -1.4507,2.7027 l -0.112,0.9053 c -0.352,1.7734 -3.4226,3.6014 -6.1346,4.424 l -0.732,0.2374 c -1.3054,0.432 -2.3334,0.7733 -3.8227,0.045 -0.6507,-0.316 -1.18,-1.6387 -1.1787,-2.9453 0,-1.0374 0.3414,-1.7947 0.9294,-2.0814 0.256,-0.1266 0.3213,-0.036 0.4306,0.1094 0.256,0.3453 0.5854,0.5626 1.96,-0.2974 0.12,-0.072 0.1814,-0.3866 0.2854,-0.9773 0.081,-0.488 0.1786,-1.044 0.3373,-1.38 l 0.5333,-0.9907 0.36,-0.692 c 0.2574,-1.12 -0.053,-2.204 -0.856,-2.9693 -0.8933,-0.8573 -2.2306,-1.1467 -3.5826,-0.772 -1.9947,0.5547 -3.884,1.968 -5.552,3.2187 -1.7027,1.2733 -3.1707,2.372 -4.416,2.3853 -0.4427,0.01 -0.768,-0.2227 -1.0507,-0.42 -0.268,-0.188 -0.52,-0.368 -0.8067,-0.284 -0.408,0.1173 -0.824,0.7573 -1.4,2.1333 -0.116,0.2787 -0.1586,0.7987 -0.208,1.4 -0.081,0.972 -0.1813,2.1814 -0.6546,2.5134 -0.128,0.089 -0.2774,0.1106 -0.456,0.064 -0.1867,-0.049 -0.3134,-0.1547 -0.3867,-0.328 -0.328,-0.7387 0.4707,-2.3414 0.4773,-2.356 0.01,-0.015 0.2267,-1.3947 0.2267,-1.3947 0.041,-0.4267 0.08,-0.8293 0.2067,-1.156 0.736,-1.9147 2.472,-2.312 4.3066,-2.732 0.9507,-0.2213 2.3454,-1.392 2.5774,-1.7133 0.452,-0.64 -0.216,-1.3307 -0.752,-1.8867 l -0.097,-0.1027 c -0.8906,-0.9293 -1.7666,-1.156 -2.6853,-0.688 -0.7627,0.3894 -1.704,1.3774 -2.792,2.5187 -0.8253,0.8693 -1.6813,1.7667 -2.5667,2.5133 l -0.3106,0.2574 c -1.824,1.4933 -3.9107,3.324 -3.8094,4.248 0.016,0.1813 0.1174,0.3173 0.296,0.4106 0.7427,0.3787 1.476,-0.4226 2.1187,-1.1333 0.492,-0.54 0.9587,-1.0533 1.2707,-0.8253 0.1093,0.08 0.1693,0.1626 0.1866,0.2666 0.029,0.2067 -0.096,0.4947 -0.3906,0.884 l -0.1347,0.176 c -0.356,0.4547 -0.688,0.8814 -0.856,2.164 -0.2347,1.7947 0.128,2.1974 0.7333,2.864 l 0.6174,0.7414 c 0.272,0.3786 0.2893,0.9813 0.3,1.3773 l 0.063,0.4453 c 0.416,0.48 0.74,0.444 0.9774,0.4147 0.188,-0.023 0.304,-0.035 0.432,0.18 0.2986,0.4947 0.136,1.7027 -0.1107,1.8493 -0.015,0.01 -0.064,0.039 -0.1507,-0.099 -0.216,-0.3454 -0.8653,-0.2414 -1.1093,-0.204 -0.6653,0.099 -0.8733,0.6453 -1.0573,1.128 l -0.144,0.3453 c -0.828,1.7307 0.071,2.612 1.0626,3.244 0.5894,0.38 1.0974,0.7053 2.176,0.1653 0.9227,-0.464 1.0814,-2.0026 1.2414,-3.6333 l 0.056,-0.528 c 0.1586,-1.5253 0.4213,-2.82 0.7173,-3.56 0.36,-0.9 0.284,-1.5947 0.22,-2.1547 l -0.015,-0.7986 c 0.1974,-1.004 0.7614,-1.3867 1.4734,-1.8734 0.372,-0.2546 0.796,-0.5413 1.212,-0.9586 l 0.9573,-0.9867 c 1.164,-1.212 2.084,-2.1747 3.708,-3.0533 0.536,-0.2907 1.084,-0.7494 1.616,-1.184 0.7227,-0.6027 1.4733,-1.2254 2.228,-1.4707 l 0.1547,-0.052 c 0.668,-0.224 1.908,-0.64 2.3333,-0.2067 0.132,0.1307 0.528,1.2214 0.3053,1.7414 -0.077,0.184 -0.224,0.2706 -0.448,0.264 -0.376,-0.01 -0.4226,-0.2267 -0.464,-0.576 -0.029,-0.2347 -0.056,-0.4774 -0.264,-0.5987 -0.368,-0.2213 -1.556,-0.031 -1.568,-0.028 -0.4506,0.077 -0.796,0.5947 -1.1946,1.1933 -0.288,0.432 -0.6147,0.924 -1.0227,1.2987 -1.516,1.3933 -1.8467,3.9267 -1.3853,5.7133 0.5293,2.0534 1.6146,2.82 2.2653,3.2787 l 0.392,0.3067 c 1.536,1.6253 3.664,2.8893 8.8053,1.144 3.376,-1.148 5.9934,-3.0974 7.1774,-5.348 0.544,-1.032 0.4666,-3.712 -0.356,-5.0414 -0.3334,-0.536 -0.7534,-0.8013 -1.2427,-0.792 m -40.4307,27.9974 c -98.9933,-0.1867 -179.0826,-80.248 -179.2666,-179.264 0.184,-98.9987 80.2733,-179.0854 179.2666,-179.2587 99.004,0.1733 179.0734,80.26 179.2574,179.2587 -0.184,99.016 -80.2534,179.0773 -179.2574,179.264 m 0,-365.6934 c -102.956,0.1827 -186.2466,83.4734 -186.4346,186.4294 0.188,102.976 83.4786,186.2413 186.4346,186.4346 102.96,-0.1933 186.2387,-83.4586 186.4294,-186.4346 -0.1907,-102.956 -83.4694,-186.2467 -186.4294,-186.4294 m 16.22,325.164 c 0.4187,-0.94 1.036,-1.524 1.5854,-2.0386 0.3333,-0.316 0.62,-0.5854 0.8013,-0.8894 0.324,-0.5306 0.3093,-1.1053 -0.044,-1.5693 -0.384,-0.5093 -1.0707,-0.7493 -1.6693,-0.5853 -1.1094,0.3053 -2.712,2.3066 -3.4627,3.4946 -0.4507,0.72 -0.7573,1.4787 -1.056,2.216 -0.324,0.8067 -0.6333,1.5667 -1.1107,2.2534 -0.5053,0.7253 -0.1573,1.7706 0.408,2.4866 0.5214,0.6534 1.4507,1.2854 2.3627,0.9227 0.1947,-0.081 0.2893,-0.2987 0.396,-0.5493 0.1893,-0.4347 0.424,-0.9787 1.2827,-1.1187 0.4066,-0.068 0.6986,0.208 1.036,0.5227 0.408,0.3826 0.8706,0.8173 1.6266,0.6226 0.7627,-0.192 1.3187,-1.1826 1.812,-2.0533 l 0.372,-0.6373 c 0.652,-1.028 3.768,-4.708 4.9574,-5.152 0.5693,-0.212 0.9266,-0.2587 1.1213,-0.14 0.22,0.128 0.2693,0.476 0.3347,0.96 l 0.059,0.4093 c 0.069,0.4213 0.3787,0.6173 0.652,0.7867 0.2387,0.148 0.448,0.28 0.444,0.536 0,0.5906 -0.4733,0.9333 -0.9693,1.2946 -0.4867,0.36 -0.992,0.7294 -1.0427,1.3614 -0.063,0.7746 0.152,1.4426 0.5734,1.7826 0.3253,0.2667 0.7586,0.3294 1.2533,0.188 0.692,-0.2026 1.004,-0.9546 1.3373,-1.748 0.2067,-0.4946 0.42,-1.0053 0.7374,-1.4373 0.4666,-0.6293 0.9453,-0.7667 1.4546,-0.9107 0.436,-0.1226 0.8867,-0.252 1.3027,-0.7186 0.376,-0.4294 0.5307,-0.932 0.4333,-1.416 -0.1213,-0.584 -0.596,-1.1 -1.3346,-1.4467 -1.0294,-0.4853 -1.52,0.156 -1.8454,0.5827 -0.1146,0.1506 -0.224,0.296 -0.3026,0.3013 l -0.087,-0.048 c -0.58,-0.5853 -0.2693,-1.256 0.061,-1.9627 0.16,-0.34 0.324,-0.6946 0.3894,-1.0466 0.088,-0.4747 0,-0.84 -0.26,-1.0547 -0.3814,-0.3227 -1.0947,-0.2907 -2.12,0.091 -0.4387,0.1626 -0.788,0.552 -1.156,0.9693 -0.3587,0.3987 -0.7307,0.8133 -1.2147,1.056 -1.2987,0.648 -2.1667,1.4187 -2.8627,2.036 -0.508,0.452 -0.9093,0.8067 -1.2973,0.9453 -0.2773,0.099 -0.7907,0.1427 -1.336,0.188 -0.9587,0.083 -2.048,0.1747 -2.4373,0.5974 l -0.6067,0.9066 c -0.264,0.4494 -0.5373,0.916 -0.7747,0.9667 l -0.1653,-0.043 c -0.392,-0.28 -0.072,-0.9746 0.2373,-1.648 z m -29.5186,12.072 c -1.0414,0.6654 -1.6334,0.96 -2.3054,0.8587 -0.356,-0.052 -1.0653,-0.8933 -0.8666,-1.2867 0.496,-0.9986 0.1666,-1.3986 0.412,-1.9546 0.3986,-0.908 1.7293,-0.58 2.5613,-0.5747 1.1173,0.01 1.8173,-0.4173 1.9013,0.392 0,0 -0.3346,1.6827 -1.7026,2.5653 m -6.3134,-6.9666 c -0.72,1.1293 -1.6506,1.5973 -2.144,1.0586 -0.3666,-0.3946 1.4934,-2.08 2.3174,-3.152 1.0373,-1.3426 1.252,-1.1133 1.608,-0.8186 0.4053,0.3346 -0.8,1.3773 -1.7814,2.912 m -11.7426,-1.476 c -1.8387,0.5253 -2.312,1.916 -2.6014,2.684 -0.1333,0.364 -0.5906,0.2413 -0.6533,-0.124 -0.1453,-0.84 -0.116,-2.3187 0.5893,-3.4174 0.944,-1.4786 1.32,-2.6773 2.0707,-3.628 0.948,-1.2 2.1933,-1.696 2.4693,-1.3733 0.528,0.6173 -0.7386,1.324 -0.7906,1.9187 -0.1414,1.7213 -0.44,1.7226 -0.9187,2.524 -0.3373,0.5733 0.7787,1.1466 -0.1653,1.416 m 22.4613,1.6493 c -1.792,-0.812 -4.76,0.908 -5.5307,-0.1347 -0.32,-0.432 0.4374,-1.2853 0.5574,-1.896 0.1933,-0.988 -0.3787,-1.864 -1.164,-2.0693 -0.5107,-0.136 -0.4947,-0.7907 0.108,-0.8413 0.8626,-0.071 1.2813,0.025 2.1586,0.1133 1.656,0.1667 2.612,0.073 3.6387,-1.3933 0.3133,-0.4467 0.168,-1.4387 -0.5013,-1.936 -0.8574,-0.6414 -3.5934,-0.74 -6.4627,-0.6907 -3.0947,0.049 -6.3507,-0.045 -7.0107,1.072 -0.316,0.544 -0.9706,1.1707 -1.32,1.8653 -0.5146,1.012 -0.8093,1.9347 -1.3906,2.332 -1.832,1.2627 -2.368,3.8774 -2.7174,2.9867 -0.2386,-0.6067 -1.1373,-0.5653 -1.676,-0.692 -0.252,-0.06 -0.2173,-0.752 0.071,-1.0107 0.2853,-0.2546 0.3253,-0.017 0.7373,-0.1826 1.1267,-0.448 2.5,-1.644 2.728,-2.4934 0.572,-2.1253 1.436,-3.74 0.488,-4.9746 -0.8133,-1.064 -2.224,-1.5307 -3.6773,-1.628 -0.7627,-0.052 -2.0093,0.056 -2.808,0.3946 -1.3707,0.576 -1.8493,2.28 -2.6853,4.336 -0.3414,0.84 -1.1267,1.8907 -1.492,3.204 -0.4614,1.6694 -1.04,4.0027 -1.3094,5.2027 -0.6013,2.7067 -0.7253,4.6 -0.1013,6.5133 0.3267,1.0027 -0.01,2.4107 1.4093,2.4947 1.176,0.067 0.624,-4.2867 0.996,-6.272 0.1494,-0.8147 0.3454,-1.588 0.9894,-1.9347 0.2053,-0.1066 0.3866,-0.4906 0.7466,-0.308 0.3614,0.1814 -0.2533,1.3534 0.328,1.3627 1.0307,0.016 1.576,-1.244 2.3894,-0.7667 0.6346,0.3747 -0.308,1.4627 -1.1267,2.1547 -1.608,1.3627 -2.36,3.9067 -0.1493,4.5173 0.9373,0.2614 2.0573,-1.0226 2.5293,-2.3146 0.368,-1.012 0.268,-1.6654 0.6373,-2.4587 0.2987,-0.6227 0.8494,-0.7547 1.2774,-1.5093 0.408,-0.7227 0.7266,-1.5614 1.3373,-2.4147 0.7067,-0.9853 1.7227,-1.984 2.3893,-2.78 0.7534,-0.8867 1.3974,-1.756 2.2254,-2.264 0.8253,-0.5067 2.036,-0.836 2.7626,-0.332 0.52,0.36 -1.64,1.6027 -2.948,2.812 -1.828,1.6853 -2.884,3.844 -3.3,6.6213 -0.1666,1.124 -0.776,4.2134 -0.035,4.8827 0.5373,0.4867 1.0066,0.676 1.7093,0.6053 1.728,-0.1733 1.112,-3.4293 2.116,-4.7973 0.2187,-0.2973 0.4187,-0.8507 0.924,-0.576 0.5027,0.2773 -0.884,6.776 -1.7573,10.592 -0.6014,2.6093 -0.708,4.784 -0.8867,6.852 -0.073,0.8613 -0.108,1.6853 1.156,1.932 1.7893,0.348 2.4813,-3.4867 2.9027,-5.86 0.352,-1.9747 1.0173,-4.9053 1.868,-5.9107 0.9413,-1.1106 3.176,-1.828 4.5453,-2.1306 1.4027,-0.3054 2.572,-1.9614 3.372,-2.6094 1.0773,-0.8746 2.0413,-3.8573 2.2667,-4.9266 0.312,-1.472 -0.148,-2.212 -1.3147,-2.7387 m 90.4813,-8.4773 c -1.5813,0.916 -3.516,1.1146 -4.6986,1.3626 -3.58,0.748 -6.404,-0.552 -7.3054,-0.344 -0.9026,0.2054 -0.5186,2.4454 0.168,3.528 1.96,3.096 8.0827,2.1534 11.7147,1.1174 1.3973,-0.4 2.9173,-1.7654 4.136,-2.504 1.2907,-0.784 2.5693,-1.0054 2.5053,-1.8854 -0.065,-0.88 0.3667,-1.0693 -0.1306,-1.7586 -1.16,-1.6 -3.6614,-1.0947 -6.3894,0.484 m -125.8026,-105.6134 36.796,-27.6 v -11.6226 l -36.796,27.6093 z m 118.3986,99.2507 c 0.8907,-1.5413 1.0547,-3.3293 -0.632,-3.612 -0.6213,-0.1013 -0.888,-0.224 -1.9493,0.372 -1.8093,1.008 -1.1013,1.8413 -2.3093,2.5667 -0.5227,0.3133 -1.032,-1.992 -0.1107,-2.7694 1.932,-1.632 3.8347,-4.0853 3.184,-6.2186 -0.5293,-1.7507 -1.4853,-3.1974 -3.7933,-1.1387 -1.2054,1.0747 -2.744,2.648 -3.6307,5.1893 -1.1373,3.2654 -1.808,6.904 -3.404,9.0947 -1.0293,1.416 -1.1853,0.5627 -2.3987,1.6027 -3.3773,2.9026 -5.224,5.5853 -3.5986,7.3293 1.1306,1.2093 2.7306,0.8733 3.5973,0.6187 1.0653,-0.3147 1.7027,-1.1894 1.8827,-0.596 0.1773,0.5933 -0.7374,3.12 -1.1827,5.152 -0.1747,0.8106 -0.9973,2.672 -2.1467,4.1146 -1.92,2.408 -2.4733,3.2227 -1.9146,3.9894 0.684,0.932 1.936,0.8306 2.976,0.124 1.168,-0.7867 5.2386,-6.8454 6.5293,-13.58 0.2333,-1.1987 1.0667,-2.5854 1.412,-3.556 0.472,-1.3227 0.176,-2.192 0.9227,-3.092 2.2386,-2.7027 5.4306,-3.6307 6.5666,-5.5907 m -201.4533,-76.3867 -4.5253,2.2774 6.056,12.0293 -6.3134,3.1813 -4.7386,-9.4093 -4.456,2.244 4.7386,9.4093 -4.736,2.3854 -5.8813,-11.6827 -4.5267,2.2787 8.1734,16.2293 24.556,-12.3653 z m 27.408,58.024 c 0.4053,0.284 -0.1373,0.6454 -0.9,0.8654 -0.5747,0.168 -4.1987,0.512 -4.3147,-0.4814 -0.088,-0.6986 1.4854,-2.616 3.232,-3.2573 0.5347,-0.3827 0.8654,-1.3947 1.372,-1.6093 0.8254,-0.384 2.1814,0.8173 2.0174,1.0706 -0.1627,0.2507 -1.404,0.5934 -1.6547,1.3774 -0.2613,0.8133 -0.444,1.5413 0.248,2.0346 m -7.264,-3.04 c -1.4427,1.0787 -1.9813,2.4947 -2.5173,2.4374 -0.8054,-0.084 -1.448,-0.756 -2.1774,-1.0654 -1.292,-0.5453 -2.48,-0.8493 -2.6133,-1.1613 -0.28,-0.6653 0.6173,-0.1333 1.2507,-0.608 2.2533,-1.688 3.2293,-2.736 4.2013,-2.5453 1.0053,0.1973 1.444,0.624 2.0347,0.716 1.1853,0.1853 1.9466,-0.063 1.888,0.172 -0.049,0.2013 -0.9374,1.2093 -2.0667,2.0546 m -8.476,-2.7773 c -0.208,-1.4827 2.7427,-1.1653 3.2067,-0.716 0.856,0.8253 -2.976,2.3 -3.2067,0.716 m 13.4533,-2.4333 c 0.352,0.5906 -0.268,1.0173 -1.5933,0.8786 -1.952,-0.2053 -4.772,-0.4906 -4.496,-1.6426 0.284,-1.184 5.5653,-0.1147 6.0893,0.764 m 10.4654,1.2386 c -1.7374,-0.9053 -3.016,-1.5986 -3.3747,-2.648 -0.029,-0.087 -0.364,-1.1773 -0.74,-1.3386 -0.376,-0.1654 -0.4973,0.468 -1.1427,-0.043 -0.6466,-0.5067 -2.844,-2.8013 -4.7386,-3.512 -0.7974,-0.2987 -1.752,-1.9293 -2.728,-2.0427 -0.952,-0.1093 -3.3987,0.6827 -2.4587,2.7414 0.412,0.9 2.9987,0.656 4.936,2.2026 0.9427,0.756 1.972,0.284 2.2907,1.608 0.1293,0.528 -0.14,0.468 -0.4227,0.496 -0.1667,0.017 -3.6373,-1.6066 -6.796,-2.2493 -2.2027,-0.4467 -4.1587,-0.8 -4.892,1.22 -0.1573,0.432 0.2827,2.0867 -1.0027,1.6747 -1.2186,-0.3907 -3.204,-0.6307 -3.956,-0.02 -0.2773,0.2266 -1.184,1.1866 -1.3946,1.464 -0.952,1.2906 0.7626,2.4186 0.2773,2.8386 -0.2147,0.184 -1.4547,-0.672 -2.588,-0.8906 -0.7613,-0.1467 -1.5987,0.664 -1.908,1.08 -0.4747,0.6466 0.019,0.796 1.1933,1.888 1.88,1.752 2.6987,2.0533 5.5894,3.4053 0.5866,0.2747 1.7053,0.9827 2.0986,1.6133 0.4347,0.6934 -0.4853,1.2894 -1.3533,0.8507 -1.7653,-0.8827 -9.296,-4.524 -8.292,-0.3013 0.24,1.024 1.7573,2.3666 2.3013,2.6306 0.6094,0.288 2.468,0.516 2.5894,1.4587 0.132,1.056 -2.7334,1.9813 -2.1974,3.728 0.344,1.1347 0.9894,1.9867 1.728,1.6093 1.1827,-0.6013 3.316,-3.2226 3.9534,-3.1773 1.884,0.14 4.6866,4.5613 6.6213,3.4627 2.256,-1.276 1.968,-2.9814 1.2613,-3.4534 -1.2693,-0.8466 -3.4466,-1.904 -4.416,-2.8986 -0.38,-0.3947 0.356,-0.948 0.968,-1.3054 1.4814,-0.868 3.6894,2.588 5.8814,4.4227 1.6426,1.372 1.276,1.5293 2.2613,2.508 1.3853,1.38 3.6093,0.9573 4.288,-1.4387 0.2587,-0.9093 -4.1,-4.196 -5.7667,-5.312 -2.1,-1.408 -3.3253,-1.7533 -3.3653,-2.8346 -0.039,-1.2067 1.432,-0.3587 1.4667,-0.3267 1.8613,1.692 10.5106,2.5507 10.076,-2.9493 -0.148,-1.8734 1.42,-2.06 -0.3654,-3.412 -0.156,-0.1214 -2.144,-1.1854 -2.272,-1.736 -0.1226,-0.5254 0.7214,-1.4427 1.6374,-0.816 1.2506,0.856 3.0933,2.5893 3.3586,2.7173 2.5814,1.2813 4.4627,-1.3187 1.3934,-2.9147 m -5.532,-10.916 c 0,0 -1.024,-0.8026 -1.5294,-0.8786 -0.5973,-0.1534 -0.664,0.2173 -1.2026,0.268 -0.5627,-0.064 -0.936,0.3666 -1.1227,0.812 -0.4907,1.1626 0.7267,2.5773 2.7373,3.528 2.4414,1.1466 3.052,-2.396 1.1174,-3.7294 m 2.6186,5.864 c -1.2,0.2947 -0.084,1.5414 0.1787,1.7867 0.264,0.2453 0.556,0.1853 0.796,0.356 0.9253,0.6707 1.5293,1.8213 2.1493,1.908 2.3787,0.3267 2.9654,-1.436 1.4227,-2.9667 -0.94,-0.9293 -2.6973,-1.544 -4.5467,-1.084 m -56.712,-53.244 8.104,-6.1973 2.084,6.9413 z m 21.9187,1.4307 -6.7973,-0.508 -3.008,-10.0213 5.392,-4.1654 -1.5534,-5.18 -23.4373,18.1067 1.404,4.6733 29.5333,2.2054 z m 68.3093,85.6227 c -0.1933,1.5333 -2.4186,2.5986 -3.9853,2.968 -0.588,0.136 -1.2813,0.6573 -1.6387,0.74 -0.948,0.2213 -0.8453,-0.2454 0.059,-1.164 0.5053,-0.5134 1.6227,-1.6574 0.9133,-2.4707 -0.6933,-0.7973 0.4947,-2.804 1.148,-2.2067 1.196,1.0947 3.5534,1.756 3.504,2.1334 m 3.548,-9.1694 c -0.4013,-0.7213 0.9747,-2.452 -1.056,-2.464 -0.2813,0 -1.4546,-0.164 -1.8053,0.04 -0.3533,0.2014 -0.9547,1.556 -1.1067,1.4974 -0.9826,-0.3814 -2.5546,-1.128 -4.8253,-1.7027 -2.1467,-0.5373 -3.348,-2.0773 -5.064,-1.5493 -0.7213,0.2173 -1.3053,0.2746 -1.944,0.7186 -1.1013,0.7614 -0.844,2.4334 0.4187,3.2107 0.5426,0.332 4.264,-0.24 5.7146,0.083 1.684,0.372 3.404,0.844 3.5574,1.5546 0.072,0.3494 -0.3414,0.94 -1.0227,1.4267 -2.4773,1.7653 -3.768,0.912 -5.1107,0.924 -0.296,0 -0.2,-0.5693 0.284,-0.836 0.644,-0.352 1.8707,-0.468 1.9147,-0.708 0.055,-0.304 -1.9,-0.9813 -3.7213,-1.1053 -0.7014,-0.044 -1.2627,0.089 -1.8587,0.212 -1.7627,0.36 -4.3533,3.2333 -5.372,6.3253 -0.844,2.5587 -2,4.4987 -0.6827,5.62 1.5747,1.34 2.4694,-0.3867 3.5867,-3.2573 0.636,-1.6347 2.1533,-2.52 2.9707,-2.9787 0.3266,-0.1867 1.5106,-1.824 3.6493,-0.4187 0.092,0.059 -0.065,0.62 -0.7027,0.6014 -0.8266,-0.024 -1.916,0.444 -2.1226,0.928 -0.2507,0.5853 0.053,1.36 -0.043,2.1733 -0.1013,0.8147 -1.6813,0.6213 -0.5907,2.248 0.085,0.1267 -0.9453,0.5107 -1.3266,0.268 -0.18,-0.116 -0.077,-0.4653 -0.268,-0.544 -0.5894,-0.2347 -1.5574,1.1387 -1.7107,1.2733 -0.8693,0.792 -2.1733,1.08 -3.5453,1.4414 -2.332,0.6053 -5.4894,1.704 -7.2787,2.4826 -2.1147,0.932 -1.768,2.4907 0.5053,3.5534 1.016,0.4746 3.8707,-0.756 5.28,-1.2814 0.9974,-0.372 3.1067,-1.1026 4.0187,-0.8546 0.976,0.2653 -3.176,5.0986 -3.0933,5.8466 0.1413,1.2907 2.008,2.7414 2.8786,1.1587 0.3947,-0.72 0.7547,-1.692 1.2987,-2.8027 0.424,-0.8586 1.1787,-1.7533 1.6187,-2.5053 0.632,-1.0747 1.228,-2.1373 1.5293,-2.032 0.6907,0.2427 0.5613,1.3867 1.1733,2.9693 1.4427,3.7187 5.4494,7.7827 8.8534,9.444 2.0373,0.9934 3.644,0.091 2.7813,-2.5733 -0.196,-0.6053 -0.3493,-1.024 -0.472,-1.32 -0.416,-1.0013 -0.4173,0.08 -2.3587,-1.3627 -0.552,-0.4093 -2.7986,-2.7746 -4.0186,-3.8133 -0.5854,-0.5027 -1.4867,-1.8227 -2.04,-3.096 -0.356,-0.8173 -1.3574,-1.2347 0.364,-2.0653 1.04,-0.5 0.316,-1.7107 1.2,-1.8707 0.7493,-0.1333 2.172,-0.08 3.132,-0.292 1.16,-0.256 2.6373,-1.1107 4.4533,-1.7573 1.6947,-0.604 4.092,-3.9014 3.1507,-5.2387 -0.6427,-0.916 -1.956,-1.348 -3.592,-2.3507 -0.8294,-0.5093 -2.6347,0.5107 -1.7347,-0.7613 0.6173,-0.8773 0.7133,-1.2987 1.6667,-1.332 1.4973,-0.052 5.8773,2.3413 6.4586,-0.1853 0.468,-2.036 -3.1333,-1.3947 -3.992,-2.9414 m 209.9614,-75.568 -21.292,-7.0466 -1.6,4.8333 21.2933,7.0467 -2.4653,7.4506 4.8093,1.5934 6.52,-19.7027 -4.8093,-1.5907 z m -29.0974,12.5854 -2.308,4.496 11.0774,5.6853 9.0266,15.3613 2.6627,-5.1893 -5.876,-9.9707 11.5093,-1.0066 2.744,-5.3467 -17.8626,1.6027 z m 10.472,-29.5347 26.908,5.6533 1.0387,-4.9466 -26.908,-5.652 z m 29.3534,-23.3 c -1.2374,-1.7907 -3.0694,-2.7907 -5.4947,-3.0027 -1.304,-0.1146 -2.6067,0.055 -3.908,0.508 -0.6813,0.2707 -1.5453,0.976 -2.5907,2.1147 -0.2653,0.308 -0.584,0.812 -0.9613,1.5133 -0.44,0.8134 -0.7093,1.3427 -0.8107,1.596 l -0.8253,1.7734 -0.84,1.912 -0.3867,0.8186 c -0.2853,0.5667 -0.5626,1.0147 -0.8266,1.3454 -0.5187,0.808 -1.312,1.164 -2.3814,1.0706 -0.992,-0.088 -1.728,-0.6026 -2.2106,-1.544 -0.4827,-0.9426 -0.6627,-2.104 -0.5414,-3.4906 0.1467,-1.6654 0.648,-3.324 1.5014,-4.9774 0.8786,-1.6253 1.8586,-2.912 2.9413,-3.8586 l -5.8693,-0.516 c -2.1787,2.3666 -3.4307,5.4013 -3.7574,9.1093 -0.2466,2.8187 0.304,5.22 1.6547,7.208 1.3493,1.9893 3.3427,3.0987 5.9773,3.3293 2.5294,0.2227 4.5054,-0.432 5.928,-1.9626 1.3347,-1.4227 2.4427,-3.1214 3.3267,-5.1014 0.2947,-0.6613 0.66,-1.528 1.096,-2.6013 0.308,-0.8027 0.64,-1.4467 0.9987,-1.936 0.5453,-0.828 1.2093,-1.2053 1.992,-1.136 1.8,0.1573 2.5773,1.632 2.332,4.4267 -0.248,2.816 -1.3427,5.4066 -3.284,7.7653 l 5.4773,0.4827 c 1.7307,-2.356 2.724,-4.9787 2.9773,-7.8654 0.252,-2.864 -0.2533,-5.192 -1.5146,-6.9813 m -62.9214,99.1933 c 0,0 -0.3266,-0.3373 -0.3546,-0.3453 -0.7947,-0.2827 -0.672,-2.508 -0.5854,-2.5867 1.1227,-0.9613 2.848,3.2174 0.94,2.932 m -0.5186,-9.676 c 0.3986,-1.3546 -0.048,-1.6693 0.3266,-2.2706 0.4694,-0.76 1.56,-0.568 2.3694,0.128 0.76,0.656 1.2906,1.784 0.7653,2.4306 -0.5907,0.7334 -1.496,-0.136 -1.8987,0.2547 -0.4813,0.4653 -0.296,1.6547 0.4934,1.5747 0.672,-0.063 1.1213,0.6826 1.3013,1.46 0.075,0.324 -0.2307,1.0493 -0.1093,1.3413 0.1746,0.4213 1.0026,0.528 1.208,0.9373 0.1986,0.3934 -0.44,1.5934 -1.144,1.532 -1.1,-0.092 -0.9054,-2.248 -1.3614,-2.704 -2.396,-2.392 -2.132,-4.076 -1.9506,-4.684 m -1.6907,10.7694 c -0.552,0.1533 -0.7507,0.452 -1.2587,-0.212 -1.116,-1.4667 -1.3013,-3.4147 -0.772,-4.1427 1.1267,-1.5587 1.0774,1.0427 1.18,1.3813 0.212,0.7294 1.3854,2.82 0.8507,2.9734 m -0.8493,5.4826 c -0.4787,0.2094 -1.0667,-0.9333 -1.916,-1.74 -1.2267,-1.1626 -2.8027,-2.6373 -2.6827,-2.8946 0.2013,-0.4387 -0.013,-2.2547 0.46,-2.1774 0.808,0.136 1.6133,2.2627 2.1067,2.9254 0.804,1.4213 1.2173,0.5133 1.6253,2.1773 0.232,0.9467 1.0333,1.4307 0.4067,1.7093 m 5.964,-4.0626 c 1.8306,-2.1654 3.0746,-4.54 4.1453,-5.92 0.5867,-0.7467 1.4627,-1.3094 1.9973,-2.1307 0.612,-0.9387 1.2947,0.268 1.868,0.156 1.488,-0.2987 2.8334,-1.448 2.7694,-2.6053 0.035,-0.7387 -0.532,-1.8814 -1.9374,-2.5547 -2.628,-1.26 -4.5666,4.6467 -6.1026,4.1733 -0.3094,-0.095 -0.3774,-2.088 -0.3667,-2.1186 -0.093,-1.3907 -0.4267,-3.1267 -1.3293,-4.548 -0.752,-1.18 -1.3614,-1.0507 -2.0587,-1.4867 -0.5667,-0.3533 -0.9707,-0.8973 -1.7653,-0.9787 -1.9694,-0.2026 -2.8707,1.3227 -2.8147,2.6494 0.061,1.42 1.2173,3.8826 0.4507,4.792 -0.848,1.0093 -1.7334,0.9626 -2.084,0.2906 -0.4987,-0.96 -0.5947,-2.94 -1.2187,-3.2826 -0.352,-0.192 -1.1427,0.3546 -1.6,1.224 -0.4573,0.872 0.4973,2.9466 -0.5627,3.36 -0.4853,0.1866 -1.1026,-0.8227 -1.5426,-0.7147 -1.228,0.2973 0.1946,3.5693 -0.5267,4.4907 -1.2787,1.6253 -1.0787,2.6853 -0.3107,4.2226 0.5667,1.1254 1.8707,2.7107 2.5747,4.0134 0.808,1.4973 2.284,2.3986 2.1667,3.1306 -0.132,0.796 -0.492,0.312 -0.968,0.94 -0.6787,0.9147 1.464,5.8734 4.2786,7.484 0.5347,0.3067 1.9947,0.412 2.4147,-0.4026 0.7733,-1.4894 -2.324,-2.3614 -2.9293,-3.9667 -0.404,-1.0747 1.9906,-4.0587 3.1973,-6.3187 0.5533,-1.032 1.144,-2.5933 2.2547,-3.8986 m -95.7174,-136.4427 36.796,27.5973 v -11.6306 l -36.796,-27.5907 z m 0,29.4893 36.796,27.5907 v -11.6133 l -36.796,-27.6 z m -7.424,119.5774 c -67.3173,-0.1267 -121.7773,-54.568 -121.9013,-121.9 0.124,-67.316 54.584,-121.7774 121.9013,-121.8934 67.32,0.116 121.768,54.5774 121.892,121.8934 -0.124,67.332 -54.572,121.7733 -121.892,121.9 m 0,-248.096 c -69.692,0.1226 -126.0773,56.5026 -126.204,126.196 0.1267,69.708 56.512,126.072 126.204,126.2013 69.6934,-0.1293 126.064,-56.4933 126.1947,-126.2013 -0.1307,-69.6934 -56.5013,-126.0734 -126.1947,-126.196 m -44.2146,126.6266 36.796,-27.5973 v -11.624 l -36.796,27.6 z m 116.6613,-8.3346 c 1.8013,1.3506 2.86,3.4706 2.86,5.72 0,5.8933 -6.7253,9.2573 -11.44,5.72 l -4.7947,-3.5947 v 11.6227 l 13.3747,10.0306 c 1.8013,1.3507 2.86,3.4707 2.86,5.7214 0,5.892 -6.7253,9.256 -11.44,5.72 l -4.7947,-3.596 v 11.624 l 13.3747,10.0306 c 1.8013,1.3507 2.86,3.4707 2.86,5.72 0,5.892 -6.7253,9.256 -11.44,5.7214 l -56.4427,-42.336 v 11.6133 l 57.852,43.392 c 1.8,1.3507 2.86,3.4707 2.86,5.72 0,5.892 -6.7266,9.256 -11.4413,5.7213 l -49.2707,-36.956 v 39.4534 c 0,4.0986 -3.3226,7.4213 -7.4213,7.4213 -4.0987,0 -7.4213,-3.3227 -7.4213,-7.4213 v -39.4534 l -49.2707,36.956 c -4.7133,3.5347 -11.4413,0.1707 -11.4413,-5.7213 0,-2.2493 1.06,-4.3693 2.86,-5.72 l 57.852,-43.392 v -11.6133 l -56.4374,42.332 c -4.716,3.536 -11.4466,0.1706 -11.4466,-5.7227 0,-2.2533 1.0613,-4.3733 2.864,-5.724 l 13.3813,-10.0307 v -11.624 l -4.804,3.6054 c -4.7133,3.5346 -11.4413,0.1706 -11.4413,-5.7214 0,-2.2493 1.06,-4.3693 2.86,-5.72 l 13.3853,-10.0386 v -11.6147 l -4.8027,3.6 c -4.716,3.5347 -11.4426,0.1693 -11.4426,-5.724 0,-2.2507 1.0613,-4.3707 2.8626,-5.7227 l 65.0214,-48.7613 v -11.6147 l -56.4427,42.336 c -4.7133,3.536 -11.4413,0.172 -11.4413,-5.72 0,-2.2493 1.06,-4.3693 2.86,-5.72 l 13.3853,-10.0386 v -16.664 c 0,-4.0987 3.3227,-7.4227 7.42,-7.4227 4.1,0 7.4227,3.324 7.4227,7.4227 v 5.5213 l 36.796,-27.5893 v -13.996 c 0,-4.0987 3.3226,-7.4227 7.4213,-7.4227 4.0987,0 7.4213,3.324 7.4213,7.4227 v 13.996 l 36.796,27.5986 v -5.5253 c 0,-4.1027 3.3254,-7.428 7.4267,-7.428 4.1013,0 7.4253,3.3253 7.4253,7.428 v 16.6587 l 13.3747,10.0293 c 1.8013,1.352 2.86,3.4707 2.86,5.72 0,5.8933 -6.7253,9.2573 -11.44,5.7213 l -56.4427,-42.328 v 11.6147 z m -72.4427,-106.8187 c -63.3573,0.1107 -114.6146,51.3667 -114.7306,114.7213 0.116,63.3667 51.3733,114.608 114.7306,114.7254 63.36,-0.1174 114.6054,-51.3587 114.7227,-114.7254 -0.1173,-63.3546 -51.3627,-114.6106 -114.7227,-114.7213 m 116.072,231.0587 c -0.7333,-1.0307 -0.4093,-1.148 -0.7986,-1.5014 -0.7707,-0.6946 -1.46,-0.6106 -1.4374,-0.9786 0.068,-1.1827 1.516,-2.116 1.752,-2.4174 0.3734,-0.4813 1.456,-1.4266 1.66,-2.372 0.3934,-1.836 -2.3626,-2.0773 -3.0586,-1.6773 -0.5974,0.3467 -2.3294,3.7907 -3.6107,5.2573 -0.4867,0.56 -0.9067,0.4494 -1.216,0.1667 -1.072,-0.968 2.1933,-4.08 1.0653,-5.1 -1.672,-1.5107 -3.3733,-0.9347 -4.7093,0.968 0,0 -1.552,2.4347 -3.1493,4.4307 -1.344,1.6733 -2.0227,4.86 -0.54,5.4466 1.5826,0.6254 2.8466,-0.8453 3.172,-2.5666 0.1066,-0.5827 -0.079,-0.6507 -0.1934,-1.1534 -0.14,-0.62 0.344,-0.8733 0.336,-1.2226 -0.027,-1.044 -0.1213,-1.6427 0.6774,-1.5667 0.2986,0.032 0.9746,1.248 1.1293,1.5893 0.284,0.6454 0.5747,1.7707 0.272,2.552 -1.0147,2.6094 -2.504,5.1787 -1.4173,6.5654 0.2493,0.316 1.8173,0.456 2.3986,0.1533 0.6627,-0.352 0.5254,-0.9853 0.9507,-2.3653 0.168,-0.5347 1.2507,-1.1734 1.4267,-1.6374 0.3133,-0.832 0.3253,-2.28 0.772,-2.1786 0.8973,0.2053 2.1453,1.98 2.4013,3.9666 0.1547,1.1894 0,2.5427 -0.608,3.0054 -0.2267,0.168 -1.2693,1.5826 -0.4413,2.5573 0.952,1.1133 2.0266,0.9453 2.5893,0.6373 2.476,-1.34 1.8427,-4.06 1.6733,-6.8933 -0.089,-1.492 -0.652,-3.0373 -1.096,-3.6653 m 42.8534,-133.9267 0.4706,6.0613 c 0.088,1.1507 -0.1346,2.072 -0.672,2.7654 -0.5373,0.6906 -1.3293,1.0773 -2.372,1.16 -1.072,0.083 -1.9186,-0.1774 -2.5426,-0.7787 -0.6254,-0.6013 -0.9814,-1.4773 -1.0707,-2.6307 l -0.4707,-6.0613 z m -22.48,1.7453 11.084,-0.86 0.3306,4.2627 -10.524,8.052 0.4574,5.8853 11.1173,-8.5213 c 0.672,1.556 1.7147,2.7307 3.1307,3.5333 1.4146,0.8 3.036,1.1294 4.864,0.9867 2.4013,-0.1867 4.2866,-1.1013 5.6573,-2.744 1.396,-1.6213 1.9933,-3.7493 1.7893,-6.38 l -0.8866,-11.4187 -27.4134,2.1294 z m -251.5374,-59.2146 -23.284,-14.624 -2.688,4.28 23.2827,14.6253 z m 234.5494,7.3733 23.6573,-14.0133 -2.5773,-4.3494 -23.656,14.0134 z m -15.6227,-22.28 13.8413,-10.9947 -6.0133,20.8494 2.616,3.2946 21.5307,-17.1013 -3.0787,-3.8773 -13.7787,10.9453 6.0174,-20.7173 -2.704,-3.4027 -21.5307,17.1013 z m -212.9947,6.364 -13.5453,-11.356 21.632,1.712 2.7013,-3.224 -21.0706,-17.664 -3.18,3.792 13.4853,11.3053 -21.5027,-1.7413 -2.792,3.332 21.0707,17.664 z m 206.536,-17.1253 c 2.9027,-0.2894 5.608,-1.876 8.1147,-4.7654 l 10.452,-12.0413 -3.844,-3.3387 -10.5827,12.1907 c -1.3893,1.604 -2.836,2.5053 -4.3386,2.7107 -1.504,0.2026 -2.8974,-0.252 -4.1774,-1.364 -1.264,-1.0974 -1.9013,-2.404 -1.912,-3.92 -0.01,-1.5174 0.6814,-3.076 2.072,-4.6787 l 10.5814,-12.192 -3.8174,-3.3133 -10.4533,12.0426 c -2.5053,2.8894 -3.7053,5.7827 -3.6013,8.6814 0.1053,2.9 1.3226,5.3613 3.6546,7.384 2.3494,2.04 4.9667,2.9093 7.852,2.604 m -141.124,-50.7214 c 1.004,-2.0053 2.5694,-3.276 4.6947,-3.8066 2.104,-0.528 4.0707,-0.1427 5.9013,1.1533 1.832,1.2973 3.0627,3.2 3.692,5.7147 0.6294,2.516 0.4427,4.776 -0.5613,6.7826 -1.004,2.0054 -2.5573,3.2707 -4.66,3.8 -2.1267,0.5307 -4.104,0.1507 -5.936,-1.1466 -1.8013,-1.2774 -3.02,-3.184 -3.6573,-5.7254 -0.636,-2.5386 -0.46,-4.796 0.5266,-6.772 m 0.428,16.9814 c 3.028,2.1026 6.3374,2.704 9.9267,1.8053 3.5667,-0.8933 6.1893,-2.98 7.8693,-6.2627 1.6974,-3.3133 2.0654,-6.888 1.104,-10.724 -0.9666,-3.8613 -2.976,-6.84 -6.028,-8.9373 -3.0293,-2.1013 -6.3266,-2.708 -9.8933,-1.8147 -3.5893,0.8987 -6.224,2.9907 -7.904,6.272 -1.6933,3.232 -2.0493,6.804 -1.0693,10.716 0.9666,3.86 2.964,6.8414 5.9946,8.9454 m 118.892,13.4346 -11.0653,-5.92 10.58,-19.7746 -4.4893,-2.4014 -12.9694,24.2427 15.5534,8.3213 z m -167.28,4.324 -5.588,4.612 -3.268,-9.6773 z m -1.6693,15.6894 -2.1707,-6.4587 8.0694,-6.6627 5.932,3.3547 4.1706,-3.444 -25.7826,-14.572 -3.7614,3.104 9.4254,28.0773 z m 29.372,-20.6627 -7.5507,-15.9813 18.9307,10.6066 3.8027,-1.796 -11.7454,-24.8626 -4.4746,2.1146 7.5173,15.9107 -18.8,-10.58 -3.932,1.8587 11.7467,24.8586 z m 199.5373,97.672 4.9134,-1.2387 -3.296,-13.0586 6.856,-1.7307 2.5773,10.2147 4.8373,-1.22 -2.5786,-10.2147 5.1426,-1.2987 3.2,12.6827 4.9134,-1.2387 -4.4467,-17.6186 -26.6587,6.7266 z m -121.8906,-131.6733 4.58,9.5253 2.804,0.3733 6.808,-8.0093 -2.484,18.6507 4.9773,0.6626 3.6293,-27.256 -4.976,-0.6613 -8.6173,10.344 -5.6107,-12.2387 -5.0093,-0.668 -3.6307,27.256 5.0467,0.672 z m 36.948,6.1066 0.3533,10.196 -6.864,-2.324 z m -13.868,17.0334 4.352,-5.244 9.9106,3.356 0.2694,6.8093 5.1226,1.736 -1.1746,-29.592 -4.6214,-1.5667 -18.9146,22.7894 z m -191.9947,161.14 c 1.3,-0.1587 2.54,-0.5934 3.7187,-1.3067 0.6093,-0.408 1.308,-1.276 2.096,-2.6067 0.1933,-0.356 0.4026,-0.9146 0.6266,-1.6786 0.2614,-0.8867 0.4147,-1.464 0.4614,-1.7294 l 0.4413,-1.9053 0.4227,-2.0467 0.2093,-0.8813 c 0.1627,-0.612 0.34,-1.1093 0.5307,-1.488 0.34,-0.896 1.0426,-1.4093 2.1066,-1.5387 0.9894,-0.1213 1.816,0.2307 2.484,1.0507 0.668,0.8213 1.084,1.9213 1.252,3.3013 0.2027,1.66 0.057,3.388 -0.4373,5.1814 -0.5213,1.772 -1.2133,3.236 -2.076,4.384 l 5.848,-0.712 c 1.6413,-2.764 2.2373,-5.9934 1.7867,-9.6907 -0.3414,-2.808 -1.3787,-5.044 -3.1134,-6.7093 -1.7306,-1.6627 -3.9106,-2.336 -6.536,-2.016 -2.5213,0.3093 -4.32,1.3573 -5.392,3.152 -1.012,1.6653 -1.744,3.5586 -2.1986,5.68 -0.1507,0.7066 -0.328,1.6306 -0.5307,2.772 -0.1347,0.8466 -0.3267,1.5466 -0.576,2.0986 -0.3613,0.9214 -0.9333,1.4307 -1.7133,1.5254 -1.7947,0.2186 -2.8614,-1.0627 -3.1987,-3.8454 -0.3427,-2.8093 0.192,-5.568 1.6027,-8.2813 l -5.46,0.6667 c -1.204,2.6626 -1.632,5.4346 -1.2814,8.3106 0.348,2.8534 1.3254,5.0267 2.9307,6.516 1.58,1.4947 3.5787,2.092 5.996,1.7974 m 6.264,-55.8894 c 4.0093,1.0134 7.648,0.6187 10.912,-1.1826 3.212,-1.8147 5.288,-4.5827 6.228,-8.3094 0.6587,-2.604 0.584,-5.0413 -0.2187,-7.3093 l -5.524,-1.396 c 1.1054,2.1507 1.3254,4.5413 0.6627,7.1693 -0.6,2.3774 -1.9067,4.1254 -3.916,5.2454 -2.044,1.1373 -4.3347,1.3853 -6.8733,0.7426 -2.5387,-0.6386 -4.4307,-1.9186 -5.6747,-3.8373 -1.2573,-1.9707 -1.6013,-4.088 -1.0293,-6.3493 0.5933,-2.3534 1.8093,-4.2814 3.648,-5.7854 l -5.5227,-1.396 c -1.596,1.6147 -2.688,3.5867 -3.276,5.9174 -0.9467,3.748 -0.4373,7.1826 1.5307,10.304 1.972,3.0986 4.9906,5.1613 9.0533,6.1866 m 275.8053,-24.9946 29.504,-1.4654 -2.1933,-5.0586 -21.0467,1.2266 15.2947,-14.4933 -2.2373,-5.1573 -21.2334,20.5373 z m -286.6253,50.7533 22.42,0.5947 0.136,-5.088 -22.4213,-0.596 0.208,-7.844 -5.0654,-0.1347 -0.5493,20.744 5.0653,0.1347 z m 32.3053,-49.948 -10.9866,-4.9747 4.608,-10.1746 10.9853,4.9746 2.0853,-4.608 -25.0466,-11.3386 -2.0854,4.604 9.3747,4.2453 -4.6093,10.1773 -9.3734,-4.2466 -2.1,4.6373 25.0467,11.3413 z M 8652.317,6260.224 c 1.152,-0.064 2.068,0.1787 2.7493,0.7307 0.6787,0.552 1.048,1.3507 1.108,2.3973 0.06,1.0707 -0.2187,1.9134 -0.8333,2.524 -0.6147,0.6107 -1.4987,0.948 -2.6507,1.0134 l -6.072,0.3413 -0.372,-6.6667 z m -4.8107,22.8507 -0.6213,-11.0987 4.2706,-0.2386 7.8227,10.6933 5.8933,-0.3307 -8.2813,-11.2986 c 1.5707,-0.636 2.7693,-1.656 3.6013,-3.0534 0.8307,-1.396 1.1934,-3.0093 1.0907,-4.8386 -0.1333,-2.408 -1.008,-4.312 -2.6213,-5.7174 -1.5907,-1.432 -3.704,-2.0746 -6.34,-1.9266 l -11.4347,0.6413 1.5387,27.4507 z"
       id="path100" />
  </g>
</svg>
